<svg height="512" viewBox="0 0 128 128" width="512" xmlns="http://www.w3.org/2000/svg"><g id="Layer_2" data-name="Layer 2"><path d="m31.15 88.393h95.1v-8h-75.372a10.942 10.942 0 0 1 -10.524-7.8l-14.62-48.005a13.922 13.922 0 0 0 -13.392-9.921h-10.595v8h10.6a5.969 5.969 0 0 1 5.74 4.252l14.613 48.009a19.179 19.179 0 0 0 2.667 5.465h-4.217a13.387 13.387 0 1 0 0 26.774h87.116v-8h-87.116a5.387 5.387 0 1 1 0-10.774z" fill="#a7adf0"/><path d="m49.124 120.5a10.623 10.623 0 0 1 -10.624-10.624v-2.709h21.248v2.709a10.624 10.624 0 0 1 -10.624 10.624z" fill="#d7fc7e"/><path d="m93.431 120.5a10.623 10.623 0 0 1 -10.623-10.624v-2.709h21.247v2.709a10.623 10.623 0 0 1 -10.624 10.624z" fill="#d7fc7e"/><circle cx="77.043" cy="31.5" fill="#57a4ff" r="24"/><path d="m101.043 31.5a24 24 0 0 1 -48 0h-25.2l12.511 41.1a10.942 10.942 0 0 0 10.524 7.8h66.122l9.247-48.9z" fill="#ffe477"/><path d="m88.21 27.5h-7.167v-7.167h-8v7.167h-7.167v8h7.167v7.167h8v-7.167h7.167z" fill="#fff5cc"/><g fill="#231f20"><path d="m126.247 78.643h-7.139l8.859-46.818a1.751 1.751 0 0 0 -1.72-2.075h-23.52a25.78 25.78 0 0 0 -25.684-24 1.75 1.75 0 0 0 0 3.5 22.25 22.25 0 1 1 -15.733 6.517 1.75 1.75 0 1 0 -2.475-2.475 25.557 25.557 0 0 0 -7.477 16.458h-22.223l-1.727-5.672a15.663 15.663 0 0 0 -15.066-11.161h-10.595a1.749 1.749 0 0 0 -1.747 1.75v8a1.749 1.749 0 0 0 1.75 1.75h10.6a4.229 4.229 0 0 1 4.066 3.012l14.62 48.009a21.037 21.037 0 0 0 1.27 3.2h-1.156a15.137 15.137 0 1 0 0 30.274h5.6v.959a12.374 12.374 0 1 0 24.748 0v-.959h19.56v.959a12.374 12.374 0 0 0 24.748 0v-.959h12.46a1.75 1.75 0 0 0 1.75-1.75v-8a1.75 1.75 0 0 0 -1.75-1.75h-87.116a3.637 3.637 0 1 1 0-7.274h42.975a1.75 1.75 0 0 0 0-3.5h-42.975a7.137 7.137 0 1 0 0 14.274h85.366v4.5h-85.366a11.637 11.637 0 1 1 0-23.274h4.219a1.75 1.75 0 0 0 1.431-2.753 17.363 17.363 0 0 1 -2.424-4.967l-14.62-48.01a7.711 7.711 0 0 0 -7.414-5.491h-8.842v-4.5h8.845a12.183 12.183 0 0 1 11.716 8.683l2.1 6.908 12.516 41.1a12.68 12.68 0 0 0 12.2 9.036h73.623v4.5h-17.625a1.75 1.75 0 0 0 0 3.5h19.372a1.75 1.75 0 0 0 1.75-1.75v-8a1.749 1.749 0 0 0 -1.75-1.751zm-23.941 30.274v.959a8.874 8.874 0 0 1 -17.748 0v-.959zm-44.308 0v.959a8.874 8.874 0 1 1 -17.748 0v-.959zm-7.12-30.274a9.2 9.2 0 0 1 -8.85-6.555l-11.828-38.838h21.152a25.751 25.751 0 0 0 51.382 0h21.4l-8.589 45.393z"/><path d="m88.125 86.643a1.75 1.75 0 0 0 0 3.5h4.75a1.75 1.75 0 0 0 0-3.5z"/><path d="m65.876 37.25h5.417v5.417a1.749 1.749 0 0 0 1.75 1.75h8a1.749 1.749 0 0 0 1.75-1.75v-5.417h5.417a1.749 1.749 0 0 0 1.75-1.75v-8a1.749 1.749 0 0 0 -1.75-1.75h-5.417v-5.417a1.749 1.749 0 0 0 -1.75-1.75h-8a1.749 1.749 0 0 0 -1.75 1.75v5.417h-5.417a1.749 1.749 0 0 0 -1.75 1.75v8a1.749 1.749 0 0 0 1.75 1.75zm1.75-8h5.417a1.749 1.749 0 0 0 1.75-1.75v-5.417h4.5v5.417a1.749 1.749 0 0 0 1.75 1.75h5.417v4.5h-5.417a1.749 1.749 0 0 0 -1.75 1.75v5.417h-4.5v-5.417a1.749 1.749 0 0 0 -1.75-1.75h-5.417z"/></g></g></svg>