<svg id="Layer_3" enable-background="new 0 0 64 64" height="512" viewBox="0 0 64 64" width="512" xmlns="http://www.w3.org/2000/svg"><g><g><path d="m40 42v-28c0-1.105-.895-2-2-2h-34c-1.105 0-2 .895-2 2v28z" fill="#a1cdfb"/></g><g><path d="m11.5 36c12.979 0 23.5-7.387 23.5-16.5 0-2.702-.931-5.249-2.57-7.5h-28.43c-1.105 0-2 .895-2 2v20.591c2.906.903 6.118 1.409 9.5 1.409z" fill="#c7e2fc"/></g><g><path d="m2 42h38v-18h11.842c2.501 0 4.74 1.551 5.618 3.893l4.54 12.107v13h-60z" fill="#669e4f"/></g><g><path d="m2 45.655c5.26 2.123 11.417 3.345 18 3.345 19.33 0 35-10.521 35-23.5 0-.2-.015-.398-.023-.597-.925-.57-1.999-.903-3.135-.903h-11.842v18h-38z" fill="#78b75b"/></g><g><circle cx="47" cy="53" fill="#4d5d7a" r="7"/></g><g><circle cx="17" cy="53" fill="#4d5d7a" r="7"/></g><g><circle cx="47" cy="53" fill="#8892a0" r="3"/></g><g><circle cx="17" cy="53" fill="#8892a0" r="3"/></g><g><path d="m2 42h4v6h-4" fill="#e47c6e"/></g><g><path d="m62 47h-4v-4h4" fill="#f5b953"/></g><g><path d="m44 38h12l-2.572-8.575c-.254-.846-1.033-1.425-1.916-1.425h-7.512z" fill="#c7e2fc"/></g><g><path d="m48 38v-4c0-1.105-.895-2-2-2h-2v6" fill="#8892a0"/></g><g><circle cx="21" cy="27" fill="#c66b60" r="11"/></g><g><path d="m29 23.5c0-1.858-.451-3.607-1.233-5.16-1.867-1.461-4.212-2.34-6.767-2.34-6.075 0-11 4.925-11 11 0 2.555.879 4.9 2.34 6.767 1.553.782 3.302 1.233 5.16 1.233 6.351 0 11.5-5.149 11.5-11.5z" fill="#e47c6e"/></g><g><path d="m28 25h-5v-5h-4v5h-5v4h5v5h4v-5h5z" fill="#fff"/></g><g><path d="m58 14c2.209 0 4-1.791 4-4s-1.791-4-4-4c-.75 0-1.443.219-2.043.578-.217-2.561-2.34-4.578-4.957-4.578-2.761 0-5 2.239-5 5 0 .43.071.841.173 1.239-.36-.154-.756-.239-1.173-.239-1.657 0-3 1.343-3 3s1.343 3 3 3z" fill="#c7e2fc"/></g><g><path d="m1 61h62v2h-62z"/></g><g><path d="m47 61c-4.411 0-8-3.589-8-8s3.589-8 8-8 8 3.589 8 8-3.589 8-8 8zm0-14c-3.309 0-6 2.691-6 6s2.691 6 6 6 6-2.691 6-6-2.691-6-6-6z"/></g><g><path d="m47 57c-2.206 0-4-1.794-4-4s1.794-4 4-4 4 1.794 4 4-1.794 4-4 4zm0-6c-1.103 0-2 .897-2 2s.897 2 2 2 2-.897 2-2-.897-2-2-2z"/></g><g><path d="m17 61c-4.411 0-8-3.589-8-8s3.589-8 8-8 8 3.589 8 8-3.589 8-8 8zm0-14c-3.309 0-6 2.691-6 6s2.691 6 6 6 6-2.691 6-6-2.691-6-6-6z"/></g><g><path d="m17 57c-2.206 0-4-1.794-4-4s1.794-4 4-4 4 1.794 4 4-1.794 4-4 4zm0-6c-1.103 0-2 .897-2 2s.897 2 2 2 2-.897 2-2-.897-2-2-2z"/></g><g><path d="m24 52h16v2h-16z"/></g><g><path d="m56 39h-12c-.553 0-1-.447-1-1v-10c0-.553.447-1 1-1h7.512c1.335 0 2.49.859 2.874 2.139l2.572 8.574c.091.303.033.631-.155.884-.19.254-.487.403-.803.403zm-11-2h9.656l-2.187-7.287c-.127-.427-.512-.713-.957-.713h-6.512z"/></g><g><path d="m62 48h-4c-.553 0-1-.447-1-1v-4c0-.553.447-1 1-1h4v2h-3v2h3z"/></g><g><path d="m49 38h-2v-4c0-.552-.448-1-1-1h-2v-2h2c1.654 0 3 1.346 3 3z"/></g><g><path d="m10 54h-8c-.553 0-1-.447-1-1v-11h2v10h7z"/></g><g><path d="m62 54h-8v-2h7v-11.818l-4.477-11.937c-.727-1.941-2.608-3.245-4.681-3.245h-12.842v-2h12.842c2.902 0 5.536 1.825 6.555 4.543l4.54 12.105c.042.113.063.232.063.352v13c0 .553-.447 1-1 1z"/></g><g><path d="m6 49h-4v-2h3v-5h2v6c0 .553-.447 1-1 1z"/></g><g><path d="m40 43h-38c-.553 0-1-.447-1-1v-28c0-1.654 1.346-3 3-3h34c1.654 0 3 1.346 3 3v28c0 .553-.447 1-1 1zm-37-2h36v-27c0-.552-.448-1-1-1h-34c-.552 0-1 .448-1 1z"/></g><g><path d="m21 39c-6.617 0-12-5.383-12-12s5.383-12 12-12 12 5.383 12 12-5.383 12-12 12zm0-22c-5.514 0-10 4.486-10 10s4.486 10 10 10 10-4.486 10-10-4.486-10-10-10z"/></g><g><path d="m23 35h-4c-.553 0-1-.447-1-1v-4h-4c-.553 0-1-.447-1-1v-4c0-.553.447-1 1-1h4v-4c0-.553.447-1 1-1h4c.553 0 1 .447 1 1v4h4c.553 0 1 .447 1 1v4c0 .553-.447 1-1 1h-4v4c0 .553-.447 1-1 1zm-3-2h2v-4c0-.553.447-1 1-1h4v-2h-4c-.553 0-1-.447-1-1v-4h-2v4c0 .553-.447 1-1 1h-4v2h4c.553 0 1 .447 1 1z"/></g><g><path d="m58 15h-13c-2.206 0-4-1.794-4-4s1.794-4 4-4c0-3.309 2.691-6 6-6 2.674 0 4.931 1.725 5.697 4.18.426-.119.865-.18 1.303-.18 2.757 0 5 2.243 5 5s-2.243 5-5 5zm-13-6c-1.103 0-2 .897-2 2s.897 2 2 2h13c1.654 0 3-1.346 3-3s-1.346-3-3-3c-.532 0-1.046.146-1.529.436-.295.178-.663.191-.97.032-.307-.157-.512-.461-.54-.806-.177-2.088-1.88-3.662-3.961-3.662-2.206 0-4 1.794-4 4 0 .298.045.613.143.99.095.368-.028.759-.316 1.007-.287.249-.691.311-1.043.163-.251-.106-.514-.16-.784-.16z"/></g></g></svg>