<svg id="Layer_3" enable-background="new 0 0 64 64" height="512" viewBox="0 0 64 64" width="512" xmlns="http://www.w3.org/2000/svg"><g><path d="m28 25h-5v-5h-4v5h-5v4h5v5h4v-5h5z" fill="#f4b2b0"/><g fill="#b3404a"><path d="m1 61v2h62v-2h-16-30z"/><path d="m47 49c-2.206 0-4 1.794-4 4s1.794 4 4 4 4-1.794 4-4-1.794-4-4-4zm0 6c-1.103 0-2-.897-2-2s.897-2 2-2 2 .897 2 2-.897 2-2 2z"/><path d="m17 49c-2.206 0-4 1.794-4 4s1.794 4 4 4 4-1.794 4-4-1.794-4-4-4zm0 6c-1.103 0-2-.897-2-2s.897-2 2-2 2 .897 2 2-.897 2-2 2z"/><path d="m54.386 29.139c-.384-1.28-1.539-2.139-2.874-2.139h-7.512c-.553 0-1 .447-1 1v10c0 .553.447 1 1 1h12c.316 0 .613-.149.803-.403.188-.253.246-.581.155-.884zm-9.386 3.861h1c.552 0 1 .448 1 1v3h-2zm4 4v-3c0-1.654-1.346-3-3-3h-1v-2h6.512c.445 0 .83.286.958.713l2.186 7.287z"/><path d="m58.396 27.543c-1.018-2.718-3.652-4.543-6.554-4.543h-10.842v-9c0-1.654-1.346-3-3-3h-34c-1.654 0-3 1.346-3 3v28 11c0 .553.447 1 1 1h7.069c.495 3.94 3.859 7 7.931 7s7.436-3.06 7.931-7h14.139c.495 3.94 3.859 7 7.931 7s7.436-3.06 7.931-7h7.068c.553 0 1-.447 1-1v-13c0-.12-.021-.239-.063-.352zm-55.396-13.543c0-.552.448-1 1-1h34c.552 0 1 .448 1 1v9 2 16h-36zm0 29h2v4h-2zm14 16c-3.309 0-6-2.691-6-6s2.691-6 6-6 6 2.691 6 6-2.691 6-6 6zm30 0c-3.309 0-6-2.691-6-6s2.691-6 6-6 6 2.691 6 6-2.691 6-6 6zm7.931-7c-.495-3.94-3.859-7-7.931-7s-7.436 3.06-7.931 7h-14.138c-.495-3.94-3.859-7-7.931-7s-7.436 3.06-7.931 7h-6.069v-3h3c.553 0 1-.447 1-1v-5h33c.553 0 1-.447 1-1v-17h10.842c2.073 0 3.954 1.304 4.682 3.245l4.476 11.937v1.818h-3c-.553 0-1 .447-1 1v4c0 .553.447 1 1 1h3v4zm6.069-8v2h-2v-2z"/><path d="m21 15c-6.617 0-12 5.383-12 12s5.383 12 12 12 12-5.383 12-12-5.383-12-12-12zm0 22c-5.514 0-10-4.486-10-10s4.486-10 10-10 10 4.486 10 10-4.486 10-10 10z"/><path d="m24 24v-4c0-.553-.447-1-1-1h-4c-.553 0-1 .447-1 1v4h-4c-.553 0-1 .447-1 1v4c0 .553.447 1 1 1h4v4c0 .553.447 1 1 1h4c.553 0 1-.447 1-1v-4h4c.553 0 1-.447 1-1v-4c0-.553-.447-1-1-1zm3 4h-4c-.553 0-1 .447-1 1v4h-2v-4c0-.553-.447-1-1-1h-4v-2h4c.553 0 1-.447 1-1v-4h2v4c0 .553.447 1 1 1h4z"/><path d="m58 5c-.438 0-.877.061-1.303.18-.766-2.455-3.023-4.18-5.697-4.18-3.309 0-6 2.691-6 6-2.206 0-4 1.794-4 4s1.794 4 4 4h13c2.757 0 5-2.243 5-5s-2.243-5-5-5zm0 8h-13c-1.103 0-2-.897-2-2s.897-2 2-2c.27 0 .533.054.783.16.352.147.756.086 1.043-.163.288-.248.411-.639.316-1.007-.097-.377-.142-.692-.142-.99 0-2.206 1.794-4 4-4 2.081 0 3.784 1.574 3.961 3.662.028.345.233.648.54.806.307.159.675.146.97-.032.483-.29.997-.436 1.529-.436 1.654 0 3 1.346 3 3s-1.346 3-3 3z"/></g></g></svg>