<svg xmlns="http://www.w3.org/2000/svg" viewBox="0 0 756.47 437.51"><title>Asset 9</title><g id="Layer_2" data-name="Layer 2"><g id="Layer_1-2" data-name="Layer 1"><path d="M402,66.3a24.53,24.53,0,0,0,5.12,1.1c15.65.08,31.31,0,47,0q-7.29,10.09-14.56,20.2c-2.72,3.77-5.48,7.52-8.11,11.35-1.84,2.69-1.9,5.41.95,7.44s5.36.76,7.42-1.57c.76-.87,1.31-1.92,2-2.86L468,66.28c2,.39,4.07,1.12,6.11,1.12q107.24.09,214.46,0c12.07,0,20.63,5.56,25.34,16.64,4.46,10.47,1.84,20-5.3,28.15-4.87,5.57-11.71,8.1-19.16,8.17-12.4.12-24.81,0-35.8,0,4.21,3.87,10.11,7.49,13.53,12.73,10.94,16.75-.75,39.17-22.69,40.29-11.6.59-23.24.89-34.78,2.14-9.64,1-16.59,6.85-20.32,15.71-4.06,9.65-2.62,18.83,4.11,27,4.31,5.25,9.58,7.32,16.58,7.26,38.16-.29,76.32-.23,114.48-.06,7.44,0,14.79,1,21.25,5.66a26.77,26.77,0,0,1,9.55,28.87c-3.43,11-12.88,18.36-24,18.37q-102,0-204,.05c-10.29,0-19.45,3.07-25.15,12.36-5.44,8.88-6.15,18.21-.71,27.39,5,8.47,12.53,13.17,22.53,13.19q60,.07,120,0c15.29,0,27,11.3,27,26,0,15.55-11.44,27-27.13,27-12.92,0-25.84,0-38.9.33,8.84,3.81,15.51,9.42,18.3,19,4.25,14.53-5.25,30.15-20.21,32.69a62.09,62.09,0,0,1-10.36,1q-261.47.08-522.92.11c-13.25,0-25.59-9.26-28.11-22.1-2.85-14.6,9-30.56,24.05-30.94,5-.13,10,0,16.6,0-15.59-6.33-22.83-16.9-19.86-32.23,2.07-10.66,9.3-17.69,21.5-20.46-1.75-.18-2.39-.27-3-.3s-1.34,0-2,0q-26.25,0-52.49,0c-13.29,0-25-10.39-26.41-23.23-1.4-13,7.81-27.17,21.59-28.85a71.75,71.75,0,0,1,8.37-.87q69.5-.08,139,0c12.34,0,22.73-7.6,25.85-18.87,3-11-1.42-23.67-11.22-29.59a25.09,25.09,0,0,0-11.72-3.4c-13.15-.41-26.33,0-39.49-.22-9.94-.19-19-2.76-25.2-11.53-10.38-14.71-3.59-35.12,13.65-41.4-16.5,0-33,.06-49.51,0a44.49,44.49,0,0,1-9.84-1.08C50.18,169.64,40.78,158.39,41.25,147c.51-12.26,7-22.69,21-26.4a19.64,19.64,0,0,1,5-.19q27.41,0,54.83,0c-3.89-2.7-7.9-4.94-11.25-7.91C102.35,105,100.08,95.53,104,85c4.13-11.17,14-17.56,25.84-17.56H318.27c3.64,3,6.87,2.81,9.62-1.21,1.2.4,2.39,1.16,3.58,1.16q28.83.12,57.65,0c1,0,2.07-.7,3.11-1.08C396.49,70.62,398.43,70.62,402,66.3ZM153.3,95.58a58.11,58.11,0,0,0,0,6.86c.11,1,1.16,1.9,1.78,2.84.74-1,2-1.92,2.12-3a48.83,48.83,0,0,0,.12-6.85l.74-.72a60,60,0,0,0,7.35-.14c.91-.12,1.67-1.39,2.5-2.13-.79-.61-1.53-1.68-2.36-1.76-2.43-.24-4.9-.07-7.36-.07l-1-.16c0-2.66.15-5.33,0-8,0-.68-1.08-1.3-1.66-2-.73.67-2,1.28-2.1,2-.3,2.63-.19,5.31-.24,8a64.08,64.08,0,0,0-7.47.23c-.92.13-1.69,1.37-2.53,2.11.81.59,1.59,1.61,2.44,1.68,2.48.21,5,0,7.48,0Zm147.88,66.86c-1-4.31-2-8.33-2.91-12.36-1-4.22-1.78-8.47-2.86-12.66-1.51-5.86-3.88-7.65-9.93-7.66q-22,0-44,0c-2,0-4.49-.17-5.79.9-2.25,1.84-5.19,4.61-5.16,7,0,2.63,2.69,5.59,4.88,7.69,1.17,1.11,3.78.95,5.74,1,11.33.08,22.67.22,34-.06,4-.09,5.78.91,6.69,5.06q13.4,61.43,27.21,122.77c.71,3.14.19,5-2.76,6.95a23.57,23.57,0,0,0-10.11,26.52,24.71,24.71,0,0,0,23.31,17.89c3.22.1,6.45,0,10.48,0-15.38,8.5-20.78,18.15-17.66,30.53a24.57,24.57,0,0,0,47.49.38c3.35-12.62-2-22.27-17.2-30.65h102c-14.68,8.22-20.12,17.94-17.12,30.05a24.54,24.54,0,0,0,47.46.78c1.82-6.62,1.48-13.34-2.59-18.68-3.75-4.91-9-8.65-13.09-12.39h4.51c7.9,0,11.95-2.72,12.07-8.08s-4-8.06-12-8.07q-69.5,0-139,0a26,26,0,0,1-7.88-.93,7.78,7.78,0,0,1-3.84-11.87c2.2-3.21,5.41-3.35,8.86-3.35q71.25.06,142.5,0c7.45,0,9.65-1.73,11.69-8.86q15.45-54,30.92-107.92c2.83-9.89-.12-13.91-10.25-13.92H301.18ZM249.86,264.18c11.16,0,22.31,0,33.46,0a22.92,22.92,0,0,0,5.9-.72c3.78-1,6-3.58,5.84-7.64s-2.37-6.86-6.53-7.68a27.24,27.24,0,0,0-4.95-.38q-33.45,0-66.91,0a27.35,27.35,0,0,0-5,.38c-4.15.81-6.35,3.51-6.53,7.67s2,6.61,5.83,7.65a22.92,22.92,0,0,0,5.9.72C227.89,264.21,238.88,264.18,249.86,264.18Zm10.24,36.4c6,0,12,.1,18,0,5.49-.11,9-3.36,9-8s-3.41-7.93-9-8q-18-.17-36,0c-5.58,0-9,3.2-9,7.95,0,4.58,3.53,7.89,9,8C248.11,300.68,254.11,300.58,260.1,300.58Zm7.37-94.12c-4,0-8-.13-12,0-5,.2-8.41,3.62-8.32,8.11.09,4.32,3.36,7.68,8.13,7.79,7.82.18,15.65.17,23.47,0,5-.1,8.41-3.6,8.32-8.1-.08-4.31-3.35-7.58-8.13-7.8C275.13,206.32,271.29,206.46,267.47,206.46ZM501,96.78c-1.37-1.77-2.29-4.15-3.71-4.49A8.21,8.21,0,0,0,491,93.46c-7.42,5.87-14.47,12.22-21.79,18.22-2.9,2.38-4.23,5-1.72,8.08,2.75,3.38,5.77,1.5,8.28-.57,7.43-6.13,14.77-12.38,22.1-18.64A32.44,32.44,0,0,0,501,96.78ZM358.52,103a17.63,17.63,0,0,0-1.45-3.5c-6-8-12-15.89-18.11-23.75-1.68-2.17-3.82-3.25-6.45-1.21s-3,4.62-1.08,7.39c1.6,2.32,3.23,4.64,5,6.86,4.39,5.63,8.69,11.34,13.37,16.71a5.91,5.91,0,0,0,5.16,1.3C356.44,106.3,357.45,104.19,358.52,103Zm41.75-14.25h-2.34c-1.25,2-3.58,4.06-3.44,5.94.13,1.68,3,4.36,4.65,4.35s4.49-2.71,4.6-4.39C403.87,92.76,401.53,90.71,400.27,88.73Zm177.66,28.63c-1.26,1.82-2.77,3.08-2.57,3.91.3,1.2,1.85,2.09,2.87,3.12.94-1.1,2.43-2.11,2.63-3.33C581,120.22,579.37,119.08,577.93,117.36Zm-15.85-6c-1.33,1.78-2.89,3-2.71,3.83.27,1.21,1.79,2.15,2.78,3.2,1-1.07,2.47-2,2.72-3.24C565,114.3,563.45,113.11,562.08,111.35Zm26.28-6.18c-2.13-1.23-3.4-2.54-4.59-2.46-.92.06-2.62,2.17-2.4,2.78a4.85,4.85,0,0,0,3.13,2.71C585.34,108.34,586.49,106.71,588.36,105.17Zm-16.13-5.68c-1.76-1.37-3-3-3.79-2.79-1.22.25-2.18,1.76-3.25,2.73,1.06,1,2,2.5,3.21,2.77C569.23,102.38,570.45,100.82,572.23,99.49Zm.63,21.92c-1.84-1.26-3-2.66-4.12-2.62-.89,0-2.44,1.87-2.37,2.82a3.75,3.75,0,0,0,2.69,2.58C570.07,124.24,571.16,122.74,572.86,121.41Zm15.53-7c-2.06-1.25-3.36-2.66-4.28-2.45-1.11.26-1.91,1.89-2.85,2.93,1,.84,2,2.31,3.07,2.35S586.43,115.84,588.39,114.39Zm-22.16-8.67c-2.05-1-3.3-2.24-4.29-2.06s-2.59,1.73-2.56,2.63,1.79,2.78,2.52,2.65C563.18,108.72,564.24,107.3,566.23,105.72Zm15-6.52c-1.76-1.23-2.89-2.62-3.85-2.51s-1.94,1.62-2.9,2.52c1.06,1,2,2.48,3.25,2.93C578.28,102.35,579.55,100.63,581.19,99.2Z" style="fill:#f3f9fd"/><path d="M468,66.28,441.79,102c-.69.94-1.24,2-2,2.86-2.06,2.33-4.51,3.65-7.42,1.57s-2.79-4.75-.95-7.44c2.63-3.83,5.39-7.58,8.11-11.35q7.28-10.11,14.56-20.2Q465.43,52,476.76,36.5c.59-.8,1.07-1.7,1.73-2.44,2.06-2.32,4.47-3.69,7.39-1.56s2.81,4.78.92,7.44c-5.29,7.44-10.68,14.81-16,22.22C469.81,63.51,468.92,64.91,468,66.28Z" style="fill:#a0e1f7"/><path d="M402,66.3c-3.57,4.32-5.51,4.32-9.77,0-.69-7.24-1.45-14.47-2-21.71-.27-3.31.13-6.72,4.36-7,4-.31,5.43,2.46,5.7,6Z" style="fill:#a0e1f7"/><path d="M327.89,66.23c-2.75,4-6,4.25-9.62,1.21-2.83-3.64-5.64-7.31-8.5-10.93-2.14-2.7-2.64-5.59.12-7.9s5.87-1.66,7.76,1.22C321.17,55.22,327.53,58.87,327.89,66.23Z" style="fill:#a0e1f7"/><path d="M165.26,18.78c-1-1-2.77-2-2.83-3.1-.32-4.9-.14-9.83-.14-14.75l1.4-.93c1,1,2.77,2,2.84,3.08.3,4.91.13,9.84.13,14.77Z" style="fill:#ffcd00"/><path d="M143.56,19.62c4.91,0,9.84-.18,14.74.13,1.11.07,2.12,1.82,3.18,2.79L160.57,24c-4.92,0-9.86.17-14.76-.13-1.11-.07-2.11-1.82-3.16-2.79Z" style="fill:#ffcd00"/><path d="M176.64,24a23,23,0,0,1-4.92-.09c-1.3-.28-2.45-1.29-3.66-2,1.29-.77,2.53-2.09,3.88-2.21a59.74,59.74,0,0,1,10.36,0c1.27.1,2.45,1.28,3.67,2-1.3.77-2.52,1.91-3.92,2.22A25,25,0,0,1,176.64,24Z" style="fill:#ffcd00"/><path d="M166.41,25.82v17c-2.29.78-4.13,1.12-4.12-2.33,0-4.12-.21-8.25.13-12.34.1-1.14,1.8-2.15,2.76-3.22Z" style="fill:#ffcd00"/><path d="M246.82,19.94c-1.59-2.54-3.24-4-3.07-5.22s2.14-2.19,3.33-3.26c1,1.16,2.86,2.27,2.95,3.51S248.48,17.53,246.82,19.94Z" style="fill:#2d7bbf"/><path d="M228.37,28.39c2.51-1.75,3.92-3.48,5.07-3.32s2.35,2.05,3.52,3.19c-1.15,1.11-2.19,2.92-3.48,3.12S230.9,30,228.37,28.39Z" style="fill:#2d7bbf"/><path d="M265.7,28.54c-2.72,1.49-4.14,2.89-5.48,2.81-1.09-.07-3.08-2.16-2.89-2.89.36-1.38,1.92-3.24,3.14-3.36S263.09,26.72,265.7,28.54Z" style="fill:#2d7bbf"/><path d="M246.79,36.51c1.74,2.66,3.27,4,3.25,5.26s-2,3.36-2.66,3.21c-1.42-.33-3.28-1.72-3.58-3C243.53,40.86,245.16,39.3,246.79,36.51Z" style="fill:#2d7bbf"/><path d="M541.33,37.44a45,45,0,0,1,0,6.47c-.16,1.17-1.19,2.23-1.82,3.33-.71-1-1.86-2-2-3.13a42.32,42.32,0,0,1,0-6.47Z" style="fill:#ffcd00"/><path d="M542.31,32.73a42.3,42.3,0,0,1,6.47,0c1.12.16,2.1,1.31,3.14,2-1.11.64-2.17,1.67-3.34,1.83a48.13,48.13,0,0,1-6.47,0C542.18,35.35,542.25,34,542.31,32.73Z" style="fill:#ffcd00"/><path d="M537.23,32.53c0-2.62-.05-5.25.24-7.84.08-.79,1.22-1.46,1.87-2.19.67.7,1.85,1.35,1.9,2.1.21,2.6,0,5.23,0,7.85l-4.1,0Z" style="fill:#ffcd00"/><path d="M537.12,36.56c-2.62,0-5.25.22-7.86,0-.74-.06-1.39-1.25-2.09-1.92.73-.65,1.41-1.77,2.2-1.86,2.6-.29,5.24-.2,7.86-.26l-.09-.06C537.13,33.83,537.13,35.2,537.12,36.56Z" style="fill:#ffcd00"/><path d="M301.18,162.44H496.91c10.13,0,13.08,4,10.25,13.92q-15.46,54-30.92,107.92c-2,7.13-4.24,8.86-11.69,8.86q-71.25,0-142.5,0c-3.45,0-6.66.14-8.86,3.35A7.78,7.78,0,0,0,317,308.34a26,26,0,0,0,7.88.93q69.51.09,139,0c8,0,12.09,2.8,12,8.07s-4.17,8.07-12.07,8.08h-4.51c4.05,3.74,9.34,7.48,13.09,12.39,4.07,5.34,4.41,12.06,2.59,18.68a24.54,24.54,0,0,1-47.46-.78c-3-12.11,2.44-21.83,17.12-30.05h-102c15.21,8.38,20.55,18,17.2,30.65a24.57,24.57,0,0,1-47.49-.38c-3.12-12.38,2.28-22,17.66-30.53-4,0-7.26.08-10.48,0a24.71,24.71,0,0,1-23.31-17.89A23.57,23.57,0,0,1,306.29,281c2.95-1.92,3.47-3.81,2.76-6.95q-13.73-61.35-27.21-122.77c-.91-4.15-2.7-5.15-6.69-5.06-11.33.28-22.67.14-34,.06-2,0-4.57.15-5.74-1-2.19-2.1-4.85-5.06-4.88-7.69,0-2.35,2.91-5.12,5.16-7,1.3-1.07,3.82-.89,5.79-.9q22-.09,44,0c6,0,8.42,1.8,9.93,7.66,1.08,4.19,1.9,8.44,2.86,12.66C299.2,154.11,300.16,158.13,301.18,162.44Zm3.51,16.44,21.62,97.45c1.3.1,2.28.23,3.25.23,42.65,0,85.3-.05,128,.11,4,0,4.63-2.08,5.44-4.92q8.91-31.42,17.9-62.83c2.8-9.87,5.55-19.75,8.44-30Zm39.46,170.84c-.09-4.45-4.07-8.3-8.36-8.07a8.5,8.5,0,0,0-7.71,8.76,8.33,8.33,0,0,0,8.09,7.83C340.33,358.2,344.24,354,344.15,349.72Zm107.27-8.07c-4.13-.1-8.26,4.07-8.24,8.34a8.73,8.73,0,0,0,7.79,8.24,8.3,8.3,0,0,0,.45-16.58Z" style="fill:#3a83c2"/><path d="M249.86,264.18c-11,0-22,0-33,0a22.92,22.92,0,0,1-5.9-.72c-3.79-1-6-3.61-5.83-7.65s2.38-6.86,6.53-7.67a27.35,27.35,0,0,1,5-.38q33.45,0,66.91,0a27.24,27.24,0,0,1,4.95.38c4.16.82,6.35,3.53,6.53,7.68s-2.06,6.6-5.84,7.64a22.92,22.92,0,0,1-5.9.72C272.17,264.21,261,264.18,249.86,264.18Z" style="fill:#3a83c2"/><path d="M260.1,300.58c-6,0-12,.1-18,0-5.45-.11-9-3.42-9-8,.06-4.75,3.43-7.9,9-7.95q18-.15,36,0c5.56,0,8.95,3.24,9,8s-3.51,7.86-9,8C272.09,300.68,266.1,300.58,260.1,300.58Z" style="fill:#3a83c2"/><path d="M267.47,206.46c3.82,0,7.66-.14,11.48,0,4.78.22,8.05,3.49,8.13,7.8.09,4.5-3.29,8-8.32,8.1-7.82.16-15.65.17-23.47,0-4.77-.11-8-3.47-8.13-7.79-.09-4.49,3.29-7.91,8.32-8.11C259.47,206.33,263.47,206.46,267.47,206.46Z" style="fill:#3a83c2"/><path d="M501,96.78a32.44,32.44,0,0,1-3.12,3.77c-7.33,6.26-14.67,12.51-22.1,18.64-2.51,2.07-5.53,4-8.28.57-2.51-3.09-1.18-5.7,1.72-8.08,7.32-6,14.37-12.35,21.79-18.22a8.21,8.21,0,0,1,6.28-1.17C498.66,92.63,499.58,95,501,96.78Z" style="fill:#a0e1f7"/><path d="M358.52,103c-1.07,1.21-2.08,3.32-3.6,3.8a5.91,5.91,0,0,1-5.16-1.3c-4.68-5.37-9-11.08-13.37-16.71-1.73-2.22-3.36-4.54-5-6.86-1.92-2.77-1.68-5.25,1.08-7.39s4.77-1,6.45,1.21c6.11,7.86,12.12,15.8,18.11,23.75A17.63,17.63,0,0,1,358.52,103Z" style="fill:#a0e1f7"/><path d="M400.27,88.73c1.26,2,3.6,4,3.47,5.91-.11,1.68-2.95,4.39-4.6,4.39s-4.52-2.67-4.65-4.35c-.14-1.88,2.19-4,3.44-5.94Z" style="fill:#a0e1f7"/><path d="M153.2,90.52c.05-2.66-.06-5.34.24-8,.09-.75,1.37-1.36,2.1-2,.58.65,1.61,1.27,1.66,2,.18,2.65.05,5.32,0,8h-4.1Z" style="fill:#50b499"/><path d="M153.12,94.56c-2.49,0-5,.19-7.48,0-.85-.07-1.63-1.09-2.44-1.68.84-.74,1.61-2,2.53-2.11a64.08,64.08,0,0,1,7.47-.23l-.07-.06C153.13,91.83,153.13,93.19,153.12,94.56Z" style="fill:#50b499"/><path d="M158.24,90.61c2.46,0,4.93-.17,7.36.07.83.08,1.57,1.15,2.36,1.76-.83.74-1.59,2-2.5,2.13a60,60,0,0,1-7.35.14C158.15,93.34,158.2,92,158.24,90.61Z" style="fill:#61bca3"/><path d="M157.37,95.43a48.83,48.83,0,0,1-.12,6.85c-.17,1.08-1.38,2-2.12,3-.62-.94-1.67-1.84-1.78-2.84a58.11,58.11,0,0,1,0-6.86Z" style="fill:#5ebaa1"/><path d="M577.93,117.36c1.44,1.72,3.08,2.86,2.93,3.7-.2,1.22-1.69,2.23-2.63,3.33-1-1-2.57-1.92-2.87-3.12C575.16,120.44,576.67,119.18,577.93,117.36Z" style="fill:#ea11ad"/><path d="M562.08,111.35c1.37,1.76,3,3,2.79,3.79-.25,1.21-1.76,2.17-2.72,3.24-1-1-2.51-2-2.78-3.2C559.19,114.35,560.75,113.13,562.08,111.35Z" style="fill:#ea11ad"/><path d="M588.36,105.17c-1.87,1.54-3,3.17-3.86,3a4.85,4.85,0,0,1-3.13-2.71c-.22-.61,1.48-2.72,2.4-2.78C585,102.63,586.23,103.94,588.36,105.17Z" style="fill:#ea11ad"/><path d="M572.23,99.49c-1.78,1.33-3,2.89-3.83,2.71-1.22-.27-2.15-1.79-3.21-2.77,1.07-1,2-2.48,3.25-2.73C569.28,96.53,570.47,98.12,572.23,99.49Z" style="fill:#ea11ad"/><path d="M572.86,121.41c-1.7,1.33-2.79,2.83-3.8,2.78a3.75,3.75,0,0,1-2.69-2.58c-.07-1,1.48-2.79,2.37-2.82C569.85,118.75,571,120.15,572.86,121.41Z" style="fill:#ea11ad"/><path d="M588.39,114.39c-2,1.45-3,2.87-4.06,2.83s-2.05-1.51-3.07-2.35c.94-1,1.74-2.67,2.85-2.93C585,111.73,586.33,113.14,588.39,114.39Z" style="fill:#ea11ad"/><path d="M566.23,105.72c-2,1.58-3.05,3-4.33,3.22-.73.13-2.48-1.67-2.52-2.65s1.51-2.43,2.56-2.63S564.18,104.67,566.23,105.72Z" style="fill:#ea11ad"/><path d="M581.19,99.2c-1.64,1.43-2.91,3.15-3.5,2.94-1.27-.45-2.19-1.9-3.25-2.93,1-.9,1.85-2.41,2.9-2.52S579.43,98,581.19,99.2Z" style="fill:#ea11ad"/><path d="M157.37,95.43l-4.07.15-.18-1c0-1.37,0-2.73,0-4.1h4.1l1,.16c0,1.37-.09,2.73-.13,4.1Z" style="fill:#a2d8c5"/><path d="M304.69,178.88h184.6c-2.89,10.29-5.64,20.17-8.44,30q-8.94,31.43-17.9,62.83c-.81,2.84-1.48,4.94-5.44,4.92-42.65-.16-85.3-.1-127.95-.11-1,0-1.95-.13-3.25-.23Zm103.24,55H380.25c1.42,8.9,7.3,14,14.94,13.52A13.7,13.7,0,0,0,407.93,233.88Zm2.25-9.5c.31.51.61,1,.92,1.52a20.87,20.87,0,0,0,3.7-2.5c2.36-2.46,4.38-2.43,6.69.06a17.5,17.5,0,0,0,3.71,2.4c.09-5.15-1.9-8-6.39-8.35C413.83,217.15,411.24,219.9,410.18,224.38Zm-47.28,1.41c1.24-.66,2.79-1,3.64-2,2.62-3,4.76-2.92,7.26.16.77,1,2.43,1.18,4.4,2.06-.8-5.41-3-8.15-7.44-8.47C365.78,217.16,363.21,219.93,362.9,225.79Z" style="fill:#f3f9fd"/><path d="M344.15,349.72c.09,4.31-3.82,8.48-8,8.52a8.33,8.33,0,0,1-8.09-7.83,8.5,8.5,0,0,1,7.71-8.76C340.08,341.42,344.06,345.27,344.15,349.72Z" style="fill:#e2f3e5"/><path d="M451.42,341.65a8.3,8.3,0,0,1-.45,16.58,8.73,8.73,0,0,1-7.79-8.24C443.16,345.72,447.29,341.55,451.42,341.65Z" style="fill:#e2f3e5"/><path d="M407.93,233.88a13.7,13.7,0,0,1-12.74,13.52c-7.64.51-13.52-4.62-14.94-13.52Z" style="fill:#f3f9fd"/><path d="M410.18,224.38c1.06-4.48,3.65-7.23,8.63-6.87,4.49.32,6.48,3.2,6.39,8.35a17.5,17.5,0,0,1-3.71-2.4c-2.31-2.49-4.33-2.52-6.69-.06a20.87,20.87,0,0,1-3.7,2.5C410.79,225.4,410.49,224.89,410.18,224.38Z" style="fill:#f3f9fd"/><path d="M362.9,225.79c.31-5.86,2.88-8.63,7.86-8.28,4.46.32,6.64,3.06,7.44,8.47-2-.88-3.63-1.11-4.4-2.06-2.5-3.08-4.64-3.18-7.26-.16C365.69,224.75,364.14,225.13,362.9,225.79Z" style="fill:#f3f9fd"/><path d="M425.4,263.22c-18.15-19-39.09-26.44-65.17-15.6,3.67-9,12.25-12.49,24.31-11.68C405.05,237.31,422.92,248.51,425.4,263.22Z" style="fill:#3e85c4"/><path d="M376,212.74c-5.71,3.83-8.78,7.5-11.27,7.14-2.91-.42-5.32-4.35-7.95-6.75,2.46-2.64,4.62-6.89,7.47-7.43C366.76,205.23,370,208.94,376,212.74Z" style="fill:#3d85c3"/><path d="M437.19,213.12c-5.72,3.56-8.91,7.13-11.56,6.77-2.83-.39-5.16-4.49-7.7-7,2.55-2.57,4.88-6.86,7.7-7.2C428.29,205.39,431.46,209.22,437.19,213.12Z" style="fill:#3e85c4"/></g></g></svg>