<svg xmlns="http://www.w3.org/2000/svg" viewBox="0 0 796.49 844.34"><title>Asset 12</title><g id="Layer_2" data-name="Layer 2"><g id="Layer_1-2" data-name="Layer 1"><path d="M458.89,2c14.46,0,28.95-.62,43.36.16,17.52.95,33.94,6.25,49.6,14.39a137.07,137.07,0,0,1,38.24,29A171.28,171.28,0,0,1,610.31,72.3a359.19,359.19,0,0,1,22,41.47c7.89,18,14.3,36.7,21.17,55.16,3.87,10.4,7.57,20.88,11,31.44,4.46,13.68,8.54,27.48,12.85,41.22q9.06,28.89,18.2,57.77c3.33,10.56,6.53,21.17,10,31.68,4.2,12.69,8.42,25.38,13,37.93,4.66,12.75,9.2,25.61,14.82,37.95,8.55,18.76,17.84,37.19,27.1,55.61,7,14,14.9,27.62,21.68,41.75,4.16,8.65,8,17.72,10.2,27,3.6,15,5.2,30.21,3.34,45.82-1.69,14.17-5.1,27.86-11,40.56-5.43,11.61-12.77,22.37-19.79,33.17-9.47,14.56-21.69,26.82-34.47,38.41-10.3,9.34-21.34,17.86-32.07,26.73-9.46,7.81-18.66,16.08-30.1,21-10.38,4.44-21.19,5.64-32.55,4.38-19.68-2.2-37.69-9.77-56.09-16.18-23.38-8.14-47.53-10.69-72.08-9.09a302.82,302.82,0,0,0-71.93,14,455,455,0,0,0-44.38,17c-19.56,8.54-38.85,17.75-58,27.09-12.46,6.06-24.5,13-36.84,19.33-14.28,7.3-28.55,14.63-43.06,21.45-14.66,6.89-29.53,13.32-44.44,19.67a119.85,119.85,0,0,1-58.93,9.07A90.46,90.46,0,0,1,115,833.26c-12.88-7-25.79-14.09-38.22-21.89-6.68-4.19-12.69-9.63-18.44-15.09-8.27-7.87-16.7-15.72-23.81-24.59-6.64-8.28-11.71-17.83-17.34-26.9C9.49,732.37,5.61,718.4,2.92,704.34c-2.9-15.12-4-30.59-1.61-46,1.65-10.6,2.12-21.58,5.28-31.72a383,383,0,0,1,18.07-47.12A515.54,515.54,0,0,1,50,532.36c6.57-11,14.65-21.17,22.13-31.66,5.76-8.06,11.48-16.15,17.46-24.05,7.27-9.63,14.45-19.36,22.27-28.54C127.61,429.58,144,411.56,159.7,393c11.23-13.26,22.84-26.38,32.39-40.81,8.69-13.12,15.07-27.81,22-42a208,208,0,0,0,9.36-23.26c4.85-14.07,9.26-28.28,13.87-42.43,5.42-16.67,10.55-33.45,16.38-50,4.84-13.71,10-27.34,15.94-40.62,11-24.67,23.5-48.55,40.84-69.52C318,75.28,325,65.62,333.56,57.67c11.26-10.45,23.17-20.54,36-28.86,18.53-12,38.56-21.45,60.65-25.22,9.44-1.62,19-2.42,28.52-3.59ZM711.26,606.09l-27.2,1.83A52.1,52.1,0,0,0,675.83,586c-5.18-7.6-10.75-15-19.43-19.06a23.06,23.06,0,0,0-3.61-3.27c-13.76-8-28.56-12.61-44.47-10.52-12.62,1.66-23.35,7.09-27.44,20.72a22.74,22.74,0,0,1-2,3.85c-9.82,11.13-11.88,27.84-5.15,41.88,8.71,18.16,23.47,29.47,42.06,35.79,15.56,5.29,31,5.2,45.26-4.54a17.92,17.92,0,0,0,12.89,10.8c7.32,1.79,15,2.25,22.45,3.29a54.9,54.9,0,0,0,33-9.06c6.67-4.35,9.95-10.44,8.83-18.6-.42-3.1-.55-6.25-.81-9.37.71-5.63-.31-11-5.53-13.74-5.85-3-12.31-4.88-18.49-7.24Zm-305.73,85c-1.63,3.29.29,4.55,3,4.29q21.48-2.1,42.9-4.73c.91-.11,1.57-2.34,2.34-3.59a29.63,29.63,0,0,0-.23-4.72c-.93-4.44-2.05-8.85-3.09-13.27.65-1.49,1.84-3,1.88-4.47.51-20.6-2-40.93-12.83-58.69-6-9.89-2.6-18.7-2.32-26.54l10.17,15.79c18.91,10,34.84,23.89,49.76,39,3.57,3.61,7.18,5.69,12.25,4.75v4.33l13.08-3.47.35,1.32c-14.39,5.41-14.78,5.78-12,11l13.65-4.25.51,1.88c-2,.55-4.23.78-6.06,1.72-2.85,1.49-7.76,3.58-7.68,5.2.2,3.88,2.8,7.63,4.43,11.44,2.11,4.76,5.44,5.45,9.52,1.49,7.35-7.14,10.07-16.57,12.32-26.19.91-3.86,1.67-7.56-2.11-10.4q-4-4.47-7.93-8.95c3.18-5.27,2-10.29-.28-15.62-7.18-16.68-14.37-33.28-27.28-46.66-1.36-1.41-1.32-4.59-1.19-6.91s1.21-4.45,1.87-6.68l3.33-12.16c2.41-1.45,4.77-3,7.24-4.31,9.28-5,13.07-12,12.24-22.32-.51-6.43-.65-12.89-1-19.34-.35-6.28-.54-12.58-1.19-18.83q-2.2-21.18-4.84-42.31c-1.42-11.29-2.88-22.59-4.88-33.79-1.87-10.55-4.54-21-6.65-31.48a5.29,5.29,0,0,1,1.26-4.28c11.47-10.37,20.08-22.46,24.56-37.49,5.35-17.93,3.47-35-5.11-51.38-6.14-11.73-15.61-20.21-27.19-26.42l-7-4.15A117,117,0,0,0,503.17,237c1.3-.45,2-2.58,3-4,.08-1.32.23-2.65.24-4q0-65.46,0-130.92c0-14.63-8.62-26.46-22-30.55l-19.85-3.93q0-8.68,0-17.38c0-9-.45-9.43-9.6-10.53a14.62,14.62,0,0,0-1.48,0,144.85,144.85,0,0,0-48.45.2c-8.62,1.42-8.61,1.6-8.6,10,0,2.65.13,5.3.19,8q-.09,4.89-.19,9.78c-3.29.42-6.59.82-9.89,1.25-20.75,2.7-32,15.51-32,36.32,0,14,0,28,0,42,0,7,.28,13.95.43,20.93-.06,4-.18,7.95-.17,11.92q0,28.4.13,56.77l.5,3,6.91,2.57c-3.12,1.58-6.26,3.12-9.36,4.74-30.51,15.84-44.17,50-32.62,82.19,6.45,18,18.29,31.76,34.47,41.88,1.35.85,3.28,2.64,3.13,3.76-1.84,14.25-2.62,28.53-5.87,42.74-3.77,16.51-4.81,33.79-5.5,50.8-.71,17.58.41,35.25.78,52.88.13,6.23,2.6,11.26,8,14.59,3.83,2.34,7.68,4.64,11.51,7,.76,15.12,2.26,30.25,2.05,45.35-.18,12.74,4.82,22.56,12.2,32.27,12.36,16.27,24,33.1,36,49.65a50.22,50.22,0,0,0,4.35,4.66c.5,1,.73,2.38,1.53,3a39.63,39.63,0,0,0,5.3,2.86c-11.63-1.12-11.63-1.12-13.16,1.22l8.25,4.23C411.22,679.1,405.45,681.7,405.53,691.06ZM63.43,664l-.09,0,12.27,11.56a9.94,9.94,0,0,1-1.92,1.37c-5.3,2.17-10.77,4-15.91,6.47-7,3.37-14.05,12.85-10.65,22.54.42,4.44,1.16,8.88,1.2,13.33.1,8.76,4.66,14.58,11.73,18.82,9,5.39,18.86,7.85,29.23,8.58,11.89,1.16,23.6.29,34.86-3.9,12-4.47,21.31-11.27,20.23-26,17.79,8.48,37.25,11.27,56,16.33,16.65,4.33,33.19,9.14,50,12.84,18.35,4.05,33.45-2.24,44.6-17.22,6.7-9,8.7-19.6,8.35-30.68-.37-13.51-4.44-25.66-14.27-35.17a41.55,41.55,0,0,0-19.78-10.74c-7.4-1.67-15-2.59-22.46-3.81-8.88-1.44-17.76-2.83-26.64-4.25l-47.88-7.84-4.4-.37c8.67-20.09,8.2-38.93-7.67-55.64-.33-.36-.59-.79-.89-1.19-2.67-3.79-5-7.93-8.07-11.3-9.8-10.59-22.31-13.8-36.26-12-14.64,1.85-27.84,7.08-38.75,17.35-1.35.87-3,1.49-4,2.65-5.73,6.56-12,12.79-16.8,20a59.74,59.74,0,0,0-9.13,46c1.87,9.55,10.53,14.56,15.17,22.27Z" style="fill:#e9f7f8"/><path d="M498.33,244c11.58,6.21,21.05,14.69,27.19,26.42,8.58,16.39,10.46,33.45,5.11,51.38-4.48,15-13.09,27.12-24.56,37.49a5.29,5.29,0,0,0-1.26,4.28c2.11,10.52,4.78,20.93,6.65,31.48,2,11.2,3.46,22.5,4.88,33.79q2.65,21.12,4.84,42.31c.65,6.25.84,12.55,1.19,18.83.36,6.45.5,12.91,1,19.34.83,10.32-3,17.36-12.24,22.32-2.47,1.32-4.83,2.86-7.24,4.31-1.72.49-3.42,1.07-5.16,1.47q-15.06,3.5-30.14,6.94c-12.62-1.8-25.29-3.29-37.84-5.49-13.91-2.44-27.74-5.44-40.47-11.93-10.84-5.52-15.49-14.42-13-26.24,3-14.34,3.51-28.35-.68-42.68-4.46-15.26-2.32-30.18,4.82-44.49a88.7,88.7,0,0,0,6.78-17.62c2.25-9,3.45-18.23,5.28-27.33,1.25-6.2,2.8-12.34,4.21-18.51l1.82-.21c2.1,5,5,9.77,6.05,14.95s.23,10.85.23,17.37c9-16.61,22.78-26.8,38.32-35.37L433.2,331.43l21.63-1.74c-1.92-8-3.71-15.32-5.49-22.68,1.39-.39,2.85-1.29,4.16-1.1,11.17,1.69,20.37-1.24,26.87-10.92,2.89-1.08,6.29-1.52,8.59-3.34a36.63,36.63,0,0,0,9.54-46.71A3,3,0,0,1,498.33,244Zm4.57,187.49c-15.55,4.08-30.45,7.89-45.25,12.05-1.12.31-2.31,3.12-2.18,4.66.76,9.21,3.19,18,8.56,25.67,9.52,13.56,28.93,12.35,36-2.26C506.11,459,504.82,445.81,502.9,431.46Zm-98.15-47.83-.13.38.5.05a1,1,0,0,0-.08-.39C405,383.62,404.85,383.64,404.75,383.63Z" style="fill:#fdfefe"/><path d="M449.34,307c1.78,7.36,3.57,14.72,5.49,22.68l-21.63,1.74,10.92,15.35c-15.54,8.57-29.3,18.76-38.32,35.37,0-6.52.81-12.13-.23-17.37s-3.95-10-6.05-14.95l-1.82.21c-1.41,6.17-3,12.31-4.21,18.51-1.83,9.1-3,18.35-5.28,27.33a88.7,88.7,0,0,1-6.78,17.62c-7.14,14.31-9.28,29.23-4.82,44.49,4.19,14.33,3.7,28.34.68,42.68-2.49,11.82,2.16,20.72,13,26.24,12.73,6.49,26.56,9.49,40.47,11.93,12.55,2.2,25.22,3.69,37.84,5.48-1.09.55-2.13,1.42-3.28,1.6-5.56.85-11.16,1.46-16.73,2.26-18.73,2.68-37.36,1.51-55.8-2.11-8.74-1.71-17.23-4.7-25.84-7.11-3.83-2.32-7.68-4.62-11.51-7-5.43-3.33-7.9-8.36-8-14.59-.37-17.63-1.49-35.3-.78-52.88.69-17,1.73-34.29,5.5-50.8,3.25-14.21,4-28.49,5.87-42.74.15-1.12-1.78-2.91-3.13-3.76-16.18-10.12-28-23.89-34.47-41.88C308.85,293.13,322.51,259,353,243.16c3.1-1.62,6.24-3.16,9.36-4.74l4.41-1.14c-2.12,8.78-.3,16.71,5.13,23.86l8.4,4.79c-1.7,1.57-3.5,3.05-5.09,4.72-11.57,12.25-9.33,31.88,10.89,35.31,6.16,1,12.55.66,18.84.93.82,2.92,1.64,5.85,2.45,8.77l4.81,34.18c3.55-6.59,6.83-12.81,10.23-19,2.22-4,4.61-8,6.93-11.94l0,0,1.13-1,10.91-14C444.47,303.84,447.62,303.53,449.34,307Z" style="fill:#a8d1f9"/><path d="M464.58,63.63l19.85,3.93c.59,2.06,1.08,4.15,1.79,6.17,3.81,10.8,5.94,21.91,3.09,33.15-2.33,9.2-5.92,18.08-8.95,27.1l-2,.25a580.39,580.39,0,0,0-107.19,1V170L355,164.12c-.15-7-.39-14-.43-20.93-.06-14,0-28,0-42,0-20.81,11.26-33.62,32-36.32,3.3-.43,6.6-.83,9.89-1.24Z" style="fill:#fd779b"/><path d="M355,164.12l16.18,5.9c.17.63.33,1.26.5,1.89v8.19a651.62,651.62,0,0,1,120.55.34V145.2c0-9.32,0-9.32-8.94-10.65-1-.15-2-.38-2.94-.57,3-9,6.62-17.9,8.95-27.1,2.85-11.24.72-22.35-3.09-33.15-.71-2-1.2-4.11-1.79-6.17,13.36,4.09,22,15.92,22,30.55q.06,65.46,0,130.92c0,1.33-.16,2.66-.24,4-20.76-4.87-41.86-6.21-63.08-6-18.76.17-37.54.15-56.26,1.18-10.48.58-20.84,3.14-31.26,4.8a4.21,4.21,0,0,0-.61-.16q-.06-28.38-.13-56.77C354.83,172.07,355,168.1,355,164.12Zm74.33,48.8c.09-.25.19-.5.28-.76,1.32-1.48,3.32-2.77,3.81-4.48.81-2.78-.49-4.76-3.9-4.85-.61,0-1-1.79-1.79-2.45-1.21-1-2.67-2.5-4-2.46s-2.71,1.58-3.87,2.68c-.73.69-1,2.47-1.63,2.55-3.24.38-4.77,2.32-3.71,5,.71,1.83,3.05,3,4.66,4.51,1.7,1.75,3.51,3.91,5.34,3.93C426.13,216.66,427.74,214.26,429.34,212.92Z" style="fill:#fe4971"/><path d="M367,539c8.61,2.41,17.1,5.4,25.84,7.11,18.44,3.62,37.07,4.79,55.8,2.11,5.57-.8,11.17-1.41,16.73-2.26,1.15-.18,2.19-1,3.28-1.6q15.07-3.45,30.14-6.93c1.74-.4,3.44-1,5.16-1.47l-3.33,12.16c-8.49,1-17.26.9-25.41,3.12-20.66,5.62-31.41,23.85-27.79,43.93L437.2,579.34c-.28,7.84-3.7,16.65,2.32,26.54,10.82,17.76,13.34,38.09,12.83,58.69,0,1.51-1.23,3-1.88,4.47-1.66.69-3.27,1.5-5,2.06-8,2.64-16,1.36-24-.21a50.22,50.22,0,0,1-4.35-4.66c-12-16.55-23.61-33.38-36-49.65-7.38-9.71-12.38-19.53-12.2-32.27C369.21,569.21,367.71,554.08,367,539Z" style="fill:#50a4e9"/><path d="M220.2,644c8.88,1.42,17.76,2.81,26.64,4.25,7.49,1.22,15.06,2.14,22.46,3.81a41.55,41.55,0,0,1,19.78,10.74c9.83,9.51,13.9,21.66,14.27,35.17a7,7,0,0,0-2,1.18c-12.48,15-29.27,21-47.93,21.6-22.53.75-43.28-5.33-61.33-19.37-2.84-2.21-5.76-4.31-8.64-6.47-.13-1-.27-1.92-.4-2.88.13-.82.28-1.63.39-2.45C186.82,663.84,197.87,650.14,220.2,644Z" style="fill:#fef2f6"/><path d="M447.37,595.13c-3.62-20.08,7.13-38.31,27.79-43.93,8.15-2.22,16.92-2.15,25.41-3.12-.66,2.23-1.74,4.43-1.87,6.68s-.17,5.5,1.19,6.91c12.91,13.38,20.1,30,27.28,46.66,2.28,5.33,3.46,10.35.27,15.63l-18.06,14.88c-5.07.94-8.68-1.14-12.25-4.75C482.21,619,466.28,605.15,447.37,595.13Z" style="fill:#78b8f8"/><path d="M656.4,567c8.68,4.09,14.25,11.46,19.43,19.06a52.1,52.1,0,0,1,8.23,21.89l.18,2.13q-1.46,7.44-2.9,14.88l-.83,1.17c-.72,1-1.44,1.92-2.17,2.87l-6.55,7.83c-8.52,4.41-17.55,7.56-27.14,6.93-20.8-1.36-38.47-9.85-52.29-25.58-3.3-3.76-5.43-8.55-8.1-12.87h6.18c-6-10.06-8.15-20.48-3.87-31.56l44.83,27.21c-1.13,1.07-2.08,2.58-3.43,3.13-9.16,3.71-18.59,5.71-28.57,4.14a43,43,0,0,0-6.62-.05l-.92,1.69c4.51,4.23,8.85,8.66,13.57,12.64,14,11.78,30.05,17.42,48.38,14.3,7.37-1.25,14.32-4.06,18.58-11l3.73-5.8c.73-1.24,2-2.45,2.1-3.73.46-9.15.64-18.23-4.42-26.58a69.82,69.82,0,0,0-16.64-18.81c-6.21,16-7.17,17.52-14,23.86a32.25,32.25,0,0,0-2.75,3.28l-2-.27c-5.42-3.46-10.83-7-16.29-10.39q-15.36-9.61-30.77-19.15a7.44,7.44,0,0,1,1-2.12c10-10,22.46-10.42,35.1-8.4a58.22,58.22,0,0,1,25.85,10.44C653.79,568.48,655.34,567.39,656.4,567Z" style="fill:#e2f1fd"/><path d="M183,692.05c.13,1,.27,1.92.4,2.88-.67,15.53,3.46,28.92,17,38.12-18.79-5.06-38.25-7.85-56-16.33q0-5.12,0-10.22c2-6.43.65-12.26-4.13-16.76-3.41-3.21-7.72-5.47-11.56-8.25-1.52-1.1-2.84-2.46-4.25-3.7a14.82,14.82,0,0,0,.56-1.91q5.7-36.43,43-40.07l4.4.37c-1,2.91-1.95,5.82-2.94,8.73-4.67,13.73-1.63,26.49,5.42,38.46C176.77,686.72,180.24,689.18,183,692.05Z" style="fill:#fd648c"/><path d="M200.42,733.05c-13.53-9.2-17.66-22.59-17-38.12,2.88,2.16,5.8,4.26,8.64,6.47,18.05,14,38.8,20.12,61.33,19.37,18.66-.62,35.45-6.62,47.93-21.6a7,7,0,0,1,2-1.18c.35,11.08-1.65,21.69-8.35,30.68-11.15,15-26.25,21.27-44.6,17.22C233.61,742.19,217.07,737.38,200.42,733.05Z" style="fill:#fdc0d1"/><path d="M47.13,705.91c-3.4-9.69,3.67-19.17,10.65-22.54,5.14-2.49,10.61-4.3,15.91-6.47a9.94,9.94,0,0,0,1.92-1.37c2.6,0,5.22-.15,7.82,0,10,.43,20,.93,30.05,1.41l-1.38,1.74c2,.48,3.91.77,5.7,1.39,9.36,3.29,18.41,7,21.62,17.78l-53-.86c4.33-9.22,11.84-14.84,21.71-18.54a18.29,18.29,0,0,0-3.69-1.23c-13.32-1-26.55-.57-38.8,5.41-6,2.94-12.14,6.43-13.29,14.22l0,4.44c1.59,3,2.67,6.38,4.86,8.81,5.91,6.58,14.38,8.36,22.46,10.6.63.17,2.54-1.7,2.66-2.76.62-5.22.84-10.49,1.2-15.74l56,.1c-3.11,9.51-10.72,13.74-19.48,16.62-10.75,3.54-21.86,3.28-33,3.1-1.95,0-4.69-1-4.54,2.72C68.35,722.81,55.71,718.17,47.13,705.91Z" style="fill:#fceeca"/><path d="M584.26,605.28c2.67,4.32,4.8,9.11,8.1,12.87,13.82,15.73,31.49,24.22,52.29,25.58,9.59.63,18.62-2.52,27.13-6.92-.8,1.34-1.6,2.69-2.41,4l-1.14,2-7.18,8c-14.26,9.75-29.7,9.84-45.26,4.55-18.59-6.32-33.35-17.63-42.06-35.79-6.73-14-4.67-30.75,5.15-41.88C577.53,587.55,578.36,596.91,584.26,605.28Z" style="fill:#82cefc"/><path d="M355.58,233c10.42-1.66,20.78-4.22,31.26-4.8,18.72-1,37.5-1,56.26-1.18,21.22-.19,42.32,1.15,63.08,6-1,1.37-1.71,3.5-3,4a117,117,0,0,1-11.82,2.86,59,59,0,0,0-6-2.19c-.57-.15-1.42.75-2.15,1.17L472.3,232c-1.21,3-2.24,5.53-3.71,9.15l-5.64-8-1.39.37c.27,2.79.53,5.59.8,8.38l-72.79-.39c-.24-2.77-.48-5.53-.83-9.64l-6.59,9.29-3.41-9.14c-3.18,1.87-6.26,3.78-9.45,5.48-.61.33-1.65-.16-2.49-.27l-4.42,1.14-6.91-2.57C355.51,234.89,355.55,233.93,355.58,233Z" style="fill:#e52a5b"/><path d="M113.48,676.9c-10-.48-20-1-30-1.41-2.6-.11-5.22,0-7.82,0L63.34,664c1.53.37,3.11.63,4.61,1.12,8.26,2.74,16.6,4.2,25.21,1.62a24.54,24.54,0,0,0,4.39-.36c23.15-6.06,40.88-19.56,53-40,8.27-13.92,12.58-28.89,8.07-45.27-.16-.58.46-1.38.72-2.07.3.4.56.83.89,1.19,15.87,16.71,16.34,35.55,7.67,55.64q-37.21,3.59-43,40.07a14.82,14.82,0,0,1-.56,1.91Z" style="fill:#208afb"/><path d="M159.36,579c-.26.69-.88,1.49-.72,2.07,4.51,16.38.2,31.35-8.07,45.27-12.14,20.47-29.87,34-53,40a24.54,24.54,0,0,1-4.39.36L96.4,662l4-4a38.6,38.6,0,0,0,5.27-1.29,77.64,77.64,0,0,0,36-28.62c7.57-10.91,12.23-22.88,11.46-36.24-.35-6.19-1-12.93-7-17.13l-4.86-5.89c-2.26-1.76-4.26-4.15-6.82-5.14-7.75-3-15.75-4.58-24.2-2.82-10.64,2.22-20.71,5.5-28.92,13l-3,.1-2.08-1c10.91-10.27,24.11-15.5,38.75-17.35,13.95-1.77,26.46,1.44,36.26,12C154.41,571.05,156.69,575.19,159.36,579Z" style="fill:#78c1fb"/><path d="M183,692.05c-2.79-2.87-6.26-5.33-8.23-8.68-7.05-12-10.09-24.73-5.42-38.46,1-2.91,2-5.82,2.94-8.73L220.2,644c-22.33,6.12-33.38,19.82-36.78,45.58C183.31,690.42,183.16,691.23,183,692.05Z" style="fill:#fd84a5"/><path d="M144.34,706.49q0,5.12,0,10.23c1.08,14.75-8.2,21.55-20.23,26-11.26,4.19-23,5.06-34.86,3.9-.5-1.87-1-3.74-1.49-5.59-1.48-5.3-3-10.59-4.49-15.88,9.25-.08,18.61.73,27.72-.45C124.23,723,136.64,718.76,144.34,706.49Z" style="fill:#fdd168"/><path d="M483.2,238.8c.73-.42,1.58-1.32,2.15-1.17a59,59,0,0,1,6,2.19l7,4.15a3,3,0,0,0,.17,1A36.63,36.63,0,0,1,489,291.65c-2.3,1.82-5.7,2.26-8.59,3.34.34-1.95.77-3.89,1-5.85,1.28-10.06-4.31-16.9-11-23.21l8-5.67C483,253.77,485.92,246.91,483.2,238.8Z" style="fill:#a8d1f9"/><path d="M464.58,63.63l-68.12,0q.1-4.91.19-9.79c5,0,10,.18,15,0,12.48-.35,24.35-3.21,34.82-10.2,2.86-1.91,4.72-5.31,7-8a14.62,14.62,0,0,1,1.48,0c9.15,1.1,9.6,1.58,9.6,10.53Q464.59,54.94,464.58,63.63Z" style="fill:#0659ba"/><path d="M453.51,35.69c-2.32,2.72-4.18,6.12-7,8-10.47,7-22.34,9.85-34.82,10.2-5,.14-10,0-15,0-.06-2.65-.18-5.3-.19-8,0-8.44,0-8.62,8.6-10A144.85,144.85,0,0,1,453.51,35.69Z" style="fill:#0470fa"/><path d="M737.38,627.94c.26,3.12.39,6.27.81,9.37,1.12,8.16-2.16,14.25-8.83,18.6a54.9,54.9,0,0,1-33,9.06q-3.58-8.38-7.18-16.78a96.34,96.34,0,0,0,9.92-.26C714.34,646,728.85,642.67,737.38,627.94Z" style="fill:#fca3bc"/><path d="M83.31,725.17c1.5,5.29,3,10.58,4.49,15.88.52,1.85,1,3.72,1.49,5.59-10.37-.73-20.25-3.19-29.23-8.58C53,733.82,48.43,728,48.33,719.24c0-4.45-.78-8.89-1.2-13.33,8.58,12.26,21.22,16.9,35.32,18.79C82.74,724.85,83,725,83.31,725.17Z" style="fill:#fdc035"/><path d="M96.4,662l-3.24,4.72c-8.61,2.58-17,1.12-25.21-1.62-1.5-.49-3.08-.75-4.61-1.12l.09,0a6.56,6.56,0,0,0-.59-.88,8.92,8.92,0,0,0-1.32.8c-4.64-7.71-13.3-12.72-15.17-22.27a59.74,59.74,0,0,1,9.13-46c4.8-7.21,11.07-13.44,16.8-20,1-1.16,2.65-1.78,4-2.65l2.08,1a24,24,0,0,1-2.61,3.27c-10.15,9.08-18,19.74-22.52,32.66-4.84,13.8-3.71,27.14,3.21,40l5.91,2.81c7.95,7.56,17.52,9.08,28,7.84C92.28,660.35,94.38,661.48,96.4,662Z" style="fill:#fdfefe"/><path d="M509.38,638.84,527.44,624l7.94,8.94c-.2,10.55-3.73,20.08-9.36,28.79-2.29,3.54-5.18,7.08-10.37,6.31-1.63-3.81-4.23-7.56-4.43-11.44-.08-1.62,4.83-3.71,7.68-5.2,1.83-.94,4-1.17,6.06-1.72l-.51-1.88L510.8,652c-2.77-5.21-2.38-5.58,12-11l-.35-1.32-13.08,3.47Z" style="fill:#bce2fc"/><path d="M421.52,670.89c8,1.57,16,2.85,24,.21,1.7-.56,3.31-1.37,5-2.06,1,4.42,2.16,8.83,3.09,13.27a30.85,30.85,0,0,1,.24,4.72c-6.77.81-13.52,1.82-20.31,2.36-9.3.75-18.64,1.13-28,1.67-.08-9.36,5.69-12,17.91-8.89l-8.25-4.23c1.53-2.34,1.53-2.34,13.16-1.22a39.63,39.63,0,0,1-5.3-2.86C422.25,673.27,422,671.9,421.52,670.89Z" style="fill:#82cefc"/><path d="M584.26,605.28c-5.9-8.37-6.73-17.73-5.38-27.53a22.74,22.74,0,0,0,2-3.85c4.09-13.63,14.82-19.06,27.44-20.72,15.91-2.09,30.71,2.52,44.47,10.52A23.06,23.06,0,0,1,656.4,567c-1.06.42-2.61,1.51-3.08,1.15a58.22,58.22,0,0,0-25.85-10.44c-12.64-2-25.15-1.63-35.1,8.4a7.44,7.44,0,0,0-1,2.12c-4.28-.49-4.94,2.17-4.78,5.52-4.28,11.08-2.15,21.5,3.87,31.56Z" style="fill:#fdfefe"/><path d="M689.21,648.2,696.39,665c-7.49-1-15.13-1.5-22.45-3.29a17.92,17.92,0,0,1-12.89-10.8l7.18-8c6.28,4.28,13.49,4.91,20.77,5.28Z" style="fill:#fe4971"/><path d="M737.38,627.94c-8.53,14.73-23,18.09-38.25,20a96.34,96.34,0,0,1-9.92.26l-.21,0a2.21,2.21,0,0,0,.2-1c1.26-.73,2.44-1.9,3.78-2.13,6.8-1.16,13.9-1.25,20.4-3.29,8.46-2.67,17.13-6.07,19.06-16.65l-1-3.44c0-5.74-4.51-7.79-8.62-9.58s-8.93-2.76-13.42-4.09l2-1h2c6.19,2.36,12.65,4.21,18.5,7.24C737.07,616.91,738.09,622.31,737.38,627.94Z" style="fill:#fef2f6"/><path d="M405.53,691.06c9.32-.54,18.66-.92,28-1.67,6.79-.54,13.54-1.55,20.31-2.36-.78,1.25-1.44,3.48-2.35,3.59q-21.42,2.64-42.9,4.73C405.82,695.61,403.9,694.35,405.53,691.06Z" style="fill:#50a4e9"/><path d="M515.65,668c5.19.77,8.08-2.77,10.37-6.31,5.63-8.71,9.16-18.24,9.36-28.79,3.78,2.84,3,6.54,2.11,10.4-2.25,9.62-5,19.05-12.32,26.19C521.09,673.45,517.76,672.76,515.65,668Z" style="fill:#82cefc"/><path d="M711.39,607l-2,1-5.94.16-19.23,1.9-.18-2.13,27.21-1.83C711.32,606.38,711.36,606.67,711.39,607Z" style="fill:#fca3bc"/><path d="M355.58,233c0,1-.07,1.92-.11,2.88-.17-1-.33-2-.5-3A4.21,4.21,0,0,1,355.58,233Z" style="fill:#fd779b"/><path d="M711.39,607c0-.3-.07-.59-.12-.88l2.09.87Z" style="fill:#fdd8e3"/><path d="M61.52,663.91a8.92,8.92,0,0,1,1.32-.8,6.56,6.56,0,0,1,.59.88Z" style="fill:#208afb"/><path d="M470.41,265.93c6.67,6.31,12.26,13.15,11,23.21-.25,2-.68,3.9-1,5.85-6.5,9.68-15.7,12.61-26.87,10.92-1.31-.19-2.77.71-4.16,1.1-1.72-3.48-4.87-3.17-8-3-6.22-1.69-7-7.32-8.87-12.19L432,289c1.09-2,5-2.93,2.35-6.32,1.79-3,3.77-5.88,5.3-9s.56-6.41-2.62-7.51c-4.51-1.57-7.37-4.72-10.4-8a12.34,12.34,0,0,0-4.59-2.9,9.35,9.35,0,0,0-11.24,4.08c-2.06,3.44-1.41,6.32,1.81,8.66-2.78,5.17-6.14,10.13-8.18,15.57-2.34,6.25-1.07,8.16,4.91,11.4-.71,2.6-1.42,5.19-2.12,7.79q-1.12,2.06-2.23,4.11c-6.29-.27-12.68.11-18.84-.93-20.22-3.43-22.46-23.06-10.89-35.31,1.59-1.67,3.39-3.15,5.09-4.72,3.58-3.82,3.39-8.26,2.13-12.87q3.57-5.75,7.12-11.5l72.79.39,5.16,10.72C467.32,257.34,465.61,262.35,470.41,265.93Z" style="fill:#e9f7f8"/><path d="M502.9,431.46c1.92,14.35,3.21,27.57-2.87,40.12-7.07,14.61-26.48,15.82-36,2.26-5.37-7.64-7.8-16.46-8.56-25.67-.13-1.54,1.06-4.35,2.18-4.66C472.45,439.35,487.35,435.54,502.9,431.46Z" style="fill:#a8d1f9"/><path d="M404.75,383.63c.1,0,.26,0,.29,0a1,1,0,0,1,.08.39l-.5-.05Z" style="fill:#a8d1f9"/><path d="M405,306.89q1.11-2.06,2.23-4.11c5.84,2.63,22.66-3.41,25.06-9a7.64,7.64,0,0,0,.26-1.94c1.84,4.87,2.65,10.5,8.87,12.19l-10.91,14-1.13,1,0,0c-7.87,2.6-15.5,3.55-22-3.27C406.6,312.74,405.78,309.81,405,306.89Z" style="fill:#fb9f9c"/><path d="M389.57,241.56q-3.56,5.74-7.12,11.5l-10.53,8.08c-5.43-7.15-7.25-15.08-5.13-23.86.85.11,1.89.6,2.5.27,3.19-1.7,6.27-3.61,9.45-5.48l3.41,9.14,6.59-9.29C389.09,236,389.33,238.79,389.57,241.56Z" style="fill:#fb9f9c"/><path d="M407.41,315.66c6.47,6.82,14.1,5.87,22,3.27-2.32,4-4.71,7.91-6.93,11.94-3.4,6.16-6.68,12.38-10.23,19Z" style="fill:#fdfefe"/><path d="M371.92,261.14l10.53-8.08c1.26,4.61,1.45,9.05-2.13,12.87Z" style="fill:#0659ba"/><path d="M429.34,319l1.13-1Z" style="fill:#fdfefe"/><path d="M371.69,171.91c-.17-.63-.33-1.26-.5-1.89V135.24a580.39,580.39,0,0,1,107.19-1c-1,2-1.51,4.52-3,6-6,6.08-11.87,12.44-18.6,17.63a80.45,80.45,0,0,1-50.13,16.88C395,174.76,383.34,172.93,371.69,171.91Z" style="fill:#fdfefe"/><path d="M371.69,171.91c11.65,1,23.3,2.85,34.95,2.87a80.45,80.45,0,0,0,50.13-16.88c6.73-5.19,12.59-11.55,18.6-17.63,1.5-1.52,2-4,3-6l2-.25c1,.19,1.95.42,2.94.57,8.94,1.33,8.94,1.33,8.94,10.65v35.24a651.62,651.62,0,0,0-120.55-.34Z" style="fill:#e2f1fd"/><path d="M429.34,212.92c-1.6,1.34-3.21,3.74-4.79,3.72-1.83,0-3.64-2.18-5.34-3.93-1.61-1.48-3.95-2.68-4.66-4.51-1.06-2.73.47-4.67,3.71-5,.62-.08.9-1.86,1.63-2.55,1.16-1.1,2.54-2.64,3.87-2.68s2.77,1.43,4,2.46c.77.66,1.18,2.44,1.79,2.45,3.41.09,4.71,2.07,3.9,4.85-.49,1.71-2.49,3-3.81,4.48C429.53,212.42,429.43,212.67,429.34,212.92Z" style="fill:#fef2f6"/><path d="M672.39,625.79c-4.26,6.93-11.21,9.74-18.58,11-18.33,3.12-34.37-2.52-48.38-14.3-4.72-4-9.06-8.41-13.57-12.64l.92-1.69a43,43,0,0,1,6.62.05c10,1.57,19.41-.43,28.57-4.14,1.35-.55,2.3-2.06,3.43-3.13l2.13.91Z" style="fill:#bce2fc"/><path d="M640.37,598a32.25,32.25,0,0,1,2.75-3.28c6.87-6.34,7.83-7.91,14-23.86a69.82,69.82,0,0,1,16.64,18.81c5.06,8.35,4.88,17.43,4.42,26.58-.07,1.28-1.37,2.49-2.1,3.73Z" style="fill:#bce2fc"/><path d="M633.53,601.84l-2.13-.91-44.83-27.21c-.16-3.35.5-6,4.78-5.52q15.39,9.57,30.77,19.15c5.46,3.42,10.87,6.93,16.29,10.39Z" style="fill:#78b8f8"/><path d="M633.53,601.84l4.88-4.1,2,.27,35.75,22-3.73,5.8Z" style="fill:#229afa"/><path d="M684.24,610.05l19.23-1.91a13.26,13.26,0,0,1-2.24,2.36A29.23,29.23,0,0,0,689.39,625l-.92.68-5.09.16-2-.86Z" style="fill:#fdc0d1"/><path d="M669.37,640.84c.81-1.34,1.61-2.69,2.41-4l6.56-7.84,9.09.28q.44,7.93.85,15.87Z" style="fill:#fdc0d1"/><path d="M687.43,629.26l-9.09-.29c.73-1,1.45-1.91,2.17-2.87l2.87-.31,5.09-.16-.3,3.16A1.77,1.77,0,0,0,687.43,629.26Z" style="fill:#fe4971"/><path d="M683.38,625.79l-2.87.31.83-1.17Z" style="fill:#fca3bc"/><path d="M83.31,725.17c-.28-.17-.57-.32-.86-.47C82.3,721,85,722,87,722c11.11.18,22.22.44,33-3.1,8.76-2.88,16.37-7.11,19.48-16.62,0-1.48,0-3,0-4.46C136.21,687,127.16,683.32,117.8,680c-1.79-.62-3.7-.91-5.7-1.39l1.38-1.74,10.92.89c1.41,1.24,2.73,2.6,4.25,3.7,3.84,2.78,8.15,5,11.56,8.25,4.78,4.5,6.17,10.33,4.13,16.76-7.7,12.26-20.11,16.51-33.31,18.22C101.92,725.9,92.56,725.09,83.31,725.17Z" style="fill:#fef2f6"/><path d="M52.31,696.81c1.15-7.79,7.26-11.28,13.29-14.22,12.25-6,25.48-6.43,38.8-5.41a18.29,18.29,0,0,1,3.69,1.23c-9.87,3.7-17.38,9.32-21.71,18.54-3.82,0-7.63,0-11.45,0C67.39,696.92,59.85,696.86,52.31,696.81Z" style="fill:#fcdf99"/><path d="M83.46,702.16c-.36,5.25-.58,10.52-1.2,15.74-.12,1.06-2,2.93-2.66,2.76-8.08-2.24-16.55-4-22.46-10.6-2.19-2.43-3.27-5.85-4.86-8.81Z" style="fill:#fcdf99"/><path d="M83.46,702.16l-31.18-.91,0-4.44c7.54.05,15.08.11,22.62.14,3.82,0,7.63,0,11.45,0l53,.86c0,1.48,0,3,0,4.45Z" style="fill:#fdc035"/><path d="M669.37,640.84l18.91,4.28c.31.68.61,1.37.92,2a2.21,2.21,0,0,1-.2,1c-7.28-.37-14.49-1-20.77-5.28Z" style="fill:#fd84a5"/><path d="M467.52,252.67,462.36,242c-.27-2.79-.53-5.59-.8-8.38l1.39-.37,5.64,8c1.47-3.62,2.5-6.18,3.71-9.15l10.9,6.8c2.72,8.11-.16,15-4.75,21.46Z" style="fill:#fb9f9c"/><path d="M146.18,574.74c6,4.2,6.64,10.94,7,17.13.77,13.36-3.89,25.33-11.46,36.24a77.64,77.64,0,0,1-36,28.62,38.6,38.6,0,0,1-5.27,1.29c1.15-2.7,2.35-5.38,3.46-8.1,5.15-12.6,5.56-25.64,3.5-38.9a7.1,7.1,0,0,0,0-.92Z" style="fill:#bce2fc"/><path d="M56.44,649.93c-6.92-12.86-8-26.2-3.21-40C57.76,597,65.6,586.35,75.75,577.27A24,24,0,0,0,78.36,574l3-.1c.41.65.67,1.59,1.26,1.89,6.29,3.21,11.51,7.47,15.14,13.71,2.35,4,5.32,7.73,8,11.57-.26.54-.53,1.07-.79,1.6Q81.41,624.3,57.9,646C57,646.85,56.91,648.6,56.44,649.93Z" style="fill:#e2f1fd"/><path d="M105.78,601.07c-2.68-3.84-5.65-7.53-8-11.57-3.63-6.24-8.85-10.5-15.14-13.71-.59-.3-.85-1.24-1.26-1.89,8.21-7.51,18.28-10.79,28.92-13,8.45-1.76,16.45-.2,24.2,2.82,2.56,1,4.56,3.38,6.82,5.14-6.31,5.82-12.59,11.69-18.95,17.46C116.89,591.28,111.32,596.16,105.78,601.07Z" style="fill:#bce2fc"/><path d="M107.38,611c2.06,13.26,1.65,26.3-3.5,38.9-1.11,2.72-2.31,5.4-3.46,8.1l-4,4c-2-.51-4.12-1.64-6.06-1.41-10.47,1.24-20-.28-28-7.84Z" style="fill:#e2f1fd"/><path d="M105.78,601.07c5.54-4.91,11.11-9.79,16.59-14.76,6.36-5.77,12.64-11.64,18.95-17.46l4.86,5.89L107.4,610.1c-.81-2.48-1.61-5-2.41-7.43C105.25,602.14,105.52,601.61,105.78,601.07Z" style="fill:#229afa"/><path d="M467.52,252.67l10.93,7.59-8,5.67C465.61,262.35,467.32,257.34,467.52,252.67Z" style="fill:#0659ba"/><path d="M105,602.67c.8,2.48,1.6,5,2.41,7.43a7.1,7.1,0,0,1,0,.92l-45,41.72-5.91-2.81c.47-1.33.54-3.08,1.46-3.92Q81.35,624.23,105,602.67Z" style="fill:#78b8f8"/><path d="M689.2,647.17c-.31-.68-.61-1.37-.92-2q-.42-7.93-.85-15.87a1.85,1.85,0,0,1,.74-.46l44.27-3.69c-1.93,10.58-10.6,14-19.06,16.65-6.5,2-13.6,2.13-20.4,3.29C691.64,645.27,690.46,646.44,689.2,647.17Z" style="fill:#fdd8e3"/><path d="M689.39,625a29.23,29.23,0,0,1,11.84-14.45,13.26,13.26,0,0,0,2.24-2.36l5.94-.15c4.5,1.33,9.17,2.24,13.43,4.09s8.6,3.84,8.62,9.58Z" style="fill:#fdd8e3"/><path d="M689.39,625l42.07-3.29,1,3.44-44.27,3.69.3-3.16Z" style="fill:#fca3bc"/><path d="M434.32,282.67C437,286.06,433.06,287,432,289c-1,0-2.36-.44-3,.05-5.77,4.71-12.41,6.34-19.69,5.95-6-3.24-7.25-5.15-4.91-11.4,2-5.44,5.4-10.4,8.17-15.57,3.82,1.07,7.62,2.21,11.46,3.2,3.54.92,5.17,3,4,6.57-1.54,4.48-.14,5.93,4.37,4.71A5.86,5.86,0,0,1,434.32,282.67Z" style="fill:#fb9f9c"/><path d="M434.32,282.67a5.86,5.86,0,0,0-2-.17c-4.51,1.22-5.91-.23-4.37-4.71,1.22-3.6-.41-5.65-4-6.57-3.84-1-7.64-2.13-11.46-3.2-3.21-2.34-3.86-5.22-1.8-8.66A9.35,9.35,0,0,1,422,255.28a12.34,12.34,0,0,1,4.59,2.9c3,3.27,5.89,6.42,10.4,8,3.18,1.1,4.2,4.31,2.62,7.51S436.11,279.68,434.32,282.67Z" style="fill:#0470fa"/><path d="M409.31,295c7.28.39,13.92-1.24,19.69-5.95.61-.49,2-.05,3-.05l.54,2.8a7.64,7.64,0,0,1-.26,1.94c-2.4,5.64-19.22,11.68-25.06,9C407.89,300.18,408.6,297.59,409.31,295Z" style="fill:#fd648c"/></g></g></svg>