<svg xmlns="http://www.w3.org/2000/svg" viewBox="0 0 895.11 643.27"><title>Asset 11</title><g id="Layer_2" data-name="Layer 2"><g id="Layer_1-2" data-name="Layer 1"><path d="M224.26,610.24c-6.41,3-12.62,6.48-19.25,8.82-17.73,6.26-35.5,12.54-53.55,17.78-9.93,2.88-20.42,4.09-30.74,5.27a158.42,158.42,0,0,1-25.85,1,161.94,161.94,0,0,1-51.74-10.83c-11-4.32-21.07-9.77-28.91-18.65C5.77,604.07.78,593.08.11,580c-.76-15,2.43-29,7-43.2a192.38,192.38,0,0,1,32.57-61.23c12.62-16,25.46-32.11,40.31-45.9,18.14-16.83,38.38-31.42,57.94-46.69,9-7,18.77-13,27.63-20.1,4.29-3.45,7.73-8.22,10.73-12.92,6.49-10.17,13.47-20.22,18.34-31.17a190.07,190.07,0,0,0,12.31-37.59c2.51-11.88,2.38-24.33,3.35-36.54,1.62-20.43,1.47-41.15,7.13-61,3.84-13.46,9.28-26.46,14-39.67,6.11-17.18,15.74-32.54,26.69-46.76,10.06-13.06,21.77-25,33.53-36.58a155.89,155.89,0,0,1,24.49-19.44c10.31-6.7,21.36-12.29,32.23-18.07,18.66-9.92,39-14.75,59.47-19A178.77,178.77,0,0,1,436.24.37c27.49-1.22,54.87.26,81.19,8.92,17.09,5.62,33.77,12.54,50.44,19.36,9.92,4.07,19.52,8.94,29.14,13.69,12.9,6.37,25.7,12.94,38.51,19.49,10.14,5.19,20.36,10.24,30.31,15.76,13.6,7.56,27.11,15.29,40.42,23.35,11.86,7.17,23.75,14.37,35,22.48,12.6,9.11,24.7,19,36.6,29,17.89,15.08,32.67,33.06,45.36,52.57,8.19,12.58,15,26.05,22.13,39.31a223.53,223.53,0,0,1,10.18,21.93c3.36,8.39,6.16,17,9.08,25.57,3.41,10,7.06,19.94,9.95,30.1,4.21,14.79,8.18,29.67,11.58,44.66,2.41,10.62,3.8,21.48,5.46,32.26,1.05,6.85,2,13.74,2.6,20.64,1.78,22.09,1.55,44.09-4.93,65.52-6.06,20-17,36.78-33.41,50.06-17.13,13.82-36.47,23.34-56.75,31.25a347.94,347.94,0,0,1-75.71,19.82,341.32,341.32,0,0,1-74.06,2.78c-20.7-1.49-41.24-5.6-61.73-9.19-9.76-1.71-19.26-4.86-28.86-7.46-.93-.26-1.67-1.21-2.5-1.84C566.42,568.94,575,564.62,581,556c8,8.3,18.19,10.17,29.07,10.07a54.35,54.35,0,0,0,30.2-8c5.26-3.21,9-7.74,8.1-14.72-.44-3.59-.16-7.27-.21-10.92l-.87-6.34c2.25-.46,4.55-.76,6.75-1.39,17.23-5,30.31-15.75,41.17-29.61,3.19,5.57,7.71,10.79,9.28,16.79,2.3,8.8,6.66,13.37,15.72,13.33-.14.92-.29,1.83-.39,2.49l-8.47-1.78-.15.67,5.79,3.76c-.19.4-.38.8-.58,1.19-1.78-.58-3.55-1.59-5.35-1.63a8.37,8.37,0,0,0-5.32,1.54c-1.27,1.1-1.59,3.3-2.33,5-.76,3.07.93,3.33,3.34,3.11,6.47-.6,13-.76,19.39-1.71,4.06-.6,8-2.3,11.93-3.5q-1-6.6-2.08-13.2c2.39-1.41,3.43-3.2,2.7-6.18-.81-3.37-.85-6.91-1.57-10.31-2.91-13.7-4.68-27.9-15.85-38.41l3.64-7.5c3.68,6,7.49,12.29,11.3,18.53,2.5,1.89,4.76,4.3,7.54,5.57,10.45,4.78,17.4,13.12,23.71,22.22,4.58,6.63,7.61,7.74,15.57,5.73,1.29-.33,2.59-.6,3.89-.89l3.76,1.44-11.26,5.4.48,1.08,10.57-1.73c0,.45.11.9.16,1.35-12.29,3.89-12.77,5.84-6.41,12.82,1.22,4.49,4.35,3.73,6,1.13a102.4,102.4,0,0,0,8.52-17.09c.89-2.27-.27-5.34-.49-8l-3.22-4c.12-1.62.7-3.38.28-4.85-3.71-12.87-8.27-25.68-18.53-34.65-6.15-5.39-9.73-10.41-7.67-18.52l-.15-5.79c8.57-3.34,16.56-7.67,23-14.4a8.88,8.88,0,0,0,2.24-5c1.13-12.74-3.1-24.61-6.92-36.35-4-12.35-9.91-24.09-14-36.42-5.73-17.37-10.39-35.09-15.79-52.57-5.06-16.36-13.73-29.37-32.28-32.42l-5.26-1.16-3-2.5c6-4.24,6.5-6.42,4.64-13.43-1.52-5.73-4.52-9.71-10.27-11.44-2.54-8.54-4-17.59-7.8-25.54-11.92-25-32.45-41.34-57.82-50.61-21.3-7.78-43.57-12.88-65.42-19.17l-27.88-3.57c-.07-6,.38-12-.38-17.93-.69-5.29-1.67-11-4.33-15.48-7.21-12.09-20.47-14.8-32.57-19.08-5.89-5.58-12.89-7.17-20.76-6-5.27.8-10.57,1.33-15.85,2-32,3.87-64.1,7.61-96.12,11.66-13.67,1.73-19.79,9.21-19.83,22.85,0,12.15-.21,24.29-.32,36.44-12.93,1-25.86,2-38.8,2.82a66.65,66.65,0,0,0-37.69,14.21c-24.57,19.18-36.4,45.08-37.35,75.7-.83,26.94-.2,53.93-.21,80.9-11.56,1-23.13,2-34.68,3.14-3.86.38-5.8,2.48-5.35,6.74.39,3.78.19,7.63.25,11.45q-.07,5-.14,10c-4.23.68-8.45,1.37-12.68,2-17.84,2.77-31.19,15.74-31.4,31.58-.33,24.45,0,48.91,0,73.36q-.13,33.54-.26,67.07l-10.67-1.09-3.35-.46c1.4-5.42,3.31-10.76,4.07-16.26,1.52-10.93-4.09-19.33-10.81-27.15-8.16-14.85-20.73-20.26-37.08-17-9.65,1.95-18.73,5.37-25.72,12.81-1.37.85-3.06,1.42-4.05,2.59-4.69,5.53-9.85,10.82-13.59,17-6.5,10.71-9.34,22.63-4.07,34.55,2.49,5.64,7.67,10.08,11.63,15.07l9.19,8.46c-3.59,1.56-7.24,3-10.75,4.71-9.26,4.5-12.93,11.07-10.6,18.68.29,3.14.83,6.28.82,9.42,0,7.87,4.31,13,11,15.73,5.74,2.39,12,3.48,18,5.14,9.12,1.78,18,.67,26.81-2,10.07-3.06,17.58-8.43,17.41-20.32l42.07,12.05c4.07,1.2,8.09,2.61,12.22,3.55C199,605.62,211,611.05,224.26,610.24Z" style="fill:#e9f7f8"/><path d="M518.5,561.07c-8-1.08-16-2.26-24-3.22-10.83-1.29-21.66-2.75-32.53-3.51s-21.94-1.53-32.84-.92c-17,.94-34,2.69-50.84,4.77a244.66,244.66,0,0,0-33.62,6.18c-17.53,4.73-35,9.81-52,16.15-16.49,6.15-32.32,14.09-48.46,21.21a12.48,12.48,0,0,1-2.91.52c8.17-8,12.18-17.57,11-29.1q-1.5-9.46-3-18.94c9.43-.66,19-.62,28.26-2.16,12.86-2.13,25.62-5.09,38.23-8.4,6.51-1.7,10.34-6.35,9.26-13.83a33,33,0,0,1,.16-6c20.59,1.53,41.17,3,61.75,4.61q54.75,4.26,109.5,8.61c4.09,5.07,8,10.32,12.34,15.16C511.66,555.49,515.23,558.15,518.5,561.07Z" style="fill:#e9f7f8"/><path d="M252.26,573.15c1.17,11.53-2.84,21.1-11,29.1h0l-1,1-16,7c-13.25.81-25.27-4.62-37.8-7.46-4.13-.94-8.15-2.35-12.22-3.55-9.59-7-13.31-16.56-12.6-28.13,7.3,4.43,14.26,9.66,22,13.14,16.1,7.21,33,9,49.57,1.9C240.15,583.16,246,577.56,252.26,573.15Z" style="fill:#fdbfd1"/><path d="M518.5,561.07c-3.27-2.92-6.84-5.58-9.76-8.82-4.35-4.84-8.25-10.09-12.34-15.16-1-3.65-2.2-7.26-3.11-10.94-2.76-11,2.65-20,7.42-29.06-1.16,8.86-.35,17.38,4.48,25.17a30.09,30.09,0,0,0,1.51,3.65c12.72,21.85,49.54,41.33,76.75,25q-1.22,2.53-2.42,5c-6.06,8.63-14.61,13-24.82,14.42a64.12,64.12,0,0,1-32.92-7.19l-1-.73-1-.25-1-.78Z" style="fill:#82cefc"/><path d="M522.26,562.49l1,.73Z" style="fill:#e9f7f8"/><path d="M520.25,561.46l1,.78Z" style="fill:#e9f7f8"/><path d="M240.21,603.24l1-1Z" style="fill:#e9f7f8"/><path d="M552.41,133.83l27.88,3.57a24.86,24.86,0,0,0,3.67,2.72c15.61,7.64,28.33,18.31,36.25,34.11-.75.56-1.76,1-2.21,1.69-5.08,8.31-9.46,17.12-15.21,24.92-13.31,18.08-27.26,35.68-41,53.47-11.4-12.51-21.22-26.45-33-38.61-.56.48-1.12,1-1.67,1.45l33.06,40.11c-2.85,2.66-5.75,5.27-8.55,8q-12.33,12-24.6,24c-6.87-12.82-14.61-24.91-26.27-34.09-24-18.84-50.17-24-79-13.23-14.94,5.56-26.8,15.28-36.46,27.74-18.22,23.49-23.83,50.38-20.53,79.4,1.72,15.05,7.15,28.95,14.66,42-14.62,6.63-29.2,13.34-43.88,19.84-3.29,1.46-6.9,2.21-10.36,3.29-.08-8-.13-16-.24-23.94-.2-15.69-9.11-28-23.68-32.75l-20.86-4.26c0-5.31.06-10.62.07-15.93,0-12,0-12-12-13.61l-20.31-1.86c0-27-.62-54,.21-80.9,1-30.62,12.78-56.52,37.35-75.7a66.65,66.65,0,0,1,37.69-14.21c12.94-.79,25.87-1.87,38.8-2.82l12-.92,32.41-2.16c2.12-.31,4.23-.73,6.36-.89q17.61-1.38,35.21-2.66,30-2.2,60-4.38l12.08-1.13,2,.2c3.39,1,6.84,2.53,9.85-.86Z" style="fill:#fe648c"/><path d="M301.26,357.55c14.57,4.77,23.48,17.06,23.68,32.75.11,8,.16,16,.24,23.94-.1,2-.27,4-.28,5.95q0,39.39,0,78.77c0,8.3.17,16.61.25,24.91a33,33,0,0,0-.16,6c1.08,7.48-2.75,12.13-9.26,13.83-12.61,3.31-25.37,6.27-38.23,8.4-9.29,1.54-18.83,1.5-28.26,2.16-1.12-1.19-2.34-2.29-3.34-3.57-4.76-6.06-10.66-10.7-18.26-12.14-13-2.45-26.13-4.32-39.2-6.43l-24.51-4.78q.13-33.54.26-67.07l17.15,6c.22.64.45,1.28.68,1.93-.17,2.9-.33,5.81-.51,9.06a655.74,655.74,0,0,1,127.71.18V430l-12.93-1.88a66.32,66.32,0,0,0,11.07-34A88.07,88.07,0,0,0,301.26,357.55Zm-58.14,142.6-.67-.41c-1.59-1.39-3-3.61-4.8-4-4.56-1-4.56,2.92-5.64,5.58-2,1.23-4.72,3.15-4.5,4.63.31,2.1,2.78,3.87,3.9,5.26,2.47,2.1,4,4.38,5.92,4.83,4.14.94,4.71-2.44,5.59-5.25,2.07-1.42,4.58-3.38,4.47-5.2S244.65,502,243.12,500.15Z" style="fill:#35b9b5"/><path d="M181.34,466.21l-17.15-6c0-24.45-.32-48.91,0-73.36.21-15.84,13.56-28.81,31.4-31.58,4.23-.66,8.45-1.35,12.68-2l72.12,0,20.86,4.26a88.07,88.07,0,0,1,6.1,36.51,66.32,66.32,0,0,1-11.07,34l-1.08.34c-37.36-2.92-74.69-3-112,1l-1.31.89c-.14,1.81-.38,3.62-.39,5.43C181.43,445.92,181.39,456.07,181.34,466.21Z" style="fill:#5bc7c4"/><path d="M725.19,261.25c18.55,3.05,27.22,16.06,32.28,32.42,5.4,17.48,10.06,35.2,15.79,52.57,4.07,12.33,10,24.07,14,36.42,3.82,11.74,8,23.61,6.92,36.35a8.88,8.88,0,0,1-2.24,5c-6.4,6.73-14.39,11.06-22.95,14.4l-10.55,3c-13.25-4.64-15.28-7.51-15.18-21.4,0-2-.09-4,.06-6,.34-4.27-1.74-7-4.82-9.78a28.41,28.41,0,0,1-7.1-9.14c-2.67-6,.75-11.27,3.82-16.2,3.41-5.47,7.48-10.55,10.67-16.14,5.87-10.3,10-21.18,9.29-34-1.5,3.62-2.5,6.76-4,9.62-7.87,14.61-20.1,24.08-35.68,29.27-6.73,2.25-13.63,4-20.46,5.95-.65-1.1-1.31-2.19-2-3.29,1.45-5.31-.17-9.75-4.9-13.44l-4-2.46c1.64-.73,3.26-1.51,4.92-2.19,6.76-2.75,12.85-6.44,16.56-13a55.73,55.73,0,0,0,7.63-25.89c-7.52,8.44-16.26,12.64-26.7,13.21a7.65,7.65,0,0,1-.28-1.89c1.17-12,7.57-20.54,17.61-26.73a60.44,60.44,0,0,0,5.27-4.09c-2-1.82-4-3.66-6-5.43a18.94,18.94,0,0,0-2.76-1.43c4.3-3.18,7.69-6.35,11.64-8.48C719.11,274.63,726.33,271.25,725.19,261.25Z" style="fill:#fdfefe"/><path d="M620.21,174.23c-7.92-15.8-20.64-26.47-36.25-34.11a24.86,24.86,0,0,1-3.67-2.72c21.85,6.29,44.12,11.39,65.42,19.17,25.37,9.27,45.9,25.61,57.82,50.61,3.79,7.95,5.26,17,7.8,25.54-9-3.28-13.81-1.34-16,6.43-1.89,4.09-4.63,8-5.46,12.31-1.08,5.61,1.73,7.7,7.29,6.77,0,.31,0,.62,0,.93l-6,3.84c-11.57,3.33-19.73,11.65-28.59,19.1-8.56,7.21-17.76,13.65-26.68,20.42l-2.65-2.35c0-25.64-.06-51.28,0-76.92a105.27,105.27,0,0,0-7-37.89C624.81,181.44,622.27,177.93,620.21,174.23Z" style="fill:#e5285a"/><path d="M695.24,495.05c-10.86,13.86-23.94,24.63-41.17,29.61-2.2.63-4.5.93-6.75,1.39-5.39-10-14.72-12-24.86-12.35l-13.19-.58c16.42-20,24-43.15,24-68.89,0-18,0-35.91,0-53.86a28.42,28.42,0,0,1,1-5.16l26.85,31.65h0c-.51,17.6.57,19.25,16.9,25.83a2.13,2.13,0,0,1,.4.29l-.69,3.41c-3,14.42-1.56,27.56,10,38.32C690.74,487.56,692.74,491.57,695.24,495.05Z" style="fill:#e5285a"/><path d="M695.24,495.05c-2.5-3.48-4.5-7.49-7.57-10.35-11.55-10.76-13-23.9-10-38.32l.69-3.4,20.88,3.19c-2.11,3.54-3.08,7,.73,10.12,2.93.21,6.41,1.53,8.7.41,6.13-3,11.74-7,17.56-10.66l32.18-4.65,10.55-3c0,1.93.09,3.86.14,5.79-2.32,0-4.65.08-7,0-18.48-.46-28.47,16.53-25.16,29.9.23.93-.47,2.08-.74,3.12-3.81-6.24-7.62-12.48-11.3-18.53l-3.64,7.5c11.17,10.51,12.94,24.71,15.85,38.41.72,3.4.76,6.94,1.57,10.31.73,3-.31,4.77-2.7,6.18l-15.78,4c-9.06,0-13.42-4.53-15.72-13.33C703,505.84,698.43,500.62,695.24,495.05Z" style="fill:#51a4e9"/><path d="M635.9,302.53c8.92-6.78,18.12-13.22,26.68-20.43,8.86-7.45,17-15.77,28.59-19.1.72,1.09,1.93,2.13,2.06,3.29.54,4.91.75,9.85,1.11,14.78.09,1.32.31,2.63.42,3.58l25.16-24.56,5.27,1.16c1.14,10-6.08,13.38-13.19,17.21-4,2.13-7.34,5.3-11.64,8.48a18.94,18.94,0,0,1,2.76,1.43c2,1.77,4,3.61,6,5.43a60.44,60.44,0,0,1-5.27,4.09c-10,6.19-16.44,14.73-17.61,26.73a7.65,7.65,0,0,0,.28,1.89c10.44-.57,19.18-4.77,26.7-13.21a55.73,55.73,0,0,1-7.63,25.89c-3.71,6.54-9.8,10.23-16.56,13-1.66.68-3.28,1.46-4.92,2.19l-2.89,2.88a11.49,11.49,0,0,1-2.28-1.68c-8.69-10.39-17.41-20.76-26-31.26C647.18,317.14,641.59,309.79,635.9,302.53Zm44.19-29.65a15.83,15.83,0,0,0-2.4,1.49c-9.94,10.74-13.9,23.52-12.35,37.93,1.11,10.36,9.55,16.61,18.67,14.05,1.13-12.73-1.25-25.11-5.11-37.57l8-1.13C684.5,282.48,682.37,277.84,680.09,272.88Z" style="fill:#cee5fc"/><path d="M520.32,136.12l-12.08,1.13c.1-11.26.23-22.51.25-33.77,0-.83-.78-1.66-1.2-2.48-.19-2.28.27-4.9-.71-6.76-3.49-6.64-10-6.5-16.15-5.88-14.13,1.44-28.24,3.21-42.34,5-20.82,2.58-41.62,5.27-62.44,7.89-6.92.87-11.39,5.75-11.4,12.67,0,11.15,0,22.3,0,33.46l-12,.92c.11-12.15.28-24.29.32-36.44,0-13.64,6.16-21.12,19.83-22.85,32-4,64.08-7.79,96.12-11.66,5.28-.63,10.58-1.16,15.85-2,7.87-1.18,14.87.41,20.76,6,4.18,5.6,5.24,11.94,5.11,18.82C520,112.15,520.27,124.14,520.32,136.12Z" style="fill:#fe4971"/><path d="M736.24,477.25c.27-1,1-2.19.74-3.12-3.31-13.37,6.68-30.36,25.16-29.9,2.32,0,4.65,0,7,0-2.06,8.11,1.52,13.13,7.67,18.52,10.26,9,14.82,21.78,18.53,34.65.42,1.47-.16,3.23-.28,4.85L787,509.88c-1.3.29-2.6.56-3.89.89-8,2-11,.9-15.57-5.73-6.31-9.1-13.26-17.44-23.71-22.22C741,481.55,738.74,479.14,736.24,477.25Z" style="fill:#79b8f7"/><path d="M161.64,571.1c-.71,11.57,3,21.17,12.6,28.13l-42.07-12.05-.09-8c.82-9.08-1.87-13.41-11.16-18.39a25.24,25.24,0,0,1-3.94-3.27c.85-15.59,13-30.85,32.93-31.73l3.35.46a16.89,16.89,0,0,1-1.13,3.8c-5.3,9.27-3,18.48.86,27.26,1.69,3.79,5.4,6.69,8.2,10Z" style="fill:#fe648c"/><path d="M520.32,136.12c-.05-12-.31-24-.08-36,.13-6.88-.93-13.22-5.11-18.82,12.1,4.28,25.36,7,32.57,19.08,2.66,4.46,3.64,10.19,4.33,15.48.76,5.9.31,11.95.38,17.93l-20.25,1.63-9.85.86Z" style="fill:#fdbfd1"/><path d="M58.13,579.21c-2.33-7.61,1.34-14.18,10.6-18.68,3.51-1.71,7.16-3.15,10.75-4.71,2.11,0,4.22-.09,6.33,0,7.83.41,15.65.89,23.48,1.34a14,14,0,0,0,2.74,2.13c6.77,2.93,14.11,5.13,16.28,13.58l-40-.68c2.56-7.5,8.66-11.11,16.86-14.36-12.18-1.71-22.85-1.43-32.68,3.21-4.45,2.1-9.9,4.62-10.23,11.13,0,1.06,0,2.12,0,3.18,1.7,8,14.51,16,22.56,14.08l1.59-13.75,41.86.41c-2.43,8-9,11.3-16.15,12.83-7.32,1.58-15,1.51-22.46,2.37-1.49.17-2.88,1.25-4.31,1.91C74.48,591.91,64.89,588.31,58.13,579.21Z" style="fill:#fceecb"/><path d="M280.4,353.29l-72.12,0q.06-5,.14-10c16,.66,31.9.1,46.59-7.19,5.5-2.73,11.35-5.63,13.5-12.29,12,1.63,12,1.63,12,13.61C280.46,342.67,280.42,348,280.4,353.29Z" style="fill:#0259bb"/><path d="M268.51,323.75c-2.15,6.66-8,9.56-13.5,12.29-14.69,7.29-30.58,7.85-46.59,7.19-.06-3.83.14-7.68-.25-11.46-.45-4.26,1.49-6.36,5.35-6.74,11.55-1.14,23.12-2.1,34.68-3.14Z" style="fill:#0e73f9"/><path d="M109.29,557.18c-7.83-.45-15.65-.93-23.48-1.34-2.11-.11-4.22,0-6.33,0l-9.19-8.46c1.9.42,3.8.8,5.69,1.27,6,1.48,11.9,2.82,17.87,0,1.59-.13,3.36.13,4.76-.46,5.78-2.45,11.76-4.64,17.1-7.87,17.33-10.48,34.1-36.49,26.86-56.82-.1-.29.39-.8.6-1.2,6.72,7.82,12.33,16.22,10.81,27.15-.76,5.5-2.67,10.84-4.07,16.26-20,.88-32.08,16.14-32.93,31.73Z" style="fill:#208afb"/><path d="M143.17,482.33c-.21.4-.7.91-.6,1.2,7.24,20.33-9.53,46.34-26.86,56.82-5.34,3.23-11.32,5.42-17.1,7.87-1.4.59-3.17.33-4.76.46l2.5-4.32,2.89-2.12c10.63-2,18.57-8.43,25.59-16.11,9-9.9,15-21.22,13.28-35.08-.52-4.08-3.21-7.89-4.9-11.83l-4-4c-2.06-1.64-3.87-4-6.21-4.79-14.42-4.85-27.18-.88-38.85,8l-2,.23-1.76-.51c7-7.44,16.07-10.86,25.72-12.81C122.44,462.07,135,467.48,143.17,482.33Z" style="fill:#79b8f7"/><path d="M161.19,567.26c-2.8-3.31-6.51-6.21-8.2-10-3.89-8.78-6.16-18-.86-27.26a16.89,16.89,0,0,0,1.13-3.8l10.67,1.09,24.51,4.78c-7.25,1.13-12.82,4.8-17.39,10.54C165.23,549.89,163.05,558.47,161.19,567.26Z" style="fill:#fb83a5"/><path d="M132.08,579.12l.09,8.06c.17,11.89-7.34,17.26-17.41,20.32-8.77,2.67-17.69,3.78-26.81,2l1.45-.36c-1.08-5.29-2.09-10.16-3.09-15,4.63,0,9.31.45,13.89,0C112.54,592.89,124.6,590.81,132.08,579.12Z" style="fill:#fdd068"/><path d="M648.19,532.4c0,3.64-.23,7.32.21,10.91.86,7-2.84,11.51-8.1,14.72a54.35,54.35,0,0,1-30.2,8c-.46-1.34-.94-2.67-1.39-4q-1.79-5.35-3.55-10.72c4.13-.37,8.3-.49,12.37-1.17C629.93,548.06,641.46,544.33,648.19,532.4Z" style="fill:#fda2bb"/><path d="M86.31,594.1c1,4.88,2,9.75,3.09,15L88,609.5c-6-1.66-12.3-2.75-18-5.14-6.65-2.76-11-7.86-11-15.73,0-3.14-.53-6.28-.82-9.42,6.76,9.1,16.35,12.7,27.13,14Z" style="fill:#fcc036"/><path d="M80.37,478.18l1.76.51c-.2.43-.29,1-.62,1.29-12.14,10-20.36,22.37-21,38.49-.2,5.2,0,11.06,5,14.87-1,4.07.67,5.55,4.65,4.76,2.54,4.46,6.85,5.8,11.5,6.08,4.86.29,9.75.14,14.63.18l-2.5,4.32c-6,2.77-11.92,1.43-17.87,0-1.89-.47-3.79-.85-5.69-1.27-4-5-9.14-9.43-11.63-15.07-5.27-11.92-2.43-23.84,4.07-34.55,3.74-6.15,8.9-11.44,13.59-17C77.31,479.6,79,479,80.37,478.18Z" style="fill:#f8f9fb"/><path d="M695.33,239.15c2.19-7.77,7-9.71,16-6.43,5.75,1.73,8.75,5.71,10.27,11.44,1.86,7,1.35,9.19-4.64,13.42l-11,3,1-3.35c.41-1.68.81-3.36,1.22-5,.57-4.53,1.13-9.06,1.7-13.67l-11.28,1Z" style="fill:#0e73f9"/><path d="M605.16,551.33q1.77,5.35,3.55,10.72c.45,1.34.93,2.67,1.39,4-10.88.1-21.09-1.77-29.07-10.07q1.2-2.52,2.42-5l4.62-4,16.22,3.26Z" style="fill:#fe4971"/><path d="M706.92,257.22l-1,3.35,11-3,3,2.51-25.17,24.56c-.11-.95-.33-2.26-.42-3.58-.36-4.93-.57-9.87-1.11-14.78-.13-1.16-1.34-2.2-2.06-3.29l6-3.84Z" style="fill:#f9a09d"/><path d="M720.24,525.17l15.78-4q1,6.6,2.08,13.2c-6.36.51-12.73,1.1-19.1,1.5-5.18.32-10.37.41-15.56.6.74-1.71,1.06-3.91,2.33-5a8.37,8.37,0,0,1,5.32-1.54c1.8,0,3.57,1,5.35,1.63.2-.39.39-.79.58-1.19l-5.79-3.76.15-.67,8.47,1.78C720,527,720.1,526.09,720.24,525.17Z" style="fill:#82cefc"/><path d="M605.16,551.33l-.87-1.14.09-1.91c8.25-1.38,16.76-1.9,24.65-4.39,6.39-2,12.93-5.47,14.24-13.58l-.93-3.42c-.74-1.71-1-4-2.3-5a25.92,25.92,0,0,0-17.84-6.62l.26-1.53c10.14.39,19.47,2.39,24.86,12.35l.87,6.34c-6.73,11.94-18.26,15.67-30.66,17.77C613.46,550.84,609.29,551,605.16,551.33Z" style="fill:#fef2f6"/><path d="M787,509.88l8.08-7.66,3.22,4c-1.34,4.52-2.22,9.26-4.13,13.52-2,4.47-3.78,9.66-9.87,10.49-6.36-7-5.88-8.93,6.41-12.82,0-.45-.11-.9-.16-1.35l-10.57,1.73-.48-1.08,11.26-5.4Z" style="fill:#bde2fc"/><path d="M703.44,536.42c5.19-.19,10.38-.28,15.56-.6,6.37-.4,12.74-1,19.1-1.5-4,1.2-7.87,2.9-11.93,3.5-6.41.95-12.92,1.11-19.39,1.71C704.37,539.75,702.68,539.49,703.44,536.42Z" style="fill:#51a4e9"/><path d="M784.25,530.24c6.09-.83,7.86-6,9.87-10.49,1.91-4.26,2.79-9,4.13-13.52.22,2.71,1.38,5.78.49,8a102.4,102.4,0,0,1-8.52,17.09C788.6,534,785.47,534.73,784.25,530.24Z" style="fill:#82cefc"/><path d="M634.26,385.21a28.42,28.42,0,0,0-1,5.16c-.07,17.95,0,35.9,0,53.86,0,25.74-7.55,48.86-24,68.89l-15.88,4c-4.35-11.35-11-21-21.25-27.8-12.29-9.82-26.33-14.71-42-13.63-14,1-24.55,7.53-29.43,21.44-4.77,9.11-10.18,18.07-7.42,29.07.91,3.68,2.06,7.29,3.11,10.94q-54.75-4.3-109.5-8.61c-20.58-1.59-41.16-3.08-61.75-4.61-.08-8.3-.24-16.61-.25-24.91q0-39.37,0-78.77c0-2,.18-4,.28-5.95,3.46-1.08,7.07-1.83,10.36-3.29,14.68-6.5,29.26-13.21,43.88-19.84l.81.15c16.29,25.74,39.51,40.38,70.08,40.64,26.84.24,48.26-12.36,64.57-33.25,17-21.71,23.16-46.88,21.1-74-.87-11.53-3.17-23-8.86-33.39,0-.66,0-1.33-.07-2q12.3-12,24.6-24c2.8-2.72,5.7-5.33,8.55-8l3.07,3a36.71,36.71,0,0,0,3.33,4.25c2.94,2.82,3.65,5.45-.06,7.95,1.13,1.56,2.19,3,3.24,4.44L565,284.64q4.07,5.3,8.11,10.6c-2,3.14-6.74,5-4.9,10q5.07,6.39,10.12,12.8c-1.21,1.59-2.43,3.17-3.87,5,1.77,7.17,8.25,6.28,13.81,7.09Z" style="fill:#fe4971"/><path d="M161.19,567.26c1.86-8.79,4-17.37,9.86-24.65,4.57-5.74,10.14-9.41,17.39-10.54,13.07,2.11,26.19,4,39.2,6.43,7.6,1.44,13.5,6.08,18.26,12.14,1,1.28,2.22,2.38,3.34,3.57q1.51,9.46,3,18.94c-6.31,4.41-12.11,10-19,13-16.54,7.09-33.47,5.31-49.57-1.9-7.74-3.48-14.7-8.71-22-13.14Z" style="fill:#fef2f6"/><path d="M572.14,489.27c10.26,6.83,16.9,16.45,21.25,27.8q.9,7,1.78,14.09c-.23,1-.47,1.94-.71,2.9l-6.39,12.87-4.62,4c-27.21,16.29-64-3.19-76.75-25a30.09,30.09,0,0,1-1.51-3.65l5.78.42c-4.75-9.09-6.82-18.07-2.63-27.62,8.28,4.87,16.61,9.65,24.81,14.65,5.49,3.34,10.78,7,16.16,10.52a21,21,0,0,0-4.25,1.16,34.66,34.66,0,0,1-17.74,3.92c-4.83-.26-9.69-.06-14.55-.06,0,0-.13.46,0,.67a58.62,58.62,0,0,0,34.88,23.88c8.89,2.2,18.14,3.14,26.77-.77,3.73-1.7,6.58-5.34,9.84-8.1,1.06-1.91,2.13-3.81,3.19-5.71.91-1.88,2.37-3.69,2.62-5.65,1-7.8-.45-15.37-5-21.78-4.14-5.86-9.22-11.07-13.88-16.57Z" style="fill:#e1f0fc"/><path d="M508.34,495.05c-4.19,9.56-2.12,18.54,2.63,27.63l-5.78-.42c-4.83-7.79-5.64-16.31-4.48-25.17,4.88-13.92,15.4-20.49,29.43-21.45,15.67-1.08,29.71,3.81,42,13.63l-.9,2-1,0C558.65,482.42,545.6,478,531,479.34c-7.51.71-14.46,3.24-18.81,10.17C508.53,489.73,507.38,491.66,508.34,495.05Z" style="fill:#f8f9fb"/><path d="M527.05,289.25c0,.66,0,1.33.07,2l-14.89,11c-4.22-4.07-9.21-5.57-15.05-5.05-6.27.55-12.6.58-18.88,1.08-3.79.3-5.37-.74-5.17-4.91.34-7.15.19-14.33.06-21.5-.14-8.31-4.56-12.73-12.75-12.58-9,.17-17.92.75-26.89,1-9.51.21-15.16,5.68-15.26,15.2-.06,6.5-.26,13,.08,19.49.24,4.71-1.15,6.74-6.13,6.36-4.63-.35-9.32-.08-14,0-7.31.13-11.94,4.61-12,11.81q-.13,17.24,0,34.49c.05,6.16,4.61,10.51,10.66,10.69,6.92.2,13.84.56,21.44.88v10l-.12,1.06c-2.43,1.38-4.85,2.79-7.3,4.14q-15.35,8.46-30.71,16.88l-.81-.15c-7.51-13.09-12.94-27-14.66-42-3.3-29,2.31-55.91,20.53-79.4,9.66-12.46,21.52-22.18,36.46-27.74,28.86-10.75,55.06-5.61,79,13.23C512.44,264.34,520.18,276.43,527.05,289.25Z" style="fill:#fdbfd1"/><path d="M620.21,174.23c2.06,3.7,4.6,7.21,6.08,11.13a105.27,105.27,0,0,1,7,37.89c-.07,25.64,0,51.28,0,76.92L614.61,278.1c-7-8.33-7-8.33-17-3.87a66,66,0,0,1-5.35-6.39c-2.68-4.11-5.67-4.63-9.44-1.6a25.15,25.15,0,0,1-2.54,1.58L576.89,263c-3.93,4.9-6.22,2.89-8.43-.13-1-1.3-2.13-2.43-3.21-3.64l-3.42-4.91c13.7-17.79,27.65-35.39,41-53.47,5.75-7.8,10.13-16.61,15.21-24.92C618.45,175.18,619.46,174.79,620.21,174.23Z" style="fill:#fe4971"/><path d="M507.29,101c.42.82,1.2,1.65,1.2,2.48,0,11.26-.15,22.51-.25,33.77q-30,2.19-60,4.38-17.61,1.31-35.21,2.66c-2.13.16-4.24.58-6.36.89-.14-5-.4-10-.41-14.94,0-11.58,5.74-17.72,17.27-19.08C451.45,107.85,479.37,104.39,507.29,101Z" style="fill:#e9f7f8"/><path d="M507.29,101c-27.92,3.39-55.84,6.85-83.77,10.16-11.53,1.36-17.31,7.5-17.27,19.08,0,5,.27,10,.41,14.94l-32.41,2.16c0-11.16,0-22.31,0-33.46,0-6.92,4.48-11.8,11.4-12.67,20.82-2.62,41.62-5.31,62.44-7.89,14.1-1.75,28.21-3.52,42.34-5,6.16-.62,12.66-.76,16.15,5.88C507.56,96.1,507.1,98.72,507.29,101Z" style="fill:#e5285a"/><path d="M561.83,254.31l3.42,4.91-2,1-3.07-3-33.06-40.11c.55-.49,1.11-1,1.67-1.45C540.61,227.86,550.43,241.8,561.83,254.31Z" style="fill:#fef2f6"/><path d="M522.31,136.32l9.85-.86C529.15,138.85,525.7,137.28,522.31,136.32Z" style="fill:#fe4971"/><path d="M183.23,429.46c37.29-4,74.62-4,112-1-2.88,4.33-5.23,9.15-8.73,12.9a93,93,0,0,1-51.86,28.41c-9.29,1.73-19,1.66-28.53,1.38-8-.23-16.05-1.93-24.07-3-.23-.65-.46-1.29-.68-1.93,0-10.14.09-20.29.19-30.43,0-1.81.25-3.62.39-5.43Z" style="fill:#fdfefe"/><path d="M182,468.14c8,1,16,2.74,24.07,3,9.51.28,19.24.35,28.53-1.38a93,93,0,0,0,51.86-28.41c3.5-3.75,5.85-8.57,8.73-12.9l1.08-.34L309.22,430v47.42a655.74,655.74,0,0,0-127.71-.18C181.69,474,181.85,471,182,468.14Z" style="fill:#e1f0fc"/><path d="M243.12,500.15c1.53,1.8,4.16,3.54,4.27,5.42s-2.4,3.78-4.47,5.2c-.88,2.81-1.45,6.19-5.59,5.25-1.93-.45-3.45-2.73-5.92-4.83-1.12-1.39-3.59-3.16-3.9-5.26-.22-1.48,2.49-3.4,4.5-4.63,1.08-2.66,1.08-6.6,5.64-5.58,1.81.41,3.21,2.63,4.8,4Z" style="fill:#f8f9fb"/><path d="M183.23,429.46l-1.31.89Z" style="fill:#e1f0fc"/><path d="M580.31,267.82a25.15,25.15,0,0,0,2.54-1.58c3.77-3,6.76-2.51,9.44,1.6a66,66,0,0,0,5.35,6.39c10-4.46,10-4.46,17,3.87l18.64,22.07,2.65,2.35c5.69,7.27,11.28,14.62,17.1,21.78,8.56,10.5,17.28,20.87,26,31.26a11.49,11.49,0,0,0,2.28,1.68l1,3.12-9.4,10c5.39,6,10.33,2.62,15.25.89l4.87-1c.66,1.1,1.32,2.19,2,3.29,4.54,5.83,8.8,11.9,13.68,17.42,3.35,3.79,3.41,7.32,1,11.19-1.91,3-4.15,5.82-6.24,8.73-2.47,2.14-5,4.2-7.38,6.45-2.65,2.52-5.13,5.21-7.68,7.82-2.28.48-4.6.8-6.82,1.46-4.22,1.25-8.53,3.71-12.45-.32-2.86-2.95-5.33-6.28-8-9.45h0l-.93-15.52,13.1-9a23.56,23.56,0,0,0,3.51,3.74c.92.64,2.35.55,3.55.79-.05-1.33.28-2.84-.23-4-.65-1.42-2-2.54-3.69-4.58a105.76,105.76,0,0,0,8-7.16c.81-.87.52-2.76.73-4.18-1.41.34-3.26.23-4.15,1.1a100.16,100.16,0,0,0-6.72,8l-3.46-4.78c.8-3.12,1.28-5,1.77-6.89a32.77,32.77,0,0,1-5,.92c-1,0-2.07-.65-3.2-1.05.48-.9.64-1.18.78-1.48l2.13-4.86c-1.62.2-3.23.47-4.85.57a13.3,13.3,0,0,1-2.56-.33c.21-1,.43-2,.63-3,.28-1.41.55-2.84.82-4.25-1.32.16-2.64.37-4,.46-1,.07-2,0-3,0,.18-1.11,0-2.5.61-3.28,1.42-1.82,3.5-3.16,4.77-5.06,1-1.52,1.23-3.57,1.8-5.39a30.86,30.86,0,0,0-5,2c-1.25.75-2,2.29-3.25,3-1.49.92-3.91,2.41-4.77,1.85-2.45-1.57-1.26-3.5.58-5.23a3,3,0,0,0,.19-3c-.47-.59-2-.72-3-.48-1.14.29-2.14,1.17-3.81,2.15.61-2.09,1.42-3.62,1.39-5.14s-.93-3-1.45-4.48l-4.26-12.11,1.27-5.72-4.52,0c-2.4-3.75-4.63-7.62-7.22-11.24-7.38-10.31-14.89-20.51-22.36-30.75l-2.35-.32c-1.69,2.24-3.07,4.81-5.13,6.64-9,8-17.81,16.45-29.69,20.34-1.84-5,2.85-6.89,4.9-10,2.12,2.93,4.53,3.36,7.48,1.07,2.62-2,5.45-3.8,8-5.88,1.09-.87,2.49-2.18,2.58-3.37a27.27,27.27,0,0,0-4-16.91L565,284.64q2.38-3.88,4.74-7.75c4.11,3.28,6.17-.75,8.69-2.59C580.59,272.75,582.78,270.85,580.31,267.82Z" style="fill:#79b8f7"/><path d="M703.38,410.88c2.09-2.9,4.33-5.71,6.24-8.72,2.46-3.87,2.4-7.4-1-11.19-4.88-5.52-9.14-11.59-13.68-17.42,6.83-2,13.73-3.7,20.46-5.95,15.58-5.19,27.81-14.66,35.68-29.27,1.53-2.86,2.53-6,4-9.62.76,12.84-3.42,23.72-9.29,34-3.19,5.59-7.26,10.67-10.67,16.14-3.07,4.93-6.49,10.19-3.82,16.2a28.41,28.41,0,0,0,7.1,9.14c3.08,2.75,5.16,5.51,4.82,9.78-.15,2,0,4-.06,6-.1,13.89,1.93,16.76,15.18,21.4L726.24,446c2.46-3.86,5.27-7.54,7.18-11.65.71-1.54-.67-4.05-1.1-6.11-3.47-4.11-8.92-4-13.1.29Z" style="fill:#cee5fc"/><path d="M693,370.26l-4.86,1-1.89-13,1.85-1.43C692.85,360.51,694.47,365,693,370.26Z" style="fill:#fe648c"/><path d="M688.12,356.82l-1.85,1.43-4,2.11-1-3.12,2.89-2.88Z" style="fill:#82cefc"/><path d="M695.33,239.15l3.23.38c-.86,1.74-1.85,3.43-2.56,5.23-1.36,3.42-1.84,6.7,2.52,8.49-.45,1.66-.91,3.32-1.36,5-5.56.93-8.37-1.16-7.29-6.77C690.7,247.17,693.44,243.24,695.33,239.15Z" style="fill:#0259bb"/><path d="M697.16,258.23c.45-1.66.91-3.32,1.36-5l9.62-1.07c-.41,1.68-.81,3.36-1.22,5l-9.73,1.94Z" style="fill:#fe648c"/><path d="M660.19,401.33l.93,15.52Q647.68,401,634.26,385.21l-46-55q-5-6.06-9.94-12.13-5.05-6.4-10.12-12.8c11.88-3.89,20.68-12.3,29.69-20.34,2.06-1.83,3.44-4.4,5.13-6.64l2.35.32c7.47,10.24,15,20.44,22.36,30.75,2.59,3.62,4.82,7.49,7.21,11.24-2.23,2.78-4.45,5.57-7,8.69l-2.81-3.52a9.58,9.58,0,0,0,.71-1.13c.57-1.51,1.12-3,1.68-4.55a30.12,30.12,0,0,1-4.3.49,13.42,13.42,0,0,1-2.88-.54c.72-2.89,1.22-4.86,1.71-6.84l-7.34,1.3c.43-1.62.85-3,1.16-4.43.25-1.15.37-2.32.55-3.48a14.8,14.8,0,0,0-3.52,0c-.84.2-1.52,1-2.12,1.46-2.85-1.78-2.77-3.27-.38-5.07a22.59,22.59,0,0,0,4.56-4.6c.63-.84.41-2.3.58-3.49-1.3.12-3.1-.25-3.81.46a69.47,69.47,0,0,0-5.54,6.95l-1-2-5.88-1.72c.35,2,.7,4.08,1.18,6.93-2.42,1.75-5.72,4-8.78,6.46-.93.75-1.21,2.31-1.78,3.5,1.45.09,3.26.78,4.3.16,3.55-2.09,6.84-4.64,10.22-7l1.42.48c-.35,1.42-.69,2.83-1,4.25-.32,1.26-.65,2.52-1,3.78a24.66,24.66,0,0,0,4-.24c.73-.15,1.34-.88,2.24-1.53.83,1.07,1.58,2.05,1.59,2.05l-2.14,6.41,7-.73.8,1-2.42,6.42,7.12-.66,1.87,2.47c-3.53,2.51-6.88,4.65-9.93,7.17-1.14.94-1.55,2.75-2.3,4.16,1.64-.13,3.55.22,4.86-.5,2.9-1.6,5.46-3.8,8.23-5.65a15,15,0,0,1,2.88-1.16,3.32,3.32,0,0,1-.3,2.55c-.62,1.48-1.18,3-1.76,4.49a27.4,27.4,0,0,1,4.39-.53,16.5,16.5,0,0,1,3.38.63c-.92,2.87-1.5,4.71-2.09,6.54a30.88,30.88,0,0,1,4.75-.61,9.06,9.06,0,0,1,2.74.8c-.82,2.71-1.42,4.66-2,6.62l6.75-.93,2.72,3.64c-3.7,2.63-7.18,4.89-10.39,7.5-1,.8-1.25,2.51-1.84,3.81,1.46,0,3.25.52,4.33-.13,3.81-2.27,7.38-4.95,11-7.48l1.46.69c-.43,1.37-.91,2.72-1.3,4.11-.32,1.14-.52,2.31-.78,3.47a15.64,15.64,0,0,0,3.15.41,16.55,16.55,0,0,0,3.47-1.22c-.35,2.08-.86,3.46-.71,4.76a16.58,16.58,0,0,0,1.52,3.9q1.71,8.08,3.43,16.16C655.86,399.44,655.94,400.29,660.19,401.33Z" style="fill:#f8f9fb"/><path d="M661.07,416.85c2.65,3.17,5.12,6.5,8,9.45,3.92,4,8.23,1.57,12.45.32,2.22-.66,4.54-1,6.82-1.46l2,1.42,11.95,15.48-3,4.11L678.37,443a1.82,1.82,0,0,0-.4-.3C661.64,436.1,660.56,434.45,661.07,416.85Z" style="fill:#cee5fc"/><path d="M595.17,531.16q-.88-7-1.78-14.09l15.88-4,13.19.58c-.09.51-.17,1-.26,1.53-7.75.53-15.68,7.55-16.44,14.94l36.58-3.28.93,3.42c-2.16.08-4.32.08-6.47.25q-16.35,1.25-32.69,2.56c.43-2.73-1.27-2.87-3.24-2.64S597.07,530.93,595.17,531.16Z" style="fill:#fda2bb"/><path d="M699.25,446.17l3-4.1c5.83,6.26,7.85,6.44,13.55,1.19,6.75-2.43,8.32-7.43,4.09-12.89a6.93,6.93,0,0,1-.69-1.8c4.18-4.27,9.63-4.4,13.1-.29-2.05,4.2-3.45,8.93-6.29,12.51a41.64,41.64,0,0,1-26,15.5C696.17,453.17,697.14,449.71,699.25,446.17Z" style="fill:#79b8f7"/><path d="M700,456.29a41.64,41.64,0,0,0,26-15.5c2.84-3.58,4.24-8.31,6.29-12.51.43,2.06,1.81,4.57,1.1,6.11-1.91,4.11-4.72,7.79-7.18,11.65-5.82,3.62-11.43,7.66-17.56,10.66C706.39,457.82,702.91,456.5,700,456.29Z" style="fill:#e9f7f8"/><path d="M680.09,272.88c2.28,5,4.41,9.6,6.77,14.77l-8,1.13c3.86,12.46,6.24,24.84,5.11,37.57-9.12,2.56-17.56-3.69-18.67-14.05-1.55-14.41,2.41-27.19,12.35-37.93A15.83,15.83,0,0,1,680.09,272.88Z" style="fill:#fdfefe"/><path d="M86.31,594.1l-1-.88c1.43-.66,2.82-1.74,4.31-1.91,7.49-.86,15.14-.79,22.46-2.37,7.11-1.53,13.72-4.85,16.15-12.83,0-1.07.09-2.15.13-3.22-2.17-8.45-9.51-10.65-16.28-13.58a14,14,0,0,1-2.74-2.13l7.69.29a25.24,25.24,0,0,0,3.94,3.27c9.29,5,12,9.31,11.16,18.39-7.48,11.68-19.54,13.76-31.88,15C95.62,594.55,90.94,594.13,86.31,594.1Z" style="fill:#fef2f6"/><path d="M62.21,572.19c.33-6.51,5.78-9,10.23-11.13,9.83-4.64,20.5-4.92,32.68-3.21-8.2,3.25-14.3,6.86-16.86,14.36Z" style="fill:#fcdf98"/><path d="M86.32,575.7l-1.59,13.75c-8,1.89-20.86-6.09-22.56-14.08Z" style="fill:#fcdf98"/><path d="M86.32,575.7l-24.15-.33c0-1.06,0-2.12,0-3.18l26.05,0,40.05.68c0,1.07-.09,2.15-.13,3.22Z" style="fill:#fcc036"/><path d="M133.21,479.22c1.69,3.94,4.38,7.75,4.9,11.83,1.77,13.86-4.24,25.18-13.28,35.08-7,7.68-15,14.08-25.59,16.11.6-1.85,1.08-3.74,1.81-5.53,3.86-9.6,5.74-19.32,2.2-29.47v-1a17.3,17.3,0,0,0,2.87-1.78Q119.7,491.88,133.21,479.22Z" style="fill:#bde2fc"/><path d="M65.57,533.34c-5-3.81-5.21-9.67-5-14.87.59-16.12,8.81-28.46,21-38.49.33-.28.42-.86.62-1.29l2-.23c.91.87,1.75,1.83,2.73,2.61,6.32,4.95,11.87,10.49,14.5,18.35a12.28,12.28,0,0,1-1.72,2.88q-9.6,9-19.34,17.89C75.47,524.63,70.5,529,65.57,533.34Z" style="fill:#e1f0fc"/><path d="M101.41,499.42c-2.64-7.86-8.19-13.4-14.51-18.35-1-.78-1.82-1.74-2.73-2.61,11.67-8.91,24.43-12.88,38.85-8,2.34.78,4.15,3.15,6.21,4.79l-26,24Z" style="fill:#bde2fc"/><path d="M103.25,507.24c3.54,10.15,1.66,19.87-2.2,29.47-.73,1.79-1.21,3.68-1.81,5.53l-2.89,2.12c-4.88,0-9.77.11-14.63-.18-4.65-.28-9-1.62-11.5-6.08Z" style="fill:#e1f0fc"/><path d="M103.19,499.2l26-24,4,4q-13.53,12.63-27.1,25.23a17.3,17.3,0,0,1-2.87,1.78Q103.23,502.72,103.19,499.2Z" style="fill:#208afb"/><path d="M103.19,499.2q0,3.53,0,7v1l-33,30.86c-4,.79-5.65-.69-4.65-4.76,4.93-4.38,9.9-8.71,14.77-13.15q9.73-8.87,19.34-17.89a12.28,12.28,0,0,0,1.72-2.88Z" style="fill:#79b8f7"/><path d="M708.14,252.18l-9.62,1.07c-4.36-1.79-3.88-5.07-2.52-8.49.71-1.8,1.7-3.49,2.56-5.23l11.28-1C709.27,243.12,708.71,247.65,708.14,252.18Z" style="fill:#f9a09d"/><path d="M588.07,546.93l6.39-12.87,8.91-.54q.5,7.38,1,14.76l-.09,1.91Z" style="fill:#fda2bb"/><path d="M604.38,548.28q-.51-7.38-1-14.76a3.53,3.53,0,0,1,.74-.4q16.35-1.29,32.69-2.56c2.15-.17,4.31-.17,6.47-.25-1.31,8.11-7.85,11.56-14.24,13.58C621.14,546.38,612.63,546.9,604.38,548.28Z" style="fill:#fedfe7"/><path d="M642.34,526.89l-36.58,3.28c.76-7.39,8.69-14.41,16.44-14.94A25.92,25.92,0,0,1,640,521.85C641.32,522.93,641.6,525.18,642.34,526.89Z" style="fill:#fedfe7"/><path d="M512.23,302.24l14.89-11c5.69,10.4,8,21.86,8.86,33.39,2.06,27.14-4.15,52.31-21.1,74-16.31,20.89-37.73,33.49-64.57,33.25-30.57-.26-53.79-14.9-70.08-40.64q15.34-8.44,30.71-16.88c2.45-1.35,4.87-2.76,7.3-4.14,0,4.16-.14,8.34.11,12.49.59,9.94,3.31,17.21,16.68,16.61,6.94-.31,13.92.61,20.89.8,4.6.12,9.81,1.11,13-3.19a20.63,20.63,0,0,0,4.15-10.1c.59-8.38.19-16.83.19-25.58h26.22c9.74,0,14.72-4.86,14.76-14.55,0-11.66.12-23.32-.09-35,0-2.51-1.22-5-1.88-7.5C512.23,303.57,512.23,302.91,512.23,302.24Z" style="fill:#fda2bb"/><path d="M565,284.64l22.2-14.49a27.27,27.27,0,0,1,4,16.91c-.09,1.19-1.49,2.5-2.58,3.37-2.59,2.08-5.42,3.84-8,5.88-3,2.29-5.36,1.86-7.48-1.07Q569.09,289.94,565,284.64Z" style="fill:#f8f9fb"/><path d="M580.31,267.82c2.47,3,.28,4.93-1.85,6.48-2.52,1.84-4.58,5.87-8.69,2.59-1-1.45-2.1-2.89-3.23-4.45,3.71-2.5,3-5.13.06-7.95a36.71,36.71,0,0,1-3.33-4.25l2-1c1.08,1.21,2.26,2.34,3.21,3.64,2.21,3,4.5,5,8.43.13Z" style="fill:#f8f9fb"/><path d="M578.36,318.07q5,6.06,9.94,12.13c-5.56-.81-12,.08-13.81-7.09C575.93,321.24,577.15,319.66,578.36,318.07Z" style="fill:#fe648c"/><path d="M584.28,540.92c-3.26,2.77-6.11,6.41-9.84,8.11-8.63,3.91-17.88,3-26.77.77a58.62,58.62,0,0,1-34.88-23.88c-.15-.21,0-.62,0-.67,4.86,0,9.72-.2,14.55.06a34.66,34.66,0,0,0,17.74-3.92,21,21,0,0,1,4.25-1.16l1.07-.13Z" style="fill:#bde2fc"/><path d="M570.27,491.27l1,0c4.66,5.5,9.74,10.71,13.88,16.57,4.52,6.41,6,14,5,21.78-.25,2-1.71,3.77-2.62,5.65l-31.25-18.9a19.6,19.6,0,0,1,2.09-3.08C564.51,507.11,569.59,500.4,570.27,491.27Z" style="fill:#bde2fc"/><path d="M550.38,520.1l-1.07.13c-5.38-3.52-10.67-7.18-16.16-10.52-8.2-5-16.53-9.78-24.81-14.65-1-3.4.19-5.33,3.83-5.55,1.18.86,2.32,1.81,3.56,2.58q19.32,12,38.66,23.9Z" style="fill:#79b8f7"/><path d="M550.38,520.1l4-4.11,1.83.33,31.25,18.9c-1.06,1.9-2.13,3.8-3.19,5.71Z" style="fill:#208afb"/><path d="M604.11,533.12a3.53,3.53,0,0,0-.74.4l-8.91.54c.24-1,.48-1.93.71-2.9,1.9-.23,3.8-.47,5.7-.68S604.54,530.39,604.11,533.12Z" style="fill:#fe4971"/><path d="M556.22,516.32l-1.83-.33q-19.33-11.94-38.66-23.9c-1.24-.77-2.38-1.72-3.56-2.58,4.35-6.93,11.3-9.46,18.81-10.17,14.62-1.39,27.67,3.08,39.29,11.93-.68,9.13-5.76,15.84-12,22A19.6,19.6,0,0,0,556.22,516.32Z" style="fill:#e1f0fc"/><path d="M512.23,302.24c0,.67,0,1.33,0,2a59,59,0,0,0-6.6,4.19c-3.95,3.28-7.38,7.25-11.54,10.2q-31.19,22.11-62.69,43.76c-4,2.75-8.68,4.55-13.05,6.79v-10c-7.6-.32-14.52-.68-21.44-.88-6.05-.18-10.61-4.53-10.66-10.69q-.15-17.24,0-34.49c.06-7.2,4.69-11.68,12-11.81,4.67-.08,9.36-.35,14,0,5,.38,6.37-1.65,6.13-6.36-.34-6.48-.14-13-.08-19.49.1-9.52,5.75-15,15.26-15.2,9-.2,17.92-.78,26.89-1,8.19-.15,12.61,4.27,12.75,12.58.13,7.17.28,14.35-.06,21.5-.2,4.17,1.38,5.21,5.17,4.91,6.28-.5,12.61-.53,18.88-1.08C503,296.67,508,298.17,512.23,302.24Z" style="fill:#fef2f6"/><path d="M418.36,369.18c4.37-2.24,9-4,13.05-6.79q31.5-21.64,62.69-43.76c4.16-2.95,7.59-6.92,11.54-10.2a59,59,0,0,1,6.6-4.19c.66,2.5,1.84,5,1.88,7.5.21,11.66.13,23.32.09,35,0,9.69-5,14.55-14.76,14.55H473.23c0,8.75.4,17.2-.19,25.58a20.63,20.63,0,0,1-4.15,10.1c-3.16,4.3-8.37,3.31-13,3.19C449,400,442,399,435,399.34c-13.37.6-16.09-6.67-16.68-16.61-.25-4.15-.08-8.33-.11-12.49Z" style="fill:#fedfe7"/><path d="M660.19,401.33c-4.25-1-4.33-1.89-.58-5.86L670,388.61l-3.31-4.46-6.37,1.36c.49-1.77,1.07-3.52,1.45-5.31a2.69,2.69,0,0,0-.37-2.14,2.48,2.48,0,0,0-2.11-.26,19.94,19.94,0,0,0-3.08,1.51,16.58,16.58,0,0,1-1.52-3.9c-.15-1.3.36-2.68.71-4.76a16.55,16.55,0,0,1-3.47,1.22,15.64,15.64,0,0,1-3.15-.41c.26-1.16.46-2.33.78-3.47.39-1.39.87-2.74,1.3-4.11l-1.46-.69c-3.65,2.53-7.22,5.21-11,7.48-1.08.65-2.87.12-4.33.13.59-1.3.85-3,1.84-3.81,3.21-2.61,6.69-4.87,10.39-7.5l-2.72-3.64-6.75.93c.59-2,1.19-3.91,2-6.62a9.06,9.06,0,0,0-2.74-.8,30.88,30.88,0,0,0-4.75.61c.59-1.83,1.17-3.67,2.09-6.54a16.5,16.5,0,0,0-3.38-.63,27.4,27.4,0,0,0-4.39.53c.58-1.5,1.14-3,1.76-4.49a3.32,3.32,0,0,0,.3-2.55,15,15,0,0,0-2.88,1.16c-2.77,1.85-5.33,4.05-8.23,5.65-1.31.72-3.22.37-4.86.5.75-1.41,1.16-3.22,2.3-4.16,3-2.52,6.4-4.66,9.93-7.17l-1.87-2.47-7.12.66,2.42-6.42-.8-1-7,.73,2.14-6.41s-.76-1-1.59-2.05c-.9.65-1.51,1.38-2.24,1.53a24.66,24.66,0,0,1-4,.24c.32-1.26.65-2.52,1-3.78.35-1.42.69-2.83,1-4.25l-1.42-.48c-3.38,2.37-6.67,4.92-10.22,7-1,.62-2.85-.07-4.3-.16.57-1.19.85-2.75,1.78-3.5,3.06-2.5,6.36-4.71,8.78-6.46-.48-2.85-.83-4.89-1.18-6.93l5.88,1.72,1,2a69.47,69.47,0,0,1,5.54-6.95c.71-.71,2.51-.34,3.81-.46-.17,1.19,0,2.65-.58,3.49a22.59,22.59,0,0,1-4.56,4.6c-2.39,1.8-2.47,3.29.38,5.07.6-.43,1.28-1.26,2.12-1.46a14.8,14.8,0,0,1,3.52,0c-.18,1.16-.3,2.33-.55,3.48-.31,1.42-.73,2.81-1.16,4.43l7.34-1.3c-.49,2-1,3.95-1.71,6.84a13.42,13.42,0,0,0,2.88.54,30.12,30.12,0,0,0,4.3-.49c-.56,1.52-1.11,3-1.68,4.55a9.58,9.58,0,0,1-.71,1.13l2.81,3.52c2.51-3.12,4.73-5.91,7-8.69l4.53,0c-.42,1.91-.85,3.81-1.27,5.72l-7.72,6.15.86,1.57a18.64,18.64,0,0,1,3.16-1.13,21.81,21.81,0,0,1,3.53-.08,15.94,15.94,0,0,1-.63,3.49c-.34.83-1.22,1.45-2.17,2.52.86,1.08,1.62,2,2.2,2.74l5-3.15c.52,1.49,1.41,3,1.45,4.48s-.78,3.05-1.39,5.14c1.67-1,2.67-1.86,3.81-2.15.93-.24,2.49-.11,3,.48a3,3,0,0,1-.19,3c-1.84,1.73-3,3.66-.58,5.23.86.56,3.28-.93,4.77-1.85,1.24-.76,2-2.3,3.25-3a30.86,30.86,0,0,1,5-2c-.57,1.82-.78,3.87-1.8,5.39-1.27,1.9-3.35,3.24-4.77,5.06-.61.78-.43,2.17-.61,3.28,1,0,2,.1,3,0,1.32-.09,2.64-.3,4-.46-.27,1.41-.54,2.84-.82,4.25-.2,1-.42,2-.63,3a13.3,13.3,0,0,0,2.56.33c1.62-.1,3.23-.37,4.85-.57l-2.13,4.86c-.14.3-.3.58-.78,1.48,1.13.4,2.18,1.09,3.2,1.05a32.77,32.77,0,0,0,5-.92c-.49,1.89-1,3.77-1.77,6.89l3.46,4.78a100.16,100.16,0,0,1,6.72-8c.89-.87,2.74-.76,4.15-1.1-.21,1.42.08,3.31-.73,4.18a105.76,105.76,0,0,1-8,7.16c1.71,2,3,3.16,3.69,4.58.51,1.12.18,2.63.23,4-1.2-.24-2.63-.15-3.55-.79a23.56,23.56,0,0,1-3.51-3.74Z" style="fill:#0e73f9"/><path d="M719.22,428.57a6.93,6.93,0,0,0,.69,1.8c4.23,5.46,2.66,10.46-4.09,12.89.3-2.75,1.22-5.6.77-8.22-2.07-12-15.22-16.14-26.27-8.46l-2-1.42c2.55-2.61,5-5.3,7.68-7.82,2.37-2.25,4.91-4.31,7.38-6.45Z" style="fill:#208afb"/><path d="M682.3,360.36l4-2.11,1.89,13c-4.93,1.73-9.87,5.14-15.26-.89Z" style="fill:#f9a09d"/><path d="M642.5,338.41l-5,3.15c-.58-.71-1.34-1.66-2.2-2.74,1-1.07,1.83-1.69,2.17-2.52a15.94,15.94,0,0,0,.63-3.49,21.81,21.81,0,0,0-3.53.08,18.64,18.64,0,0,0-3.16,1.13l-.86-1.57,7.72-6.15Z" style="fill:#e1f0fc"/><path d="M656.18,379.31a19.94,19.94,0,0,1,3.08-1.51,2.48,2.48,0,0,1,2.11.26,2.69,2.69,0,0,1,.37,2.14c-.38,1.79-1,3.54-1.45,5.31l6.37-1.36,3.31,4.46-10.36,6.86Q657.9,387.4,656.18,379.31Z" style="fill:#79b8f7"/><path d="M690.32,426.58c11-7.68,24.2-3.54,26.27,8.46.45,2.62-.47,5.47-.77,8.22-5.7,5.25-7.72,5.07-13.55-1.19Q696.3,434.31,690.32,426.58Z" style="fill:#f8f9fb"/></g></g></svg>