<svg height="512" viewBox="0 0 64 64" width="512" xmlns="http://www.w3.org/2000/svg"><g id="Twotone"><g id="Color_copy_2" data-name="Color copy 2"><g><g><path d="m13.038 45.962h4v6h-4z" fill="#cff09e" transform="matrix(.707 .707 -.707 .707 39.026 3.707)"/><path d="m30.08 17.92h18v14h-18z" fill="#a8dba8" transform="matrix(.707 -.707 .707 .707 -6.175 34.932)"/><g fill="#79bd9a"><path d="m45.333 9.167h8v11h-8z" transform="matrix(.707 .707 -.707 .707 24.821 -30.588)"/><path d="m37.494 16.506h6v14h-6z" transform="matrix(.707 .707 -.707 .707 28.482 -21.749)"/><path d="m27.13 27.87h14v4h-14z" transform="matrix(.707 .707 -.707 .707 31.118 -15.385)"/><path d="m47.636 7.364h14v4h-14z" transform="matrix(.707 .707 -.707 .707 22.624 -35.891)"/></g><path d="m27.766 38.133a8 8 0 0 1 -11.314 0l-.242-.242-4 4 9.9 9.9 15.555-15.557-4-4z" fill="#cff09e"/></g><g><path d="m55.5 58a7.5 7.5 0 0 1 -7.426-8.568 7.618 7.618 0 0 1 1.451-3.466l.025-.033a6.974 6.974 0 0 1 5.611-2.933h3.009a7.455 7.455 0 0 1 -.17-1.5v-.5h-10v.5a7.5 7.5 0 0 1 -1.5 4.5 7.5 7.5 0 0 0 -1.5 4.5v10.5h16v-3z" fill="#cff09e"/><g fill="#79bd9a"><path d="m46 35h14v6h-14z"/><path d="m45.439 48a7.487 7.487 0 0 0 -.439 2.5v10.5h16v-10.5a7.487 7.487 0 0 0 -.439-2.5z"/></g></g></g></g><g id="Stroke_Close_copy" data-name="Stroke Close copy"><g fill="#3b8686"><path d="m51.1 24.213a1 1 0 0 0 0-1.414l-1.415-1.414 6.365-6.365 1.415 1.415a1 1 0 0 0 1.414 0l2.828-2.829a1 1 0 0 0 0-1.414l-9.9-9.9a1.029 1.029 0 0 0 -1.414 0l-2.828 2.83a1 1 0 0 0 0 1.414l1.414 1.414-6.364 6.364-1.415-1.414a1.029 1.029 0 0 0 -1.414 0l-28.286 28.284a1 1 0 0 0 0 1.414l2.828 2.828-3.528 3.536a1 1 0 0 0 0 1.414l.707.707-9.21 9.21a1 1 0 1 0 1.414 1.414l9.21-9.21.707.708a1 1 0 0 0 1.414 0l3.536-3.536 2.822 2.831a1 1 0 0 0 1.414 0zm-36.77 26.87-1.414-1.414 2.828-2.828 1.414 1.414zm26.164-19.091-1.415-1.415 8.486-8.485 1.414 1.414zm-1.849 1.849-.98.979-8.485-8.485 1.42-1.415 2.12 2.12 4.242 4.242 2.12 2.121zm6.092-14.578 1.414 1.415-8.486 8.485-2.828-2.829 8.485-8.485zm6.363-14.849 8.486 8.486-1.414 1.415-8.485-8.486zm-.707 4.95 4.242 4.242-6.364 6.365-4.241-4.243zm-9.9 5.657 1.413 1.413-8.483 8.486-1.414-1.414zm-26.87 26.87 1.414-1.414 2.122 2.123a1 1 0 0 0 1.414-1.414l-2.121-2.121 1.415-1.415 3.533 3.534a1 1 0 1 0 1.414-1.414l-3.535-3.536 1.421-1.414 2.121 2.121a1 1 0 0 0 1.414-1.414l-2.121-2.121 1.415-1.415 3.535 3.536a1 1 0 0 0 1.414-1.414l-3.535-3.536 2.828-2.828 8.485 8.485-14.147 14.142z"/><path d="m59.041 42h.959a1 1 0 0 0 1-1v-6a1 1 0 0 0 -1-1h-14a1 1 0 0 0 -1 1v6a1 1 0 0 0 1 1h.959a6.53 6.53 0 0 1 -1.259 3.4 8.556 8.556 0 0 0 -1.7 5.1v10.5a1 1 0 0 0 1 1h16a1 1 0 0 0 1-1v-10.5a8.556 8.556 0 0 0 -1.7-5.1 6.522 6.522 0 0 1 -1.259-3.4zm-12.041-6h12v4h-12zm10.015 6a8.561 8.561 0 0 0 1.685 4.6c.095.126.167.267.252.4h-11.9c.085-.133.157-.274.252-.4a8.561 8.561 0 0 0 1.681-4.6zm2.985 18h-14v-9.5a6.439 6.439 0 0 1 .2-1.5h13.6a6.439 6.439 0 0 1 .2 1.5z"/><path d="m55.5 53h-1.5v-1a1 1 0 0 0 -2 0v1h-1.5a1 1 0 0 0 0 2h1.5v1a1 1 0 0 0 2 0v-1h1.5a1 1 0 0 0 0-2z"/></g></g></g></svg>