<svg xmlns="http://www.w3.org/2000/svg" viewBox="0 0 534.51 429.21"><title>Asset 7</title><g id="Layer_2" data-name="Layer 2"><g id="Layer_1-2" data-name="Layer 1"><path d="M306.11,67.72c0,4.49,0,9,.05,13.46.11,8.39,4.26,12.46,12.57,12.59,7.13.12,14.45-.55,21.36.8,16,3.13,25.53,13.73,29.88,29.2q.07,79.3.14,158.61c0,14.45-.18,28.91-.27,43.37-19.93,1-36.2,17.31-36,36.16,0,1.6,0,3.19,0,4.79l.27,6.73c-4.74,3.05-9.4,3.49-13.92-.41-7.2-6.2-15.52-7.56-24.46-5.28-4,1-7.72,2.78-11.57,4.21-.76-13.74-7.95-23.42-19.24-30.53q0-15.82-.1-31.65h76.67V156.86c-13.17,0-25.95,0-38.74,0-12.63-.06-25.26-.24-37.89-.36,0-24.26-.09-48.52.1-72.78,0-4-1.23-5.08-5.1-5-12,.21-23.93.07-35.89.07q-.08-6.92-.16-13.84c26.29,0,52.58-.12,78.86,0C303.84,64.93,305,66.75,306.11,67.72Z" style="fill:#28b0e1"/><path d="M224,78.77c12,0,23.93.14,35.89-.07,3.87-.08,5.13,1,5.1,5-.19,24.26-.1,48.52-.1,72.78-2,.1-4,.29-6,.29-21.46,0-42.92,0-64.38.06a38,38,0,0,0-5.74.84l0,0a27.72,27.72,0,0,0-.8,4.72q-.07,70.91,0,141.82c0,1.61.17,3.23.3,5.54h76.6q.06,15.83.1,31.65l-12.07-3.74c-4.6-2.74-9.22-1.77-13.84-.05s-9.85,2.51-13.4,5.44c-5.68,4.69-10.19,10.8-15.19,16.32a23.08,23.08,0,0,0-4.41-1.53c-7.1-1-13.76.62-20.07,3.87l-.42-12.93a1,1,0,0,0,.08-.95c.06-10.29.6-20.62.05-30.88-.65-12.09-10.88-22.38-22.79-21.15l-3-.42q-.11-34.83-.2-69.66c0-.33,0-.67,0-1v-40l0-11q0-23.52.08-47.06c3.32-20,18.47-32.93,38.61-33h12.48c8.95,0,12.81-3.9,13-13C223.85,80.09,223.94,79.43,224,78.77Z" style="fill:#45ccfc"/><path d="M415.91,123.8q30.46,0,60.94,0c11.41,0,19.07,7.66,19.07,19q0,97.4.05,194.8l-32.08.21c-9.43,0-18.86-.14-28.28,0-2.45.05-4.88,1.07-7.33,1.64q-.13-2.87-.29-5.73c0-9.44-.3-18.91.17-28.33.4-8.11-2.67-14.37-8.26-19.76q0-34.75,0-69.49,0-30,0-60c0-3.21.11-6.52-4.05-7.51Zm39.39,95a21.34,21.34,0,0,0-21.41,21.56c0,11.6,10.2,21.6,21.74,21.4s21.27-10.27,21.23-22C476.81,228.19,467.08,218.73,455.3,218.77Zm-.56-23c12.43.06,22.08-9.3,22.11-21.45,0-11.24-9.85-21.29-21.18-21.51s-21.73,9.91-21.78,21.37C433.85,185.92,443.31,195.71,454.74,195.77Zm.32,131.07c10.8,1.6,21.87-9.33,21.82-20.95a21.06,21.06,0,0,0-21.22-21.16c-12.61-.05-21.57,9.09-21.85,21.58C433.61,315.21,443.25,328.32,455.06,326.84Z" style="fill:#d1d2d4"/><path d="M415.91,123.8l-.09,24.86c-4.3,0-4,3-4,5.94q0,60.63,0,121.27c0,2.91.09,5.53-4,5L406,281c-6.77.16-12.84,2.14-17.92,6.77-5.35-2.06-10.63-4.58-17.12-2.23,0,11.48.05,23.05,0,34.62a31,31,0,0,1-1.07,5.55c.09-14.46.27-28.92.27-43.37q0-79.31-.14-158.61Zm-44.7,95.67c-.08,1.51-.23,3.12-.23,4.74q0,15.45,0,30.91c0,6.9,1.14,7.76,8,6.12.81-.2,1.63-.32,2.43-.53a21.56,21.56,0,0,0,15.27-25.09C394.14,224,383.3,217,371.21,219.47ZM371,195.54c2.17.1,3.48.23,4.8.22a21.24,21.24,0,0,0,21.1-21.22c.09-11.55-9.75-21.76-21.24-21.62-1.56,0-4.43,1.86-4.46,2.92C370.88,168.9,371,182,371,195.54Z" style="fill:#e2e5e7"/><path d="M306.11,67.72c-1.13-1-2.27-2.79-3.41-2.79-26.28-.12-52.57,0-78.86,0H208.75a19.14,19.14,0,0,1-.61-3.22c0-15.13-.13-30.26,0-45.39.09-9.15,6-15.93,15-16.17C237.05-.22,251,.19,265,.27c0,19.48.08,39-.17,58.43-.05,4.35,1.49,5.23,5.46,5.18,17.15-.2,34.3-.12,51.45-.14-3.91.36-7.82.83-11.74,1C307.87,64.88,305.91,64.76,306.11,67.72Z" style="fill:#505b83"/><path d="M321.71,63.74c-17.15,0-34.3-.06-51.45.14-4,0-5.51-.83-5.46-5.18.25-19.47.15-38.95.17-58.43l44,.32.42.23.47-.07c7.29,2.07,11.83,7,11.9,14.07C322,31.13,321.76,47.44,321.71,63.74Z" style="fill:#323f5f"/><path d="M64.24,173.92c-3.87-.6-8.13-.42-11.5-2.06-2.27-1.1-4.5-4.69-4.65-7.29-.55-9.45-.32-18.95-.18-28.43.09-5.89,4.27-9.34,11.13-9.35,18.29,0,36.59,0,54.89,0q0,23.37-.07,46.74l-12.49.18-36.44.44A7,7,0,0,0,64.24,173.92Z" style="fill:#e5e6e7"/><path d="M113.86,173.56q0-23.37.07-46.74l45.82-.09q0,23.53-.08,47.06Z" style="fill:#d1d2d4"/><path d="M509.83,377.73c6.81,1.35,13.67,2.54,20.42,4.17,1.61.39,2.85,2.27,4.26,3.46-1.52,1.16-2.88,2.95-4.58,3.37-7.74,1.87-15.5,4.16-23.38,4.83-32.27,2.73-64.59,5-96.9,7.29-9.78.7-19.58,1.08-29.37,1.61,0-.32,0-.89.15-.92,9.66-2.52,17-8.44,23.4-15.79,7.09,2,12.52-1.74,18-5.28,3.39,1.07,6.76,2.95,10.19,3.06,10.61.37,21.24.07,31.86,0,7.09,0,14.2-.23,21.27.17C494.06,384.23,502.36,382.85,509.83,377.73Z" style="fill:#a8a9ac"/><path d="M64.24,173.92a7,7,0,0,1,.69.26c0,3.49.09,7,.13,10.46l-10.78,1.75V349.9H67l-.39,22.85c-15.82,0-31.64.05-47.46-.06-3.09,0-4.87.65-4.31,4.11a2,2,0,0,0-.63.2c-2.82-14.73,9.26-28.65,24.31-27.4,4.42.36,8.9,0,14,0v-6.89q0-75.12,0-150.25c0-7.08-1.46-8.8,8-8.35a31.8,31.8,0,0,0,3.68-.33Z" style="fill:#f9774b"/><path d="M403.83,385.75c-6.39,7.35-13.74,13.27-23.4,15.79-.12,0-.11.6-.15.92l-4.37.28c-.65-4.18-1-8.44-2-12.51-2.4-9.31-12.84-18-22-18.64-6.37-3.76-11.89.86-17.78,1.84l-.27-6.73a61.68,61.68,0,0,0,7.83,1c22.22.08,44.43.05,66.94.05.07,1.12.16,2.58.26,4Z" style="fill:#e6e4e4"/><path d="M207.78,415.48c-12.32,1.17-22.44-2.82-30.05-12.75l-2.86-5.06c-.34-2.58-.69-5.16-1-7.74-.14-5,3.78-2.56,6-3.27.79,3.93,3.87,4.08,6.92,4.09,9.81.05,19.62-.11,29.42.09,3.58.07,6.12-1,7.77-4.14l6.09-.07v.07l0,3.1-6.21,16c-3.38,2.36-6.68,4.85-10.17,7.05A41.51,41.51,0,0,1,207.78,415.48Z" style="fill:#e7c904"/><path d="M351.92,371.59c9.13.67,19.57,9.33,22,18.64,1.05,4.07,1.37,8.33,2,12.51-.93,3-1.87,6.08-2.79,9.12-6.11,9.61-13.75,16.68-26.19,15.84-.06-2.27-.12-4.55-.19-6.82,3.4,0,4.12-2.25,4.13-5,0-11,.2-21.94-.16-32.89-.06-1.8-2.52-3.52-3.87-5.28C346.57,374.06,346.85,370.84,351.92,371.59Z" style="fill:#e7c904"/><path d="M463.89,337.79l32.08-.21c14.08,1.81,23.19,15.06,20.06,27.18.25-3.31-1.41-4.09-4.52-4.07-15.82.12-31.64,0-47.47,0Z" style="fill:#fc6d44"/><path d="M464,360.68c15.83,0,31.65.13,47.47,0,3.11,0,4.77.76,4.52,4.07q-3.1,6.48-6.2,13c-7.47,5.12-15.77,6.5-24.68,6-7.07-.4-14.18-.14-21.27-.17q-.09-11.37-.19-22.75Z" style="fill:#e32b2a"/><path d="M14.86,376.8c-.56-3.46,1.22-4.14,4.31-4.11,15.82.11,31.64.05,47.46.06l.18,22.89L51,395.79l-24.28-2.47C21.24,388.9,15.4,384.75,14.86,376.8Z" style="fill:#e32b2a"/><path d="M297.17,423.92c-8.28-1.31-14-6.56-19.33-12.46l-4-9.69q.09-3,.16-6l6.83-.11c.57,3.65,3.11,4.15,6.22,4.13,10.26-.08,20.53,0,30.79-.05L322.08,416a5.6,5.6,0,0,1-.89,1.62C314.22,423.61,305.89,424.5,297.17,423.92Z" style="fill:#e7c904"/><path d="M297.17,423.92c8.72.58,17.05-.31,24-6.32a5.6,5.6,0,0,0,.89-1.62c1.58,1.32,3.2,2.59,4.72,4,5.72,5.18,12,8.85,20.13,7.75,12.44.84,20.08-6.23,26.19-15.84,7.37,1,14.8,1.72,22.1,3.08,4.71.87,9.24,2.66,13.85,4l.06,2.63c-3.53,1.31-7,3.29-10.61,3.81-10,1.43-20.09,2.72-30.18,3.22-21.76,1.1-43.5.87-65.06-2.91A52.55,52.55,0,0,1,297.17,423.92Z" style="fill:#a8a9ac"/><path d="M51,395.79l15.84-.15c9.9-.25,19.81-.77,29.71-.65,7.15.1,12.79-2.57,17.69-7.41l10.57,2.12,14.07-4.24a9.78,9.78,0,0,1,2.81,1.5c3.39,3.69,6.11,8.29,10.1,11.08,4.37,3,9.76,5.2,15.51,2.69l7.6-3.06,2.86,5.06c-30.56-1.28-61.11-2.5-91.66-3.9-10.29-.47-20.55-1.38-30.82-2.16A32.19,32.19,0,0,1,51,395.79Z" style="fill:#a8a9ac"/><path d="M273.83,401.77l4,9.69c-23.13,5.22-46.6,4.6-70.06,4a41.51,41.51,0,0,0,5.84-2.61c3.49-2.2,6.79-4.69,10.17-7.06,6.1,4.22,12.62,7.23,20.24,7.05l4.81,0C258.7,412.62,266.69,408.15,273.83,401.77Z" style="fill:#a8a9ac"/><path d="M14.86,376.8c.54,7.95,6.38,12.1,11.83,16.52-7.7-1.6-15.42-3.09-23.07-4.9-1.36-.32-2.42-1.95-3.62-3,1.23-1.17,2.27-2.73,3.73-3.42,2.19-1,4.76-1.32,7-2.28,1.32-.55,2.33-1.81,3.49-2.75A2,2,0,0,1,14.86,376.8Z" style="fill:#a8a9ac"/><path d="M309.9.75l-.47.07L309,.59Z" style="fill:#505b83"/><path d="M264.85,309.77h-76.6c-.13-2.31-.3-3.93-.3-5.54q0-70.91,0-141.82a27.72,27.72,0,0,1,.8-4.72c.05,2.17.12,4.33.12,6.5,0,46,.08,91.95-.1,137.93,0,4.7,1.39,5.82,5.89,5.77q32.24-.33,64.47,0c4.61.05,5.84-1.26,5.83-5.85q-.25-69.21,0-138.43c0-5-1.57-6-6.22-6-23.32.2-46.64,0-70,0a38,38,0,0,1,5.74-.84c21.46-.07,42.92,0,64.38-.06,2,0,4-.19,6-.29,12.63.12,25.26.3,37.89.36,12.79.07,25.57,0,38.74,0V309.77Z" style="fill:#e3e6e8"/><path d="M369.84,325.75a31,31,0,0,0,1.07-5.55c.1-11.57,0-23.14,0-34.62,6.49-2.35,11.77.17,17.12,2.23-1.46,3.24-3.83,6.39-4.18,9.74-.87,8.17-.88,16.44-1.07,24.67-.14,5.61,1.07,6.77,7.06,7.59l-.05,0,6.07,4.16q4.77,5.64,9.55,11.26,1.86,6.07,3.71,12.13l.4,1.49.14,2c-23.22,0-46.44,0-69.65,0a36.68,36.68,0,0,0-6.23,1.1C333.64,343.06,349.91,326.73,369.84,325.75Z" style="fill:#fbfdfd"/><path d="M273.83,401.77c-7.14,6.38-15.13,10.85-25,11.05a40.33,40.33,0,0,0,1-6.29c.07-21.3,0-42.6,0-63.89,0-2.18-.83-5,3-5L265,341.42c11.29,7.11,18.48,16.79,19.24,30.53a33.67,33.67,0,0,1-2.27,3c-5.46,5.87-8.95,12.47-7.93,20.8Q273.91,398.78,273.83,401.77Z" style="fill:#e5e6e7"/><path d="M274,395.78c-1-8.33,2.47-14.93,7.93-20.8a33.67,33.67,0,0,0,2.27-3c3.85-1.43,7.61-3.2,11.57-4.21,8.94-2.28,17.26-.92,24.46,5.28,4.52,3.9,9.18,3.46,13.92.41,5.89-1,11.41-5.6,17.78-1.84-5.07-.75-5.35,2.47-5.08,6.14-1.34,1.77-3.79,3.5-3.84,5.3-.36,11.12-.15,22.25-.21,33.37,0,2.79.92,4.5,3.95,4.48.07,2.27.13,4.55.19,6.82-8.13,1.1-14.41-2.57-20.13-7.75-1.52-1.38-3.14-2.65-4.72-4q-2.11-8.12-4.25-16.23c.22-2.76.43-5.53.69-8.84-11.21,0-22.28-.18-33.33.21-1.51.05-2.92,3-4.37,4.55Zm42.29-15.7c-5.49-8.13-20.31-7.31-24.6-3.54-2.26,2-2.73,4.28.59,5.12a51.24,51.24,0,0,0,13.81,1.91C309.32,383.47,312.5,381.45,316.28,380.08Zm9.09,19.19.57,0c0,2.49-.52,5.14.17,7.42.57,1.89,2.57,3.34,3.94,5,1.31-1.49,3-2.79,3.84-4.51,2.7-5.42,1.42-11-.19-16.4-.41-1.34-2-3.11-3.16-3.22a4.61,4.61,0,0,0-3.69,2.53C326,393,325.82,396.2,325.37,399.27Z" style="fill:#f5eb35"/><path d="M333.83,361.91a36.68,36.68,0,0,1,6.23-1.1c23.21-.08,46.43,0,69.65,0l-.81,11c-.1-1.46-.19-2.92-.26-4-22.51,0-44.72,0-66.94-.05a61.68,61.68,0,0,1-7.83-1C333.85,365.1,333.84,363.51,333.83,361.91Z" style="fill:#d1d2d4"/><path d="M159.66,225.74q.09,34.83.2,69.66l-13,6.26c-5.26-12.28-12.45-17.57-23-17l-2,.08-4.09.86-4,.94q0-30.37,0-60.77Z" style="fill:#c70424"/><path d="M159.64,184.74v40l-45.81-.09,0-39.82Z" style="fill:#f28203"/><path d="M244,412.86c-7.62.18-14.14-2.83-20.24-7.05l6.21-16,0-3.1v-.07c.27-13.06-8.55-25.35-19.57-27.24,5-5.52,9.51-11.63,15.19-16.32,3.55-2.93,8.87-3.7,13.4-5.44,3.59-.4,3.9,1.72,3.89,4.6q-.1,32.19,0,64.37A37.77,37.77,0,0,0,244,412.86Z" style="fill:#fbfdfd"/><path d="M167.26,400.73c-5.74,2.51-11.13.36-15.5-2.69-4-2.79-6.71-7.39-10.1-11.08a9.78,9.78,0,0,0-2.81-1.5,49.54,49.54,0,0,0,1-6.78c.12-10.32.07-20.64.09-31h22.93l22.75.12a1,1,0,0,1-.08.95H162.89c0,17-.07,33.24.18,49.47C163.09,399.12,165.8,399.91,167.26,400.73Z" style="fill:#fc6d44"/><path d="M185.63,347.85l-22.75-.12q0-26,0-51.91c11.91-1.23,22.14,9.06,22.79,21.15C186.23,327.23,185.69,337.56,185.63,347.85Z" style="fill:#e3e6e8"/><path d="M162.89,295.82q0,25.95,0,51.91l-22.93,0-.33-10a1.14,1.14,0,0,0,.16-.63c0-4.49.29-9,.06-13.47-.44-8.27.91-15.86,7-22l13-6.26Z" style="fill:#fdfdfd"/><path d="M159.64,184.74l-45.78.09-48.8-.19c0-3.49-.08-7-.13-10.46l36.44-.44,12.49-.18,45.81.23Z" style="fill:#cb6002"/><path d="M210.45,359.39c11,1.89,19.84,14.18,19.57,27.24l-6.09.07c-1.34-3.59-3.94-5-7.73-4.92q-14.69.17-29.37,0c-3.64,0-6.06,1.26-7,4.88-2.2.71-6.12-1.73-6,3.27-.18-2.58-.74-5.19-.48-7.73.88-8.8,6.24-15,12.61-20.47,6.31-3.25,13-4.86,20.07-3.87A23.08,23.08,0,0,1,210.45,359.39Zm-8.62,15.55c2.73-.41,5.63-.45,8.21-1.39,1.54-.56,3.61-2.61,3.53-3.86s-2.33-3.54-3.77-3.66a86.56,86.56,0,0,0-15.69,0c-1.52.15-2.83,2.58-4.23,4,1.35,1.26,2.5,3.07,4.1,3.65C196.4,374.51,199.14,374.54,201.83,374.94Z" style="fill:#f5eb35"/><path d="M186,361.73c-6.37,5.5-11.73,11.67-12.61,20.47-.26,2.54.3,5.15.48,7.73.34,2.58.69,5.16,1,7.74l-7.6,3.06c-1.47-.82-4.18-1.61-4.2-2.46-.25-16.23-.18-32.47-.18-49.47h22.66Z" style="fill:#e32b2a"/><path d="M244,412.86A37.77,37.77,0,0,1,243,406.6q-.14-32.18,0-64.37c0-2.88-.3-5-3.89-4.6,4.62-1.72,9.24-2.69,13.84.05-3.82-.05-3,2.78-3,5,0,21.29,0,42.59,0,63.89a40.33,40.33,0,0,1-1,6.29Z" style="fill:#d1d2d4"/><path d="M113.83,224.65l45.81.09c0,.33,0,.67,0,1l-45.75.08c-14.3,0-28.6.11-42.9-.15-4.21-.08-5.29,1.25-5.27,5.34.17,27.94.09,55.88.1,83.82,0,1.45.2,2.89.37,5.05h34.55a18.55,18.55,0,0,1-3.75.78q-14,.1-28,0a21.3,21.3,0,0,1-4.22-.93q0-47,0-94a30.31,30.31,0,0,1,5.19-.95C84.58,224.7,99.2,224.69,113.83,224.65Z" style="fill:#cb6002"/><path d="M455.3,218.77c11.78,0,21.51,9.42,21.56,21,0,11.73-9.67,21.8-21.23,22s-21.7-9.8-21.74-21.4A21.34,21.34,0,0,1,455.3,218.77Z" style="fill:#fdfdfd"/><path d="M454.74,195.77c-11.43-.06-20.89-9.85-20.85-21.59.05-11.46,10.38-21.6,21.78-21.37s21.22,10.27,21.18,21.51C476.82,186.47,467.17,195.83,454.74,195.77Z" style="fill:#fdfdfd"/><path d="M455.06,326.84c-11.81,1.48-21.45-11.63-21.25-20.53.28-12.49,9.24-21.63,21.85-21.58a21.06,21.06,0,0,1,21.22,21.16C476.93,317.51,465.86,328.44,455.06,326.84Z" style="fill:#fdfdfd"/><path d="M407.88,280.85c4.09.55,4-2.07,4-5q-.08-60.63,0-121.27c0-2.91-.32-5.95,4-5.94,4.16,1,4.05,4.3,4.05,7.51q0,30,0,60,0,34.74,0,69.49Z" style="fill:#bcbec0"/><path d="M407.88,280.85l12,4.8c5.59,5.39,8.66,11.65,8.26,19.76-.47,9.42-.15,18.89-.17,28.33l-22.09-.16q0-26.26.1-52.54Z" style="fill:#28a9e0"/><path d="M405.9,333.58l22.09.16q.15,2.86.29,5.74c0,1.51,0,3,0,4.52q-.06,4.92-.1,9.84c-.57,8.22,1.4,16.93-4.59,24.13l-1.54,1.82a1.22,1.22,0,0,0-.26.68c-5.48,3.54-10.91,7.24-18,5.28l5.07-13.95.81-11c0-.65-.09-1.3-.14-2-.13-.49-.27-1-.4-1.49q-1.86-6.06-3.7-12.13l.3-11.28Z" style="fill:#e32b2a"/><path d="M428.32,344c0-1.5,0-3,0-4.52,2.45-.58,4.88-1.6,7.33-1.65,9.42-.18,18.85-.05,28.28,0l.15,22.89-.35.13H428.87v-6.54l1-1.48a45,45,0,0,1,6.25-1c5.95-.15,11.95.31,17.85-.29,2-.21,3.82-2.87,5.71-4.4-1.93-1.42-3.84-4-5.79-4.05-8.23-.15-16.47.46-24.7.8A1.12,1.12,0,0,0,428.32,344Z" style="fill:#81e0f6"/><path d="M371.21,219.47c12.09-2.44,22.93,4.57,25.47,16.15a21.56,21.56,0,0,1-15.27,25.09c-.8.21-1.62.33-2.43.53-6.87,1.64-8,.78-8-6.12q0-15.45,0-30.91C371,222.59,371.13,221,371.21,219.47Z" style="fill:#fdfdfd"/><path d="M371,195.54c0-13.56-.11-26.64.2-39.7,0-1.06,2.9-2.91,4.46-2.92,11.49-.14,21.33,10.07,21.24,21.62a21.24,21.24,0,0,1-21.1,21.22C374.47,195.77,373.16,195.64,371,195.54Z" style="fill:#fdfdfd"/><path d="M406,281q0,26.26-.1,52.54l-.13.33-9.86,0-6.07-4.16c4.6-.15,6.35-2.57,6.12-7.08s.19-9.31-.11-13.94c-.33-5,.88-9,4.79-12.42,1.13-1,.86-3.58,1.24-5.44-2.11-.08-4.83-1-6.22-.07-4.8,3.32-7.92,7.91-7.79,14.18.11,5.31-.21,10.64.11,15.93.18,3,1.24,5.93,1.91,8.88-6-.82-7.2-2-7.06-7.59.19-8.23.2-16.5,1.07-24.67.35-3.35,2.72-6.5,4.18-9.74C393.16,283.18,399.23,281.2,406,281Z" style="fill:#81e0f6"/><path d="M428.87,354.26v6.54h34.82q.1,11.37.19,22.75c-10.62,0-21.25.34-31.86,0-3.43-.11-6.8-2-10.19-3.06a1.16,1.16,0,0,1,.26-.67l1.54-1.83c6-7.2,4-15.91,4.59-24.13C428.44,354,428.66,354.11,428.87,354.26Z" style="fill:#28a9e0"/><path d="M64.81,319.73a21.3,21.3,0,0,0,4.22.93q14,.12,28,0a18.55,18.55,0,0,0,3.75-.78,1.6,1.6,0,0,1,.75-.11l.47,17.9-.15,12.07L67.88,350a1.8,1.8,0,0,0-.86-.09H54.28V186.39l10.78-1.75,48.8.19,0,39.82c-14.63,0-29.25,0-43.87.16a30.31,30.31,0,0,0-5.19.95A22.87,22.87,0,0,0,64,230q-.08,42.73,0,85.49A21.09,21.09,0,0,0,64.81,319.73Z" style="fill:#f89b03"/><path d="M67,349.9a1.8,1.8,0,0,1,.86.09v21.83h51c-.35-3.06-.58-5.15-.82-7.24a26,26,0,0,1,1.74,5.05c.94,6.81-1.63,12.61-5.56,17.95-4.91,4.84-10.55,7.51-17.7,7.41-9.9-.12-19.81.4-29.71.65l-.18-22.89Z" style="fill:#e6e4e4"/><path d="M179.82,386.66c1-3.62,3.37-4.93,7-4.88q14.68.15,29.37,0c3.79,0,6.39,1.33,7.73,4.92-1.65,3.13-4.19,4.21-7.77,4.14-9.8-.2-19.61,0-29.42-.09C183.69,390.74,180.61,390.59,179.82,386.66Z" style="fill:#ddba02"/><path d="M230,386.7l0,3.1Z" style="fill:#f5eb35"/><path d="M346.74,420.88c-3,0-4-1.69-3.95-4.48.06-11.12-.15-22.25.21-33.37.05-1.8,2.5-3.53,3.84-5.3,1.35,1.76,3.81,3.48,3.87,5.28.36,10.95.19,21.92.16,32.89C350.86,418.63,350.14,420.89,346.74,420.88Z" style="fill:#ddba02"/><path d="M280.82,395.67c1.45-1.59,2.86-4.5,4.37-4.55,11.05-.39,22.12-.21,33.33-.21-.26,3.31-.47,6.08-.69,8.84-10.26,0-20.53,0-30.79.05C283.93,399.82,281.39,399.32,280.82,395.67Z" style="fill:#ddba02"/><path d="M139.62,337.73l.33,10c0,10.33,0,20.65-.09,31a49.54,49.54,0,0,1-1,6.78l-14.07,4.24v-52Z" style="fill:#e52828"/><path d="M139.62,337.73H124.78v52l-10.57-2.12c3.94-5.34,6.51-11.14,5.57-17.95a26,26,0,0,0-1.74-5.05c-2.24-8.41-9-11.91-16.21-14.84l.15-12.07,21.86-.91,15.94.34A1.14,1.14,0,0,1,139.62,337.73Z" style="fill:#fc6d44"/><path d="M188.81,157.67c23.33,0,46.65.2,70,0,4.65,0,6.24,1,6.22,6q-.28,69.23,0,138.43c0,4.59-1.22,5.9-5.83,5.85q-32.24-.36-64.47,0c-4.5.05-5.91-1.07-5.89-5.77.18-46,.11-92,.1-137.93,0-2.17-.07-4.33-.12-6.5Z" style="fill:#fdfefe"/><path d="M395.91,333.93l9.86,0-.3,11.28Q400.68,339.57,395.91,333.93Z" style="fill:#f9774b"/><path d="M409.17,357.32c.13.5.27,1,.4,1.49C409.44,358.32,409.3,357.82,409.17,357.32Z" style="fill:#d1d2d4"/><path d="M316.28,380.08c-3.78,1.37-7,3.39-10.2,3.49a51.24,51.24,0,0,1-13.81-1.91c-3.32-.84-2.85-3.14-.59-5.12C296,372.77,310.79,372,316.28,380.08Z" style="fill:#fcfcb2"/><path d="M325.37,399.27c.45-3.07.58-6.24,1.48-9.16a4.61,4.61,0,0,1,3.69-2.53c1.18.11,2.75,1.88,3.16,3.22,1.61,5.4,2.89,11,.19,16.4-.85,1.72-2.53,3-3.84,4.51-1.37-1.64-3.37-3.09-3.94-5-.69-2.28-.17-4.93-.17-7.42Z" style="fill:#fcfcb2"/><path d="M101.51,319.77a1.6,1.6,0,0,0-.75.11H66.21c-.17-2.16-.37-3.6-.37-5.05,0-27.94.07-55.88-.1-83.82,0-4.09,1.06-5.42,5.27-5.34,14.3.26,28.6.13,42.9.15q0,30.39,0,60.77c-9,5.62-13.07,13.63-12.22,24.24C101.87,313.79,101.57,316.79,101.51,319.77Z" style="fill:#e52828"/><path d="M101.51,319.77c.06-3,.36-6,.13-8.94-.85-10.61,3.27-18.62,12.22-24.24l4-.94,4.09-.86,2-.08,0,52.05-21.86.91Q101.74,328.72,101.51,319.77Z" style="fill:#fdfdfd"/><path d="M123.84,336.76l0-52.05c10.56-.62,17.75,4.67,23,17-6.13,6.11-7.48,13.7-7,22,.23,4.48,0,9-.06,13.47Z" style="fill:#e6e4e4"/><path d="M121.92,284.79l-4.09.86Z" style="fill:#e6e4e4"/><path d="M201.83,374.94c-2.69-.4-5.43-.43-7.85-1.32-1.6-.58-2.75-2.39-4.1-3.65,1.4-1.38,2.71-3.81,4.23-4a86.56,86.56,0,0,1,15.69,0c1.44.12,3.68,2.3,3.77,3.66s-2,3.3-3.53,3.86C207.46,374.49,204.56,374.53,201.83,374.94Z" style="fill:#fcfcb2"/><path d="M64.81,319.73a21.09,21.09,0,0,1-.86-4.22q-.08-42.75,0-85.49a22.87,22.87,0,0,1,.82-4.26Q64.79,272.76,64.81,319.73Z" style="fill:#fc6d44"/><path d="M428.87,354.26c-.21-.15-.43-.29-.65-.42q0-4.92.1-9.84a1.1,1.1,0,0,1,.88-.2l.69,9Z" style="fill:#d1d2d4"/><path d="M423.63,378l-1.54,1.83Z" style="fill:#a8a9ac"/><path d="M429.89,352.78l-.69-9c8.24-.34,16.48-.95,24.71-.8,1.95,0,3.86,2.63,5.79,4.05-1.89,1.53-3.68,4.19-5.71,4.4-5.9.6-11.9.14-17.85.29A45,45,0,0,0,429.89,352.78Z" style="fill:#c7f8fd"/><path d="M389.89,329.81c-.67-2.95-1.73-5.89-1.91-8.88-.32-5.29,0-10.62-.11-15.93-.13-6.27,3-10.86,7.79-14.18,1.39-1,4.11,0,6.22.07-.38,1.86-.11,4.45-1.24,5.44-3.91,3.41-5.12,7.43-4.79,12.42.3,4.63-.12,9.3.11,13.94s-1.52,6.93-6.12,7.08Z" style="fill:#c7f8fd"/><path d="M101.83,349.74c7.24,2.93,14,6.43,16.21,14.84.24,2.09.47,4.18.82,7.24h-51V350Z" style="fill:#fdfdfd"/></g></g></svg>