<svg xmlns="http://www.w3.org/2000/svg" viewBox="0 0 1000 823.92"><title>Asset 15</title><g id="Layer_2" data-name="Layer 2"><g id="Layer_1-2" data-name="Layer 1"><path d="M0,772.93c4.41-5.25,8-11.7,13.47-15.42a36.31,36.31,0,0,1,19-6.26c48.53-.46,97.07-.18,145.6-.14-3.67,5.62-8.77,8-15.55,8C126.87,759,91.26,759,55.66,759c-6.49,0-7.33.77-7.84,6.79l-27.31,1.81,0,2c7.43.75,14.85,1.87,22.3,2.19,20.24.87,40.5,1.5,60.76,2,17.29.47,34.59,1,51.88,1,53.62-.14,107.24-.56,160.85-.84,17.83-.09,35.66-.07,53.49,0a10.06,10.06,0,0,1,2.68.78l-.19,1.19h-5.37c-13,0-26,0-39,0-6.65,0-10.4,3.29-9.93,8.38.36,4,4.32,6.57,10.24,6.58,25.49,0,51,0,76.48.05a28.81,28.81,0,0,1,5.76,1c2.87.61,5.73,1.89,8.59,1.91,34.83.13,69.65.09,104.48.08,8,0,10.89-2.72,11.43-11,15,0,29.93,0,44.91,0,5.84,0,9.15-2.83,9.12-7.53s-3.32-7.39-9.23-7.43c-7-.05-14,0-21,0H543.33c-.67-4.52-1.2-8.2-1.76-12,6.4,0,13.22.13,20-.08,2.24-.06,5.1-.34,6.51-1.72,1.88-1.83,4-5.2,3.48-7.22-.64-2.37-3.78-4.52-6.33-5.78-1.81-.9-4.44-.17-6.7-.17l1.37-1.1c-1-3.13-1.22-6.82-3.13-9.19-1.42-1.78-4.92-2.46-7.56-2.63-29.38-1.9-58.76,1.69-88.34-2.48-21.71-3.06-44.23-.44-66.38-.35-5.35-15-10.77-30-16-45.09Q357.9,621.5,337.4,562.87l1.66-.37c1,0,2,.12,3,.12q95,0,190,0c1.32,0,2.64-.2,4-.31,1.32.12,2.64.34,4,.34q78.57,0,157.13,0c1.32,0,2.64-.19,4-.3H718l26.09,0H751c2,.11,4,.31,5.94.31q40.85,0,81.68,0c4.81,0,9.61-.19,14.41-.3h17c1.66.11,3.31.33,5,.33,18.63,0,37.27.16,55.91-.11,4-.06,8-1.66,12-2.55,7.26,5.22,13.52,11.07,15.27,20.52,1.62,8.7-.83,16-6.56,22.42-1.15,1.3-2.36,2.56-4.67,5,9.11,0,16.67.13,24.22,0a45,45,0,0,1,21.6,4.92c2.48,1.25,4.84,2.72,7.26,4.09v41c-8.52,7.16-18.3,10.14-29.44,10.06-30.65-.23-61.29-.08-91.93-.07h-5.87c10.49,5.45,18.1,11.94,20,22.54,1.9,10.34-1.56,19.47-10.68,27.47H1000v60H855.48a8.12,8.12,0,0,0,0,2c.41,1.26.88,2.5,1.4,3.73q5.93,14.07-3.23,26.27c-7.61,10.16-18.29,14-30.43,14q-122.25.14-244.5,0-93.5,0-187,0c-9.29,0-17.78-2.84-24.55-9.37a12.09,12.09,0,0,0-9.23-3.65q-161.51.12-323,.08c-8.58,0-16.83-1.8-23.25-7.42-4.62-4-7.86-9.66-11.72-14.58Zm609.26-121c-2,0-3.8,0-5.61,0q-26.74,0-53.49,0c-4.7,0-9.1,1.19-11.69,5.41-3.87,6.32,1.83,14.54,10,14.55q49.74.06,99.47,0c4.94,0,10-.8,14.12,3.24.77.75,2.51.73,3.79.73q73.23,0,146.46-.1c2.38,0,5.81-1.2,6.89-3,2-3.2,2.5-7.26,3.92-11.89h3.93q28.5,0,57,0c5,0,10.24-4.23,10.86-8.54.57-4-2.83-8.86-7.62-10.44a20.82,20.82,0,0,0-6.34-1c-15-.08-30,0-45-.06-1.4,0-2.8-.17-5.05-.32,4.59-5.85,2.78-10.64-2.07-15.7,8.09,0,15.17.12,22.24,0,4.46-.1,9-.09,13.33-1.11,6.52-1.54,9.49-7.7,6.52-13-2-3.58-5.2-5.94-9.7-5.8-2.67.08-5.35,0-8.43,0,4.41-11.7-.05-17.9-11.61-18h-97c-4.77,0-9.48.47-13.9-2.57-2-1.36-5.09-1.37-7.7-1.38q-69.23-.12-138.46,0a27.4,27.4,0,0,0-6.35.9c-4.52,1.1-7.59,4.22-7.59,8.69s2.54,8.36,7.47,9.37c3.79.78,7.68,1,12.39,1.63-5.33,6-3.17,11.12,2.11,16-1.73.19-2.38.33-3,.33-10,0-20-.1-30,.06-6.1.1-10.23,4-10.18,9.23,0,5.85,3.84,9.58,10.22,9.75q21.43.59,42.87.93c3.17,0,6.34-.48,9.47-.73C610.75,643.62,610.07,647.42,609.26,651.94Z" style="fill:#fee5b4"/><path d="M70.93,537.85q0-67.49.08-135c0-20,12.78-32.82,32.69-32.83q27.24,0,54.48,0c1.65,0,3.3.22,4.95.34.4.47.76,1.3,1.21,1.36,14.65,2,24.93,18.26,24.83,31.66-.39,49.91-.17,99.82-.12,149.73a40.41,40.41,0,0,0,.82,5.75c0,.68.09,1.35.14,2-.31,13.29-.85,26.57-.8,39.86,0,4.7-1.11,6.2-6,6.16-28.3-.24-56.6-.09-84.91-.13-9.15,0-18.3-.17-27.45-.26q0-28.05.08-56.09Z" style="fill:#86bffd"/><path d="M941.12,428l-14,17.75c1.64,0,3-.08,4.32,0,9.92.67,20,.6,29.71,2.25,13.37,2.26,18.07,12.32,12,24.43A56,56,0,0,1,964.23,485c-11.92,12.92-26.11,23-41.22,31.81a33.81,33.81,0,0,0-5.24-.84c-11.31-.08-22.62,0-33.94,0H865.06c0,.4,0,.79,0,1.18h57.27L888.47,535.4c-1.16.62-2.37,1.14-3.55,1.7l-3.87.66-1.11,0-5.57-.14h-6.71l-9.39,0h-3.51l-54.49,0h-1.55l-1.76.35-2.73-1.12c.06-1.28.13-2.56.19-3.83,9-4.58,17.87-9.34,27-13.68,8.89-4.25,18.22-7.71,28.25-6.12a12.32,12.32,0,0,0,11.44-3.95c2.43-2.55,4-6.38,4.79-9.9,1.06-4.5-1.42-8.18-4.43-11.6-7.78-8.84-7.27-19.42,1.29-24.5a33,33,0,0,1,11.13-4.13c11.1-1.88,14.89-5,17.47-15.69,1.49-6.19.54-7.21-5.64-6.44-18.84,2.35-37.7,4.52-56.5,7.1-3.5.48-6.8,2.53-10.19,3.85l0,0c.33-2,.66-4,1-6l0,0c.9-.35,2.44-1.18,2.59-1,2.89,3.92,6.53,1.68,9.9,1.31,6.56-.73,13.11-1.54,19.67-2.33,11.63-1.39,23.28-2.73,34.9-4.24,1.32-.17,3.68-1.61,3.59-2A51.91,51.91,0,0,0,887,422.65c-1.66-3.22-4.29-.93-6.5,0a33,33,0,0,0-4.59,1.89c-11.33,6.78-21.82,5.74-32.45-2.11-5.21-3.85-11.17-6.67-16.5-10.59-5.73-4.22-12.57-6.94-19-10.23a7.32,7.32,0,0,0-2.57-.23c.63,2.73,1.17,5,1.71,7.38l-1.13.46c-1.75-6.74-4.84-12.41-11.53-15.21V356c8.61,2.32,13,9.27,17.54,16,2,3,4,5.93,6,8.89a19.71,19.71,0,0,0,.5,3.88c2.4,7.11,4.9,14.18,7.25,20.93,1.32-.11,3,.14,4.4-.42,3-1.22,5.93-2.85,8.88-4.31h0c.79.45,1.62,1.36,2.36,1.29,7-.67,14.07-1.43,21.08-2.36,1.1-.15,2.09-1.23,3.12-1.87l20.81-17.44-12-6.47c-3.66-1.75-6.11-6.85-11.39-4.14l0,0c.86-2.22.38-3.79-2.07-4.56-3-.93-6.26-1.41-8.79-3-6.5-4.2-12.65-8.92-18.93-13.43-3.09-3.86-6.46-7.54-9.2-11.63a14.71,14.71,0,0,1-.84-15.6c5.34-10.57,15.24-12.54,23.4-4,4.51,4.72,7.7,10.7,11.49,16.11,3.43,9.52,6.87,19,10,27.82L874,359c2,0,4.16.44,6.07,0,10.19-2.55,20.38-4.89,31-3.17a5.53,5.53,0,0,1,2,.3c6.69,4,12.77,1.23,19.2-1.14a128.47,128.47,0,0,1,20.13-5.55c15.48-3,24.24,6.13,21.09,21.54-3.29,16-12.1,29.39-21.13,42.58-3.45,5-7.46,9.71-11.22,14.55l-2.11-.11-5.33.64L934,430l5-2.11ZM911,437.93l12.43-3.53-.7-1.86L911,437.93l-1.06.75Zm-4.08,43.12,1.65.49L917.18,457l-1.64-.56Q911.23,468.72,906.92,481.05Zm21.69-50,.36.81,2.42-1.09L931,430Zm-2.31,1.48c0-.11,0-.26-.08-.31a1.27,1.27,0,0,0-.37-.08l.1.52Zm-19,6.75-.35-.13,0,.51a1,1,0,0,0,.36-.08C907.3,439.56,907.27,439.4,907.28,439.3Z" style="fill:#9ec303"/><path d="M794.42,533c-.06,1.27-.13,2.55-.19,3.83-.09.71-.18,1.42-.26,2.13a24.81,24.81,0,0,0-4.81-1Q662.59,538,536,538L331,538q2.55-10.19,5.12-20.38l5.06-1.33c.91.5,1.8,1.4,2.72,1.43,4.38.12,8.76,0,13.14,0l1.87,0h1.16l30.85-.11,1.16,0,31.87,0,55.06,0,26.8.06,2.17.37,39.29-.11,8.5,0,14.31,0,1-.53h2.83l85.15.15c12.15.08,24.3.24,36.45.23q37.2,0,74.41-.22a28.18,28.18,0,0,0,1.05-5.45q.09-98.86.06-197.73c0-18.8.1-37.61.16-56.41,5.32.28,3.58-4.38,4.48-6.86,1.72-4.75,3-5.47,6.74-2.13,2.38,2.12,4.63,2.79,8.29.53L784,245.07l10-4.13q.09,54.76.19,109.55c0,1.82.15,3.64.23,5.46q0,19,0,38,0,33.47,0,66.92c0,2.34,0,4.69,0,7Z" style="fill:#5085dd"/><path d="M259.92,108.21h7.14c.15.37.29.73.44,1.09l.44-1.09,30.13,0c2.17,2.13,5.46,3.8,3.73,7.7-1.44,3.23-3.54,6.19-4.67,9.51-2.3,6.81-4.15,13.78-6.19,20.68-5.63,0-11.27-.15-16.89.16-1.35.07-2.62,1.7-3.92,2.62,1.3,1,2.5,2.59,3.93,2.82,2.91.46,5.94.18,8.92.21,1.95,5,.38,9.66-1.15,14.35l-1.68-.06c-1-.73-2-1.77-3.18-2-.42-.1-1.26,1.66-1.91,2.57l-62.48.19c-1.33,0-2.79-.28-4,.18a4.43,4.43,0,0,0-2.3,2.59c-.14.44,1.31,1.76,2.23,2.05a14.12,14.12,0,0,0,4,.17L280,172l2.35,3c-1.35,1-2.72,2-4,3.05-2.13,1.7-4.27,3.39-6.31,5.2-.52.46-.64,1.37-.94,2.07L270,189l.29.94.8.74,1,.21,2.91,0c-.81,1.25-1.61,2.51-2.45,3.75s-2.12,2.28-2.44,3.59c-1.51,6.19-2.53,12.51-4.2,18.65-.61,2.25-2.52,4.14-3.84,6.19l-9,.69-14,.2-2-.1-3,0-86.95-.06c.51-1.8.93-3.63,1.56-5.37.7-1.9,1.6-3.72,2.41-5.57H155c1.5,3.24,2.87,3,4.13-.15l12-4.74,6.06-5.27c1.67-.43,3.82-.34,4.93-1.37,3.24-3,6.64-6.11,9-9.81,8.52-13.48,9.8-28,3.91-42.73-3.71-9.25-9.34-17.45-19-21.84h0l-1-.91-23-6.09c1.75-.67,3.54-1.29,5.26-2a6,6,0,0,0,2.5-1.69c.21-.31-.82-1.44-1.23-2.23-.88-1.71-1.73-3.44-2.58-5.17q47.33-.42,94.66-.82c2.16,0,4.31.15,6.47.23l1.42,1.61ZM233,151.84v0c7.82,0,15.64.14,23.44-.12,1.42-.05,2.79-1.72,4.17-2.64-1.1-.73-2.19-2.07-3.31-2.1-15.6-.4-31.2-.7-46.81-.74-1.46,0-2.92,1.87-4.38,2.87,1.48.92,2.94,2.58,4.45,2.64C218,152,225.5,151.84,233,151.84Zm.54,39v0c7.82,0,15.63.1,23.44-.11,1.28,0,2.53-1.45,3.79-2.22-1.17-.87-2.32-2.47-3.51-2.5-15.59-.43-31.2-.72-46.8-.77-1.45,0-2.91,1.9-4.36,2.91,1.5.9,3,2.53,4.5,2.59C218.22,191,225.87,190.83,233.52,190.83Z" style="fill:#a7d4fc"/><path d="M183.11,712.88c-38,0-75.94.12-113.91-.09a38.55,38.55,0,0,1-27-10.81c-12.28-11.38-10.83-32.18,4.06-42.23a37.67,37.67,0,0,1,21.92-6.88c31.31.13,62.62,0,93.93,0h6.48c-4.61-3.39-8.51-5.56-11.51-8.62-6.79-6.91-9.63-15.27-7.39-25a27.5,27.5,0,0,0,.34-4c10.09-.08,20.17-.2,30.26-.15,1.08,0,2.17,1,3.25,1.6-.1,2.15-.28,4.3-.28,6.45Q183.16,668.06,183.11,712.88Z" style="fill:#fee5b4"/><path d="M271.07,185.33c.3-.71.42-1.62.94-2.08,2-1.81,4.18-3.5,6.31-5.2,1.32-1.06,2.69-2,4-3.05L280,172l4.93-1.77-3.11-4c1.53-4.69,3.1-9.38,1.15-14.35,16.12,0,32.24,0,48.36-.16,1.51,0,3-1.34,4.5-2.06l-2.91-3-5.11-.56-36.88,0c2-6.91,3.89-13.88,6.19-20.69,1.13-3.32,3.23-6.28,4.67-9.51,1.73-3.9-1.56-5.57-3.73-7.7,8.06.23,16.15.08,24.17.78,12.58,1.09,23.3,6.72,31.88,15.77,7.07,7.45,13,15.89,15.89,26q.53,11.49,1,23c-.65,2.78-1.31,5.55-2,8.32L362.88,198c-1,2.65-1.93,5.3-2.9,7.94q-.94,5.91-1.9,11.82c0,1.68-.07,3.36-.1,5a56.6,56.6,0,0,0-.87,7.29c0,6.28,1,12.82-6.93,15.22.86,1.68,1.37,2.66,1.87,3.65l-15-10c-3.55-2.33-6.87-5.13-10.67-6.91-15.69-7.34-32.4-9-49.48-8.09l-14.9-.89c1.32-2.06,3.23-4,3.84-6.2,1.67-6.14,2.69-12.46,4.2-18.65.32-1.31,1.62-2.38,2.44-3.59s1.64-2.5,2.45-3.75c9.91,0,19.82,0,29.73-.07,3.1,0,5.93-.43,4.26-4.78l-1.21-.94Zm45.58-18.47c-5.48,0-11-.14-16.43.1-1.33.06-2.61,1.35-3.91,2.07,1.31.95,2.6,2.69,3.93,2.71,10.79.22,21.59.19,32.37,0,1.11,0,2.18-1.79,3.27-2.74-1.1-.7-2.17-1.95-3.29-2C327.28,166.76,322,166.88,316.65,166.86Z" style="fill:#93c7fd"/><path d="M371.05,173.72q-.51-11.49-1-23h1.86l1.21.08,328.9.05h8l15.92,23-76.89.06H592l-27.08,0H533.05q-54.84-.06-109.69-.1c-15.79,0-31.57.1-47.36.15Z" style="fill:#468df2"/><path d="M183.55,616.76c-1.08-.55-2.17-1.58-3.25-1.59-10.09,0-20.17.07-30.26.15-28.91.09-57.83.24-86.74.16a10.12,10.12,0,0,1-6.48-2.65c-.73-.72.69-3.63,1.09-5.56a26.79,26.79,0,0,0,.93-5.2c.12-13-.19-26,.27-38.91.35-9.92,3.58-18.89,11.82-25.31q0,6.31,0,12.64c-1.33,3.3-3.55,6.54-3.81,9.94-.7,9.2-.61,18.47-.74,27.72-.08,6.07,0,12.14,0,18.43h4.48c9.15.09,18.3.25,27.45.26,28.31,0,56.61-.11,84.91.13,4.91,0,6-1.46,6-6.16-.05-13.29.49-26.57.8-39.86.73-1.45,1.59-2.85,2.19-4.36,4.72-11.87,15.45-19.56,28-19.6q41.43-.15,82.86,0a31.43,31.43,0,0,1,29.57,21.23c.54,1.56,1.33,3,2,4.54.11,1.48.31,3,.31,4.44q0,39,0,78.08a53.23,53.23,0,0,0,.87,6.82,30.31,30.31,0,0,0-.92,5.11c-.12,13.35-.14,26.71-.2,40.06.12.57.23,1.14.35,1.71l-.05-.14V735q-1,6-2,12-3.12,6-6.23,12a37.8,37.8,0,0,0-4.33,3.16,23.46,23.46,0,0,1-16.67,6.77q-125.84.11-251.67,0c-1.73,0-3.47-1.25-5.21-1.92,2.63-.67,5.26-1.92,7.89-1.93q123.3-.16,246.6,0A22.25,22.25,0,0,0,326,741.91l-.93-4.23c.54-2.18,1.52-4.35,1.54-6.54q.19-24.72,0-49.44c0-5.3-.4-10.59-.62-15.89a36.59,36.59,0,0,0,.66-4.73c.14-9.57.18-19.13.26-28.7V615h-8.53l-7.26.09h-33c-11,0-22-.06-33,.06-18.12.21-36.24.54-54.36.82C188.41,616.46,185.55,612.94,183.55,616.76ZM326,588.06c0-8.68.49-17.39,0-26-.75-12.5-10.29-21-22.83-21q-40.17,0-80.35,0a31,31,0,0,0-5.25.9c-3,.74-6.5.74-8.91,2.36C202,548.81,198,555.26,198,563.55c-.1,12.65.18,25.3-.16,37.94-.12,4.59,1.45,5.49,5.69,5.47,39.12-.15,78.24-.09,117.35-.1,1.61,0,3.21-.14,5.16-.23Z" style="fill:#7d8daa"/><path d="M505.86,37.23A18.57,18.57,0,0,0,524.11,21c1.09-7.69,3.11-9.89,10.63-11.52,10-2.16,14.68.4,19.31,9.68,1.1,2.2,3.51,4,5.7,5.34,6,3.79,12.16,3.45,18.76.62,6.06-2.6,8.91-1.22,12.83,4,.6.79,1.06,1.69,1.67,2.48,5.44,7,5.44,10.92,0,18.2-4.07,5.43-2,17.32,3.27,21.66,3,2.48,5.51,5.7,8,8.77.55.67.38,2.17.14,3.2a49.48,49.48,0,0,1-1.81,5.65c-3.32,9.28-8.42,12.07-18.26,10.5-1.7-.28-3.79.55-5.4,1.43-1.86,1-3.35,2.69-5.06,4-2.84,2.17-5.47,4.39-4.92,8.55a6.52,6.52,0,0,1-.66,2.38c-3.18,10.54-9.68,15-20.3,12-3.57-1-6.71-5.63-8.78-9.31C536,112.81,525,107.84,519,110.25a47.19,47.19,0,0,1-6.15,1.94c-8.74,2.14-12.49-4.13-16.3-10-3.25-5-.73-9.59,1.91-13.81a18.64,18.64,0,0,0-3.61-24.1c-2.49-2.13-4.43-4.92-6.58-7.44-.42-.49-1.05-1.28-.9-1.69,1.82-5.13,3.16-10.6,6-15.12,1.22-2,5.58-2,8.57-2.76A17.6,17.6,0,0,1,505.86,37.23Zm40.48-2c-18.73-2.15-34.37,15.67-34.28,33.5.09,18,15.33,33.19,33.21,33.58s34.12-16,34.29-33.5S561.42,32.75,546.34,35.22Z" style="fill:#dd13e2"/><path d="M175.11,352.22c-.9-2.58-2-5.12-2.66-7.76-1.7-6.92-4.68-13.92-4.52-20.83.46-19.73,8.94-35.87,25.74-46.74,8.43-5.46,17.78-5.31,26.61-.48,6.38,3.5,12.41,7.65,18.59,11.5,4.12,3.49,8.09,7.27,14,7.2,3.69,2.72,7.52,5.27,11,8.27.8.69,1,3.5.26,4.31-3.48,3.95-7.36,7.55-11.1,11.28l-10.23.15c-9-1.13-14.5,2.84-16.92,11.6a46.93,46.93,0,0,1-4.64,10.89c-3.33,5.7-3.52,5.56,2.33,9.11A21.44,21.44,0,0,1,226.2,353c-3,5.08-5.74,10.39-9.18,15.17-3,4.1-7.3,4.48-11.44,1.61-3.38-2.34-6.44-5.15-9.64-7.75-2.39-5.49-8-3.23-11.92-4.9Zm33.51-1.08c6.85-3,12.12-10.42,11.87-16.22-.06-1.42-1-3.67-2-4-1.39-.42-4,.12-4.7,1.17a50.58,50.58,0,0,0-5.68,11.34C207.43,345.62,208.39,348.34,208.62,351.14Z" style="fill:#252545"/><path d="M189.87,558.92a40.41,40.41,0,0,1-.82-5.75c-.05-49.91-.27-99.82.12-149.73.1-13.4-10.18-29.62-24.83-31.66-.45-.06-.81-.89-1.21-1.36l7.62-.47,18.38.51,2.93.43a9.09,9.09,0,0,0,.91-.15c16.12,5.23,23.72,14.26,24.2,28.73v1q0,16.29,0,32.6.14,9.42.26,18.85l.06,53.51-.36,26.39C201.84,534.56,193.13,543.22,189.87,558.92Z" style="fill:#66a7fd"/><path d="M151,212.85c-.81,1.85-1.71,3.67-2.41,5.57-.63,1.74-1.05,3.57-1.56,5.37-4-.21-8,0-11.83-.73-6.13-1.08-12.16-2.72-18.23-4.12C89.27,205,75.4,174.08,87,144.91c8.59-21.52,24.84-33.56,47.56-36.49,7-.9,14.22.2,21.35.38.85,1.73,1.7,3.46,2.58,5.17.41.79,1.44,1.92,1.23,2.23a6,6,0,0,1-2.5,1.69c-1.72.76-3.51,1.38-5.26,2l-3,0-.78-1.58L147,120a9.09,9.09,0,0,1-2.21.9c-17.43,2.3-33.29,17.08-37.52,34.74-4.12,17.26,3.21,38.23,17.83,47.6,1.36.87,3.57.44,5.38.61,2.14,3.6,4.76,6.49,9.44,6.26Z" style="fill:#b6defc"/><path d="M793.85,138.83c-.57,6.8-4.24,11.33-10.33,14.08a36.52,36.52,0,0,1-5.81.91,16.91,16.91,0,0,0-13.38,6.36c-2.68,3.13-5.57,6.08-8.2,9.24a25,25,0,0,0-2.3,4.2l-4.76,4.28c-2.4,3.76-4.94,7.45-7.15,11.33-1,1.72-1.31,3.81-1.94,5.74L732.23,206l-12.61,18.31,4.13,1.53c-6.46-.42-7.94,4.77-10.6,8.58-2,2.93-4.33,5.69-6.52,8.52l-9.69-5.4,3.71-9.65-2.27-1.54c2-1.41,4.33-2.25,5.32-3.9,2.81-4.66,5.07-9.65,7.55-14.51.22-.39.45-.77.68-1.16,2.56-5.66,6.93-10.63,6.31-17.52-.11-1.21,1.24-2.59,2-3.83,2.23-3.54,4.52-7,6.79-10.56l10-18,5.77-5.86L766,125C778.21,123.71,786.74,129.83,793.85,138.83Z" style="fill:#637ca8"/><path d="M753.83,173.62a25,25,0,0,1,2.3-4.2c2.63-3.16,5.52-6.11,8.2-9.24a16.91,16.91,0,0,1,13.38-6.36,36.52,36.52,0,0,0,5.81-.91c8.19,5.57,11.05,13.27,10.82,23.12-.5,21.63-.26,43.27-.32,64.91l-10,4.13,6.71,4.39c-3.66,2.26-5.91,1.59-8.29-.53-3.75-3.34-5-2.62-6.74,2.13-.9,2.48.84,7.14-4.48,6.86v-16c.1-.09.31-.21.29-.27a3.36,3.36,0,0,0-.28-.68l-.15-4.58c1.73-1.5,3.78-2.76,5.08-4.56,1-1.35,1.88-3.85,1.27-5-1.67-3.27-4.15-6.13-6.32-9.15-.06-.79-.13-1.57-.2-2.36l-.18-9.15c.08-9.48.07-19,.3-28.46.08-3.24-1.36-3.91-4.2-3.85C762.49,173.91,758.16,173.7,753.83,173.62Z" style="fill:#468df2"/><path d="M863,369.94c5.28-2.71,7.73,2.39,11.39,4.14L865.55,398c-1,.64-2,1.72-3.12,1.87-7,.93-14,1.69-21.08,2.36-.74.07-1.57-.84-2.36-1.29.34-.67.67-1.34,1-2l8-13c.33-.34.66-.67,1-1q3.5-3.51,7-7l1.83-2.05-.84-.47c-.34.83-.67,1.67-1,2.5l-7,7-1,1c-1.61.63-3.13.2-4.94,1.91-3.63,3.44-2.66,7.27-3,11.1-.34.67-.67,1.34-1,2-3,1.46-5.84,3.09-8.88,4.31-1.38.56-3.08.31-4.4.42-2.35-6.75-4.85-13.82-7.25-20.93a19.71,19.71,0,0,1-.5-3.88c5.73-4.63,6.64-11.64,9-18,1.8-4.77,4.11-9.35,6.2-14,6.28,4.51,12.43,9.23,18.93,13.43,2.53,1.63,5.82,2.11,8.79,3,2.45.77,2.93,2.34,2.07,4.56l-.76,1.07.38.26Z" style="fill:#85a401"/><path d="M740,27.82c-3.44,1.62-6.62,1.57-8.26-2.34s-1.83-8.59,2.49-10c10.2-3.26,18.13-13,30.28-10.71.82.15,2-.73,2.77-1.45,4.57-4.52,8.69-4.45,13.26.11s5,10.28,4.16,16.25c-.4,2.8-1.16,5.55-1.48,8.35-.5,4.49.39,8.31,4.29,11.46,4.53,3.67,5.09,9.85,1.25,13.71-3.57,3.59-5.46,7.33-4.86,12.43.15,1.28-.91,2.71-1.41,4.07l-5.35,1.06c-6.61-3.21-7-4.1-5.48-14,.12-1,.24-2,.35-3,.15-3.72-.49-6.95-4.87-7.87-5.42-1.24-3.86-5.58-4-9.11-.21-5.74-1.15-6.74-6.59-6.44-.53-1.48-.71-3.31-1.69-4.5-1.8-2.18-3.79-4.9-6.22-5.61-1.45-.43-4,2.44-5.86,4A23,23,0,0,0,740,27.82Z" style="fill:#edc447"/><path d="M874.37,537.6l5.57.14,1.11,0,3.87-.66,44.7.27c1.82,0,3.65,0,5.46.2,5.69.59,10.13,3.15,12.21,8.71s-.46,9.92-4.41,13.69c-4,.89-8,2.49-12,2.55-18.64.27-37.28.13-55.91.11-1.65,0-3.3-.22-5-.33L880.09,560c-4.35-3.13-5.57-5.93-.72-9.62,1.38-1.05.63-4.89.86-7.45-1.88-.12-3.76-.18-5.63-.38-3-.32-6-.73-9.77-1.19l8.12-3.25Z" style="fill:#3059ac"/><path d="M326,741.91A22.25,22.25,0,0,1,303.41,765q-123.3-.27-246.6,0c-2.63,0-5.26,1.26-7.89,1.93l-1.1-1.12c.51-6,1.35-6.79,7.84-6.79,35.6,0,71.21-.09,106.81.06,6.78,0,11.88-2.37,15.55-8,1.36-2.05,2.72-4.11,4.09-6.16l-3.68,14.19,5.35-1.25c1.54.38,3.08,1.09,4.61,1.09q58.68.09,117.36,0a17.67,17.67,0,0,0,15.2-8A99.93,99.93,0,0,0,326,741.91Z" style="fill:#a1aec4"/><path d="M924.59,261.48c5.39-5.82,10.23-12.31,16.3-17.3,8.4-6.92,16.66-5.7,22.07,1.92,6.76,9.53,5.48,19.59-3.46,25.72-9.16,6.27-19.76,8.41-30.48,10.05-3.6.56-7.28.65-10.88,1.25-1.45.24-2.78,1.28-4.16,1.95l-1.17,0c.08-1,.16-2.09.25-3.13L913,282c.44-.36,1.14-.63,1.29-1.09q8.28-24.76,16.44-49.58a9.6,9.6,0,0,0,.17-2.47c.34-.67.67-1.33,1-2l5.91-26.78,1,.14q-1.5,9.81-3,19.6l.12.08-1,3.58c-.63,1.76-1.27,3.52-1.9,5.27q-4.71,15.93-9.41,31.85c-.18.74-.37,1.47-.55,2.21l.51.17Z" style="fill:#9ec303"/><path d="M875,352.16c1.62-1.77,3.56-3.34,4.79-5.35,4.23-6.89,8.2-13.94,12.28-20.92l0,0c3.44,1.24,4.65-1.27,6-3.57,0-.47,0-.94.07-1.41L898,321c2.17-1.61,4.41-3.13,6.5-4.83,9-7.32,18.6-13.48,30.26-15.56,9.56-1.7,16.08,2.38,18.16,11.13,2.52,10.56-1.22,18.11-10.85,20.79-11.9,3.32-23.76,1.27-35.54-1.09-4.38-.88-8.69-2.06-13.13-3.12-4.82,7.48-9.52,14.9-14.39,22.22-1,1.58-2.7,2.75-4.07,4.11C875,353.84,875,353,875,352.16Z" style="fill:#9ec303"/><path d="M737.09,156.88l-10,18-1.15-1.08-15.92-23c-1.28-2.11-2.5-4.26-3.83-6.33-4.51-7-1.67-13.31,6.64-14.27,10.55-1.23,21.12-2.21,31.67-3.33,2.31-.24,4.6-.61,6.9-.92l5.59-.94,9-.11L742.87,151l-9.37-.86Z" style="fill:#506286"/><path d="M913.06,281.9c-.64-.12-1.42,0-1.88-.38-12.65-9.62-24.71-19.85-32.5-34-5.61-10.23-3.61-19,5.08-24.32,6.8-4.13,13.18-3.17,18.09,3.19,7.87,10.18,10.07,22.34,11,34.7.55,6.94.09,14,.08,20.95Z" style="fill:#9ec303"/><path d="M932.31,183.94c-2.72-10.59-3.83-21.31-2.13-32.16,1.65-10.52,6.49-15.5,14.07-14.9,9.83.79,17.68,8.89,17.76,18.31.06,8.16-3.36,15.2-7.3,22-2,3.43-4.55,6.54-6.85,9.79Z" style="fill:#9ec303"/><path d="M942.91,214.05c7.24-8.68,15.61-15.88,26.59-19.31,8.66-2.7,15,0,18.26,7.36,4.37,9.85,2.53,18.13-5.44,22.68-10.13,5.78-21.29,5.72-32.48,5.13Z" style="fill:#9ec303"/><path d="M766,125l-9,.11c0-3.44-.2-6.91.16-10.32.15-1.4,1.54-2.68,2.36-4,3.43,1.42,7,2.55,8.25-2.48,1.72-7,3-14.19,4.46-21.29,1-1.37,2.38-2.63,2.76-4.14,1-3.95,1.48-8,2.17-12l5.35-1.06c2.8,14.48,5.84,28.91,8.33,43.44,1.46,8.48,2.07,17.1,3.06,25.66C786.74,129.83,778.21,123.71,766,125Z" style="fill:#468df2"/><path d="M183.78,757.89l-5.35,1.25L182.11,745q.49-16,1-32.07.07-44.83.16-89.66c0-2.15.18-4.3.28-6.45,2-3.83,4.86-.31,7.25-.85,0,4.65.1,9.29.11,13.94q.1,41.57.18,83.14c-.05,2-.11,4-.16,5.94-.23,10.69,1.18,21.53-2.89,31.87Z" style="fill:#637ca8"/><path d="M892.05,325.89c-11.81-5.18-22.63-11.9-31.67-21.16-8.18-8.39-9.21-16.38-3.48-23.47,5-6.21,11.34-7,17.26-1.65a41.1,41.1,0,0,1,7.42,9.26,78.12,78.12,0,0,1,10.68,32.36c-.11.1-.21.21-.31.32l.36-.1c.11.89.21,1.78.31,2.66l-.6,1.8Z" style="fill:#9ec303"/><path d="M919,222.15a65,65,0,0,1-21.79-19.3c-5.69-8.19-4.78-16,2.13-21.7,4.92-4.05,10.44-4.52,14.73.17a54.61,54.61,0,0,1,10,15.17c2.74,6.48,3.87,13.63,5.69,20.48C925,216.32,922.12,219.45,919,222.15Z" style="fill:#9ec303"/><path d="M252.91,295.11c-5.95.07-9.92-3.71-14-7.2q-.08-30-.14-59.93l.27-4,14-.2Z" style="fill:#2166cb"/><path d="M772.18,87c-1.46,7.1-2.74,14.25-4.46,21.29-1.22,5-4.82,3.9-8.25,2.48l-7.4-3.64L735,100c-1-3.6-3.07-1.82-5-1l-5-2.3-2.05-2-2-5.91c0-1-.06-2-.08-3,.58-.26,1.45-.9,1.69-.72a22.81,22.81,0,0,1,2.58,2.62c.76.21,2,.82,2.19.56a24.84,24.84,0,0,0,2.4-3.58l8.41,7.77,7.12-13.09c4.74,1.37,8,3.76,6.57,9.44l-5.07,7.43,5,1.45,5.14,2.33c2.33,1.73,3.08.76,3.25-1.74.3-4.42.75-8.83,1.14-13.24Z" style="fill:#f7c6ab"/><path d="M740,27.82a23,23,0,0,1,2.79-3.45c1.87-1.59,4.41-4.46,5.86-4,2.43.71,4.42,3.43,6.22,5.61,1,1.19,1.16,3,1.69,4.5,5.44-.3,6.38.7,6.59,6.44.13,3.53-1.43,7.87,4,9.11.09,2.32.17,4.63.26,7L759,57.89l-3.89,1L757,54.45c-.26-1.58-.53-3.17-.78-4.71-6.71.48-8.36-.9-12.09-10.2C742.59,35.69,741.35,31.73,740,27.82Z" style="fill:#f7c6ab"/><path d="M723,94.8l2.05,2c-1.76.08-3.64-.17-5.26.36-1.12.37-1.88,1.83-2.81,2.8l-11-7c.41-3.55.83-7.1,1.39-11.87l-5.27,3C699.83,72,699.83,72,712.24,72c2.64,0,5.33.33,7.91-.07,5.69-.89,9.13,1.11,10.17,6.88L728,82l-3.28-3.67c-.51,2.2-.79,3.39-1.13,4.83-1.29-4.67-4.81-5.55-12.2-3.34,1,6.1,1,6.1,9.5,6.11l.09,3-6.5.34,2.68,5.57Zm3.33-18.44v-1H713.92v1Z" style="fill:#dae8fd"/><path d="M757,54.45l-1.87,4.41,3.89-1a13.63,13.63,0,0,1,.32,3.27c-.7,4.67-2,9.3-2.22,14-.39,8.31-.14,16.64-.16,25l-5.14-2.33c0-3,0-5.92,0-8.88,1.44-5.68-1.83-8.07-6.57-9.44-.66-1.28-2.22-3-1.83-3.77,3.23-6.47,6.75-12.8,10.38-19.06C754.41,55.63,755.91,55.16,757,54.45Z" style="fill:#5085dd"/><path d="M193,370.74a9.09,9.09,0,0,1-.91.15l-2.93-.43L170.75,370q2.17-8.86,4.36-17.73L184,357.1c2.3,4.47,6.22,6.32,11,6.8C194.32,366.18,193.65,368.46,193,370.74Z" style="fill:#f7c6ab"/><path d="M875,352.16c0,.84,0,1.68,0,2.51l-1,4.3-5.92,2.61c-3.17-8.78-6.61-18.3-10-27.82C868.21,335.73,872.08,343.5,875,352.16Z" style="fill:#85a401"/><path d="M730,99.05c1.88-.85,3.94-2.63,5,1,.65,2.55,1.69,5.07,1.81,7.64.08,1.72-1.17,3.49-1.83,5.24-.79-1-1.52-2.63-2.39-2.71-3.8-.32-7.65-.17-11.48-.19L714,106.58c.87-2.07,4.77-1.49,4.2-4.67C722.1,100.76,726.92,103.44,730,99.05Z" style="fill:#dae8fd"/><path d="M942.91,214.05l6.93,15.86L933,228.75l1.9-5.28,1-3.58-.12-.08a22,22,0,0,0,3.47-2A47.69,47.69,0,0,0,942.91,214.05Z" style="fill:#edc447"/><path d="M892,325.91l.6-1.8c1.4-1.93,3.1-3.7,4.14-5.81,5.44-11,10.72-22.17,16-33.27l1.17,0q-6.53,14.63-13.06,29.24c-1,2.22-1.93,4.47-2.89,6.71l.05-.09c0,.47-.05.94-.07,1.41C896.67,324.64,895.46,327.15,892,325.91Z" style="fill:#edc447"/><path d="M752.07,107.09l7.4,3.64c-.82,1.34-2.21,2.62-2.36,4-.36,3.41-.14,6.88-.16,10.32l-5.59.94Q751.72,116.55,752.07,107.09Z" style="fill:#5085dd"/><path d="M932.31,183.94l15.55,3L945,191l-11.16-.91Z" style="fill:#edc447"/><path d="M728,82l2.33-3.21,6.86-11,1.18.63-8.61,16.39a24.84,24.84,0,0,1-2.4,3.58c-.24.26-1.43-.35-2.19-.56.29-1.87.57-3.75.89-5.83Z" style="fill:#506286"/><path d="M922.34,517.11H865.07c0-.39,0-.78,0-1.18h18.77c11.32,0,22.63,0,33.94,0a33.81,33.81,0,0,1,5.24.84A.6.6,0,0,1,922.34,517.11Z" style="fill:#85a401"/><path d="M919,222.15c3.12-2.7,6-5.83,10.75-5.18.34,1.94.67,3.87,1,5.81-1.31,0-2.74.39-3.89,0-3.15-1.17-2.66,1.15-3,2.79Z" style="fill:#edc447"/><path d="M702.17,84l5.27-3c-.56,4.77-1,8.32-1.39,11.87-1.54,2.63-3.28,2.42-3.83-.34S702.15,86.88,702.17,84Z" style="fill:#f7c6ab"/><path d="M933.88,190.07,945,191a9.58,9.58,0,0,1-1.43,2c-2,1.74-4.18,3.37-6.29,5Q935.61,194.06,933.88,190.07Z" style="fill:#dfca9f"/><path d="M730,99.05c-3.11,4.39-7.93,1.71-11.83,2.86l-1.2-2c.93-1,1.69-2.43,2.81-2.8,1.62-.53,3.5-.28,5.26-.36Z" style="fill:#b6defc"/><path d="M721.09,110c3.83,0,7.68-.13,11.48.19.87.08,1.6,1.76,2.39,2.71a88.15,88.15,0,0,1-11,.66C723,113.5,722.05,111.24,721.09,110Z" style="fill:#b6defc"/><path d="M923.89,225.53c.31-1.64-.18-4,3-2.79,1.15.43,2.58,0,3.89,0,.37,1.35.75,2.71,1.12,4.07-.33.67-.66,1.33-1,2Z" style="fill:#dfca9f"/><path d="M259.92,108.21l-1.42,1.61-1.42-1.61Z" style="fill:#93c7fd"/><path d="M267.94,108.2l-.44,1.09c-.15-.36-.29-.72-.44-1.09A1.33,1.33,0,0,1,267.94,108.2Z" style="fill:#93c7fd"/><path d="M892.31,321.45l-.36.1c.1-.11.2-.22.31-.32Z" style="fill:#edc447"/><path d="M373.08,150.81l-1.21-.08Z" style="fill:#93c7fd"/><path d="M609.26,651.94c.81-4.52,1.49-8.32,2.29-12.81-3.13.25-6.3.78-9.47.73q-21.44-.32-42.87-.93c-6.38-.17-10.17-3.9-10.22-9.75,0-5.19,4.08-9.13,10.18-9.23,10-.16,20,0,30-.06.66,0,1.31-.14,3-.33-5.28-4.88-7.44-10-2.11-16-4.71-.6-8.6-.85-12.39-1.63-4.93-1-7.48-4.82-7.47-9.37s3.07-7.59,7.59-8.69a27.4,27.4,0,0,1,6.35-.9q69.24-.08,138.46,0c2.61,0,5.74,0,7.7,1.38,4.42,3,9.13,2.56,13.9,2.57h97c11.56.08,16,6.28,11.61,18,3.08,0,5.76.06,8.43,0,4.5-.14,7.71,2.22,9.7,5.8,3,5.34,0,11.5-6.52,13-4.29,1-8.87,1-13.33,1.11-7.07.17-14.15,0-22.24,0,4.85,5.06,6.66,9.85,2.07,15.7,2.25.15,3.65.32,5.05.32,15,0,30,0,45,.06a20.82,20.82,0,0,1,6.34,1c4.79,1.58,8.19,6.46,7.62,10.44-.62,4.31-5.86,8.53-10.86,8.54q-28.5.06-57,0h-3.93c-1.42,4.63-2,8.69-3.92,11.89-1.08,1.78-4.51,3-6.89,3q-73.23.26-146.46.1c-1.28,0-3,0-3.79-.73-4.11-4-9.18-3.24-14.12-3.24q-49.74,0-99.47,0c-8.19,0-13.89-8.23-10-14.55,2.59-4.22,7-5.4,11.69-5.41q26.75,0,53.49,0C605.46,651.93,607.27,651.94,609.26,651.94Z" style="fill:#dfca9f"/><path d="M47.82,765.83l1.1,1.12c1.74.67,3.48,1.92,5.21,1.92q125.84.14,251.67,0a23.46,23.46,0,0,0,16.67-6.77A37.8,37.8,0,0,1,326.8,759c1.7,1,3.29,2.33,5.11,2.85a109.67,109.67,0,0,0,46,2.69c6.44-1,12.39-.19,18.61,0a324.16,324.16,0,0,0,35.27-.81c6.76-.6,8.08-5.8,3-10.45-3-2.69-6.9-5.29-10.71-5.87A77.2,77.2,0,0,1,397,738l-.06-3.14-2.43-9.62c22.15-.09,44.67-2.71,66.38.35,29.58,4.17,59,.58,88.34,2.48,2.64.17,6.14.85,7.56,2.63,1.91,2.37,2.17,6.06,3.13,9.19l-1.37,1.1c2.26,0,4.89-.73,6.7.17,2.55,1.26,5.69,3.41,6.33,5.78.55,2-1.6,5.39-3.48,7.22-1.41,1.38-4.27,1.66-6.51,1.72-6.82.21-13.64.08-20,.08.56,3.81,1.09,7.49,1.76,12H558.8c7,0,14,0,21,0,5.91,0,9.21,2.75,9.23,7.43s-3.28,7.52-9.12,7.53c-15,.05-30,0-44.91,0-.54,8.29-3.43,11-11.43,11-34.83,0-69.65.05-104.48-.08-2.86,0-5.72-1.3-8.59-1.91a28.81,28.81,0,0,0-5.76-1c-25.5-.06-51,0-76.48-.05-5.92,0-9.88-2.62-10.24-6.58-.47-5.09,3.28-8.34,9.93-8.38,13-.06,26,0,39,0h5.37l.19-1.19a10.06,10.06,0,0,0-2.68-.78c-17.83,0-35.66,0-53.49,0-53.61.28-107.23.7-160.85.84-17.29,0-34.59-.48-51.88-1-20.26-.55-40.52-1.18-60.76-2-7.45-.32-14.87-1.44-22.3-2.19l0-2Z" style="fill:#dfca9f"/><path d="M873,538.07l-8.12,3.25c3.73.46,6.75.87,9.77,1.19,1.87.2,3.75.26,5.63.38-.23,2.56.52,6.4-.86,7.45-4.85,3.69-3.63,6.49.72,9.62L870,562.3H853c-4.8.11-9.6.29-14.41.3q-40.83,0-81.68,0c-2,0-4-.2-5.94-.31H744l-26.09,0h-16.9c-1.32.11-2.64.3-4,.3q-78.57,0-157.13,0c-1.31,0-2.63-.22-4-.34a10,10,0,0,1,1.79-1.43c4.64-2.19,6.85-6,7.18-11s-2.7-7.87-6.53-10.24c-.83-.52-1.62-1.1-2.43-1.65q126.57,0,253.14,0a24.81,24.81,0,0,1,4.81,1l3-1,1.76-.35h1.55l54.49.06,3.51,0h9.39Z" style="fill:#2166cb"/><path d="M536,538c.81.55,1.6,1.13,2.43,1.65,3.83,2.37,6.87,5.23,6.53,10.24s-2.54,8.76-7.18,11A10,10,0,0,0,536,562.3c-1.32.11-2.64.31-4,.31q-95,0-190,0c-1,0-2-.08-3-.12l-2-.5c-2.84-7.1-2.46-15.59-9.05-21.08l3-2.95Zm-88.93,16.83c3.83,0,7.77.56,11.43-.22,2-.43,3.59-3.09,5.37-4.75-1.8-1.63-3.51-4.53-5.42-4.67a220.74,220.74,0,0,0-22.43-.14c-2.83.07-5.07,1.34-5.06,4.89s2.33,4.63,5.14,4.82C439.76,555,443.43,554.85,447.09,554.86Zm-46.12,0v0c3.32,0,6.8.6,9.91-.2,2.26-.58,5.37-2.75,5.75-4.67.69-3.54-2.33-5-5.79-5-6.81,0-13.62,0-20.43,0-3.4,0-6.59,1.2-6,4.8.31,1.94,3.42,4.32,5.66,4.84C393.52,555.44,397.32,554.84,401,554.84ZM370.65,551c0-.78,0-1.55,0-2.33-1.78-1.22-3.88-3.71-5.25-3.36-2,.51-3.42,3.08-5.09,4.78,1.61,1.26,3.15,3.4,4.86,3.55S368.83,552,370.65,551Z" style="fill:#3059ac"/><path d="M328,540.92c6.59,5.49,6.21,14,9.05,21.08l.35.87q20.53,58.62,41.08,117.24c5.28,15,10.7,30.06,16,45.09l2.43,9.62-17.9,2.58c-1.37-.91-3.17-1.52-4-2.78a89.9,89.9,0,0,1-4.6-8.69c-.69-1.68-1.31-3.4-2.08-5q-16.26-34.39-32.56-68.78a53.23,53.23,0,0,1-.87-6.82q-.07-39,0-78.08c0-1.48-.2-3-.31-4.44l-.12-1.81-.39-1.14c-.65-7.36-4.1-13.44-8.63-19Z" style="fill:#404173"/><path d="M744,562.31h0Z" style="fill:#3059ac"/><path d="M853,562.31h0Z" style="fill:#3059ac"/><path d="M713.05,562.33h0Z" style="fill:#3059ac"/><path d="M701.05,562.32h0Z" style="fill:#3059ac"/><path d="M337.4,562.87l-.35-.87,2,.5Z" style="fill:#7d8daa"/><path d="M334.49,561l.12,1.81c-.67-1.51-1.46-3-2-4.54A31.43,31.43,0,0,0,303,537q-41.43-.19-82.86,0c-12.53,0-23.26,7.73-28,19.6-.6,1.51-1.46,2.91-2.19,4.36,0-.68-.09-1.35-.14-2,3.26-15.7,12-24.36,27.26-27.08l15-.14,20.43,0,51.48.16,1.09-.19,1.87-.63,7,1.82,11.46,7.89c4.53,5.6,8,11.68,8.63,19Z" style="fill:#a1aec4"/><path d="M794.44,460.9q0-33.47,0-66.92c6.7,2.8,9.79,8.47,11.54,15.21l1.13-.46c-.54-2.33-1.08-4.65-1.71-7.38a7.32,7.32,0,0,1,2.57.23c6.4,3.29,13.24,6,19,10.23,5.33,3.92,11.29,6.74,16.5,10.59,10.63,7.85,21.12,8.89,32.45,2.11a33,33,0,0,1,4.59-1.89c2.21-.9,4.84-3.19,6.5,0a51.91,51.91,0,0,1,3.67,11.09c.09.35-2.27,1.79-3.59,2-11.62,1.51-23.27,2.85-34.9,4.24-6.56.79-13.11,1.6-19.67,2.33-3.37.37-7,2.61-9.9-1.31-.15-.2-1.69.63-2.59,1q-1-2.51-2-5c-.33-.67-.66-1.34-1-2l-1-2-1-3c-.33-.67-.66-1.34-1-2a78.86,78.86,0,0,0,2.75-8.2l1,.73,5.18-7.49-1.19-.86a85.49,85.49,0,0,0-5,7.62,31.57,31.57,0,0,1-4.7,2.71c-.29,1.83-.7,4.48-1.22,7.82l3.19-2.35c.33.67.66,1.34,1,2,.33,1,.67,2,1,3,.33.67.66,1.34,1,2s.66,1.33,1,2c.66,1.66,1.33,3.33,2,5-.34,2-.67,4-1,6-.13.43-.25.86-.37,1.29l.35-1.31c3.39-1.32,6.69-3.37,10.19-3.85,18.8-2.58,37.66-4.75,56.5-7.1,6.18-.77,7.13.25,5.64,6.44-2.58,10.68-6.37,13.81-17.47,15.69a33,33,0,0,0-11.13,4.13c-8.56,5.08-9.07,15.66-1.29,24.5,3,3.42,5.49,7.1,4.43,11.6-.82,3.52-2.36,7.35-4.79,9.9a12.32,12.32,0,0,1-11.44,3.95c-10-1.59-19.36,1.87-28.25,6.12-9.09,4.34-18,9.1-27,13.68l0-65.05,11.72,4.31,34.55-20c-16.58-2.38-30.46,4.41-43.73,12.16Zm33.55-33c.13-.43.25-.86.38-1.29l-.36,1.3c-.13.44-.25.87-.37,1.31C827.76,428.8,827.87,428.36,828,427.92Zm-4,9,2.07-2.85-1.28-.61c-.26,1.15-.52,2.31-.79,3.46l-.36,1.3Zm-24.17,12.93,1.75.72,8.66-18.33-1.53-.71Zm17.35,1.71-.57.74a3.8,3.8,0,0,0,.78.22c.08,0,.29-.29.26-.36A3.63,3.63,0,0,0,817.18,451.57Z" style="fill:#85a401"/><path d="M906.92,481.05q4.32-12.33,8.62-24.65l1.64.56-8.61,24.58Z" style="fill:#85a401"/><path d="M911,437.93l11.73-5.39.7,1.86L911,437.93Z" style="fill:#85a401"/><path d="M939,427.92,934,430l-.33-1.45,5.33-.64Z" style="fill:#85a401"/><path d="M873,538.07l-5.29-.45,6.71,0Z" style="fill:#506286"/><path d="M797,537.93l-3,1c.08-.71.17-1.42.26-2.13Z" style="fill:#506286"/><path d="M928.61,431.07,931,430l.36.8L929,431.88Z" style="fill:#85a401"/><path d="M858.27,537.63l-3.51,0Z" style="fill:#506286"/><path d="M926.3,432.55l-.35.13-.1-.52a1.27,1.27,0,0,1,.37.08C926.29,432.29,926.27,432.44,926.3,432.55Z" style="fill:#85a401"/><path d="M911,437.93l-1.06.75,1.06-.75Z" style="fill:#85a401"/><path d="M939,427.94l2.11.11v0l-2.13-.11Z" style="fill:#85a401"/><path d="M907.28,439.3c0,.1,0,.26,0,.3a1,1,0,0,1-.36.08l0-.51Z" style="fill:#85a401"/><path d="M800.27,537.59h0Z" style="fill:#506286"/><path d="M881.05,537.76l-1.11,0Z" style="fill:#2166cb"/><path d="M358.92,517.63l-1.87,0c-.6-1.36-1.87-2.8-1.71-4.06,1.08-8.67-1.6-15.58-8.62-20.88-1.22-.91-1.92-2.52-2.86-3.81q4.53-16,9-32l.6-1.27.87-4.5c.52-.76,1.43-1.48,1.49-2.27.9-11.77-8.73-22.25-20.81-22.78-10.35-.27-18.78,6.09-20.05,15.11a16.75,16.75,0,0,1-4-.28c-5.44-1.72-7.06.88-8.29,5.84-5.08,20.49-10.62,40.87-16,61.29l-9.92-4.16c0-1.5.09-3,.09-4.5q0-124.2,0-248.41c0-7.66.12-15.32.19-23,27-.25,48.7,3.75,56.2,10.36-8.5,1.77-10.67,2.94-14.92,7.68-4.58,5.11-7.9,16-3.52,20.95l4,6,7.81,6.48L340,280c6.21-1.45,10.9-4.68,12.89-11.06a45.72,45.72,0,0,0,2.07-4.29c2.06-5.53-.28-10.58-1.87-15.71,5.37-.12,8.58-2.4,8.87-6.59.44-6.44.71-12.9,1-19.35,2.67,0,5.39.25,8-.22,1.3-.23,2.35-1.82,3.52-2.8-1.15-.68-2.23-1.74-3.45-1.94a53.79,53.79,0,0,0-7-.33q.48-5.85,1-11.71.45-.09.9-.15l155.09,0,32.92-.18,27.12.08,1.86.19c0,.31.07.61.11.91V515l-9.12,2.39h-2.83l-.33-1.77c.08-2.65.2-5.3.23-8,0-3.61-1.68-5.6-5.41-5.63-1.83,0-3.65-.07-5.48,0-3.15.15-5,1.82-4.94,5,.06,3.61.4,7.21.62,10.81l-8.51,0c.12-.47.08-1.1.37-1.38,3.08-3,4-6.47,2-10.37s-5.61-4.13-9.42-4.1c-8.95.08-17.91.11-26.86,0-3.76-.05-7.68.62-8.61,4.32-.74,2.92.81,6.41,1.35,9.65l-.23,1.63L479,517.49c-1.79-.19-3.58-.54-5.37-.55q-20.93-.06-41.85,0c-2.62,0-5.24.37-7.85.57l-31.87,0-1.16,0-30.85.11ZM487,374.73l-38,.15c-10.36-1.63-20.67-.44-31-.78,0,.73,0,1.46,0,2.2h32.22l36.8-.22,4.83.26,0-1.95Zm-93,134.33H368.59l0,1.65h57.86v-1.65Zm95-201.31h2l2.33-2L491,303.19l-1.94,0-9,.09c-14.15-.08-28.29-.22-42.44-.12-1.19,0-2.37,1.63-3.56,2.49,1.06.75,2.11,2.13,3.17,2.14,13.64.05,27.29-.09,40.93-.18ZM453.7,446.36l-33.41.08H368.61v1.49H420l33.93-.06Zm8.37-8.52-38.16,0-6.35.34.06,1.51h6.52l37.68-.11h29.72v-1.71Zm21.88-53c3,1.75,5.92,1.86,9.23-.77h-9.34a8.4,8.4,0,0,0-2.69-1q-19,0-37.93.17c-.59,0-1.19.55-1.78.85l.19.79ZM466,431.85c7.82.07,15.65.25,23.47.12,1.2,0,2.37-1.43,3.55-2.2-1.17-.63-2.32-1.77-3.5-1.79-7.82-.13-15.66,0-23.49,0-3.11,0-6.23-.24-9.33,0-.95.07-1.81,1.32-2.71,2,.89.72,1.76,2,2.69,2.05C459.77,432.24,462.89,432,466,431.85ZM509.93,393l2.08.54,32-.14,1.14-.39c4.35-1.37,6.1-4.61,5.37-8.81-.8-4.56-4-6.55-8.63-6.46-9,.16-17.9.17-26.85.25-1.31-.06-2.63-.19-3.94-.15-4.24.16-6.79,2.3-7.14,6.61s.66,7.93,5.87,8.53ZM441,494.77l31,.1c6.15.06,12.3.23,18.44.07,1.05,0,2.07-1.47,3.11-2.26-1-.59-2-1.67-3.08-1.7-5.81-.14-11.63,0-17.45,0l-31.9-.05-7.14,1.92C435.44,496.62,438.48,494.68,441,494.77Zm-40-3.84c-9.94-.05-19.89-.17-29.83-.05-1.29,0-2.57,1.32-3.85,2,1.28.7,2.56,2,3.86,2,9.61.13,19.23,0,28.84,0,5,.06,10,.22,15,.08,1,0,2-1.2,3-1.84-1-.82-2-2.28-3-2.32C410.28,490.62,405.62,490.85,401,490.93Zm53-126c-3.13,0-6.26-.14-9.36.11-.76.06-1.43,1.39-2.14,2.13.7.59,1.36,1.64,2.1,1.7,2.78.21,5.58.09,8.37.1q16.67.06,33.32.12c2.52,0,5.08,0,4.52-4.16ZM556.58,265c2.48.68,4.94,1.84,7.43,1.94,6.21.24,7-.74,7-7.27,0-7.28-.81-8.29-7-8.42-2.7.73-7.4,1-7.72,2.28C555.38,257.07,556.35,261.1,556.58,265ZM332.17,395.64l4.79-1,3.11,2.35-2.67,8.66,8.57-3.81c8.16-6,11.26-13.86,8.86-23.74-1.9-7.88-8.9-13.73-17.76-15-17.37-3-29,17-22.08,28.88l8.76,10.16,7.6,3.14.89-1.35L329,398ZM323.94,341c8,4.56,17,3.79,23.07-2,.74-.33,1.72-.46,2.2-1,5.57-6.4,8.27-13.62,5.24-22-2.78-7.71-8-12.82-16.45-14-7.33-2.66-18.77,2.95-22.69,11.44-2.85,6.19-3.6,12.54.6,18.62Zm102.77,91.09c3.44,0,6.89.22,10.32,0,1-.06,1.93-1.23,2.88-1.89-1-.77-2-2.14-3-2.21-3.26-.22-6.55.06-9.82.15-18.46-.08-36.92-.22-55.38-.14-1.52,0-3,1.57-4.56,2.4,1.55.56,3.1,1.6,4.66,1.61C390.11,432.12,408.41,432.08,426.71,432.08ZM512,251.17l-1.17.2c-5.56,1.42-7.56,4-7,8.94.48,4.39,3.38,6.66,8.79,6.66,5.78,0,11.56-.14,17.35-.22,4.12.07,8.25.24,12.38.19,5-.07,8.39-3.21,8.55-7.76.13-4-3.86-7.9-8.46-8.12-2.79-.13-5.6.08-8.41.13ZM505,327c2.55,1.26,5,3.42,7.66,3.6,6.78.47,13.62.07,20.44,0,3,.11,5.94.56,8.86.25,3.92-.41,7.87-2,8.26-6.36.23-2.67-1-6.42-2.93-8.07s-5.51-1.11-8.38-1.53l-28.87,0C503.6,317,502.07,320.67,505,327Zm22.2,129.87c5,0,10,.07,15,0s8.49-3.27,8.52-7.83c0-4.35-3.61-7.95-8.46-8q-15-.15-30,0c-5.59.05-8.62,3.09-8.53,8.18.09,4.89,3,7.56,8.48,7.66C517.23,456.94,522.23,456.87,527.23,456.87ZM403.57,245c10.5,0,21,.1,31.49-.1,1.6,0,3.18-1.42,4.77-2.18-1.47-.64-2.94-1.81-4.41-1.82q-32-.18-64,0c-1.42,0-2.84,1.27-4.26,2,1.47.71,2.92,2,4.4,2C382.24,245.05,392.91,245,403.57,245ZM392,307.87c7.33,0,14.65.1,22-.1,1.33,0,2.62-1.34,3.94-2.06-1.31-.9-2.61-2.55-3.93-2.57q-21.47-.28-42.93,0c-1.32,0-2.61,1.67-3.91,2.56,1.3.72,2.58,2,3.9,2.07C378,308,385,307.87,392,307.87Zm171.07,149c7.24,0,8-.72,8-8,0-7-.88-7.88-8.18-7.87-6.73,0-7.73,1-7.74,7.88C555.07,456.09,555.84,456.87,563.06,456.87Zm7.94-71c.06-7.16-.67-8-6.83-8.09-8.19-.08-9,.54-9.08,6.84-.08,7.79,1,9,7.6,9.07C569.85,393.75,571,392.71,571,385.89Zm-7.62-71.15c-7.47,0-8.25.65-8.29,7.11,0,7.59,1,8.73,7.89,8.77s8-1.08,8-7.6C571.05,315.46,570.41,314.76,563.38,314.74ZM395.79,369c8.31,0,16.62.09,24.92-.1,1.32,0,2.6-1.28,3.9-2-1.27-.71-2.54-2-3.82-2q-24.68-.21-49.36,0c-1.39,0-2.77,1.43-4.16,2.2,1.36.63,2.72,1.76,4.09,1.79C379.5,369.09,387.64,369,395.79,369ZM493,250.7H417.06C420.68,253.26,488.05,253.5,493,250.7ZM430.22,217c-5.5,0-11-.15-16.5.12-1.21.06-2.35,1.6-3.52,2.45,1.11.77,2.21,2.18,3.34,2.19,10.66.17,21.33.19,32,0,1.29,0,2.56-1.53,3.84-2.34-1.38-.81-2.73-2.23-4.16-2.31C440.22,216.79,435.22,217,430.22,217ZM368.57,463.45c4.59,3.18,56.92,2.77,59.68,0ZM491.68,331.61v-1.1H405.74v1.1Zm-38.12-71.18v-1H368.64v1Zm-84.93,78.86,0,.86h83.84l0-.86Zm71,124.14c3.26,3.14,49.64,3.06,52.47,0ZM473.74,245c5,0,9.94.15,14.9-.09,1.49-.07,2.92-1.22,4.38-1.88-1.38-.73-2.75-2.08-4.14-2.1q-15.39-.27-30.81,0c-1.32,0-2.63,1.15-3.94,1.77,1.4.77,2.77,2.14,4.2,2.22C463.45,245.13,468.6,245,473.74,245Zm-37.4,156.58,0-1H368.62c0,.35,0,.69,0,1Zm-24-8.19c-4.1-3.06-40.86-2.75-44.3,0Zm17-8.87v-1H368.64v1Zm-1.82-107v-.93H368.62v.93Zm-58.89,44.75v.86h57.73v-.86Zm87,179.89,0-1.27h-38.1v1.27ZM423.11,391.79v1.4h37.13v-1.4ZM403.73,252.67c0-.67,0-1.33,0-2H368.5c0,.66,0,1.32,0,2Q386.12,252.76,403.73,252.67ZM368.6,500.4l-.23,2.3c11.47,0,22.93,0,34.39-.08.36,0,.7-1.19,1.26-2.22ZM491.77,277.51l0-1h-52v1Zm-43.43,123,0,1.09h43v-1.09ZM393.58,222v0a77.44,77.44,0,0,0,7.92-.09c1.06-.11,2-1.21,3-1.86-.9-.75-1.78-2.1-2.7-2.13-5.45-.2-10.9-.17-16.35,0-.83,0-1.62,1.18-2.43,1.81.87.75,1.68,2,2.62,2.14A69.68,69.68,0,0,0,393.58,222Zm59.63,234.43,0-1H415.38v1ZM418.42,313.31v1h37.12l0-1ZM467.69,446.4c4.09,3.18,22.11,2.8,24.46,0ZM492.05,502c0-.43,0-.87,0-1.3h-23.9V502ZM403.39,314.51l0-1H368.64v1ZM368.62,438.26l0,.84h34.82l0-.84Zm124.69-45.07c-6-3.06-19.89-2.65-22,0Zm-30.06-53.92c5.9,2.43,26.05,2.05,28.47,0Zm-20.8,170.17v1.05h24.88v-1.05ZM442,322.22v1h24.56v-1Zm-73.39,8.24,0,1h24l0-1Zm0,124.73,0,1h23.93l0-1Zm83.94-186.46-.08-.84H406.57v.84Zm38.94-8.13,0-1H468.39l0,1Zm-26.9,195v.91h22.55l0-.91ZM369,374.93l-.15.74H403v-.74ZM474.71,313.6l0,.79h17l-.07-.79ZM491,268.8l.12-.64H465v.64Zm-122.17-.68v.63h23.59v-.63Z" style="fill:#fcfcfd"/><path d="M573.92,517.35,583,515V206.89l1-.13,52-.16,22.85.22q0,112.5,0,225H660v-5.39q0-105.45,0-210.9c0-8.45-1-7.57,7.34-7.6,14.5-.05,29-.05,43.48-.08l.42.12c-2.48,4.87-4.74,9.86-7.55,14.52-1,1.65-3.32,2.49-5.32,3.9l2.27,1.54-3.71,9.65c-4.55,1.16-9.05,2.91-13.66,3.34-6.73.62-9.66,2-11,6.85-5.2,2.43-6.47,7.62-3.12,12.89,1.1,1.72,1.92,4.15,4.76,2.25,2.95,4.07,6.72,4.07,10.06,0h1.89c.68,2.27,1.37,4.53,2.56,8.45,2.33-4.89,4.1-8.61,5.88-12.33l1.51.38v23.89l-1.49.31c.13-5.66-2.78-8.71-8-10.38.22,1.9.38,3.34.55,4.78-1.25-.76-2.51-1.51-3.75-2.29-5-3.15-11.41-1.19-14.29,4.42-2.65,5.15-.92,10.48,4.17,12.85,5.4,4.24,8.35,4,10.87-1l4.07-4.06c7,2.14,7.6,8,7.93,13.93.14,2.46,0,4.95,0,7.77-.46,0-2.1.27-2.22,0-1.82-4.74-3.44-9.54-5.11-14.33l-1.16-.61c-.62,2.2-1.17,4.42-1.89,6.59a35.65,35.65,0,0,1-1.7,3.73,13,13,0,0,1-2.94-.22c-7.08-2.16-12.17,2.9-13.4,8.09-1.17,4.89,2.27,9.83,6.44,9.09,1.66,1,3.33,2.81,5,2.82s3.33-1.79,5-2.79l3-1.06c-.87,2.12-1.75,4.24-2.65,6.45.91,1.07,2.36,2.73,3.92,4.54L684,334c-9.37-2.54-14.8.13-16.51,8.1-1,4.42,2.73,9.44,6.47,8.84,2.31,4.34,5.84,4.33,10.15,0h1.82l4.24,3.64,4.14-8.68-1.08-.86L688,346.93l0-7a39,39,0,0,0,5.06,1.68c4.44.85,5,2.28,3.45,6.68-.8,2.19-.64,4.74-.85,7.13-.23,2.7-.4,5.4-.59,8.1l-2.1.66c-1-1.85-2.69-3.64-2.84-5.55-.27-3.55-1.55-4.33-3.67-3.52-.2,3.71-.36,6.79-.52,9.88-3.25-1-6.46-2.71-9.74-2.84-4.62-.17-7.87,4.15-8.22,9.55-.38,5.71,1.14,8.11,5.81,9.15,2,5.58,5.89,2.43,9.19,2.05,5,.33,9.34-.73,11.69-6l1.24.38v24.17l-.88.51c-1.81-4.91-3.63-9.81-5.48-14.81L684,394c-2.62-.34-5.25-1.08-7.84-.92-5,.3-8.22,4.72-8.15,10.63,0,4,.79,7.42,5.94,7.21,3.18,4.39,7.75,4.4,10.1,0l2-1c.31.77.64,1.52.91,2.3.77,2.2,1.63,6.33,2.26,6.3,4.51-.24,3.77-4,3.83-7.1,0-1-.24-2.15.17-2.95a13.22,13.22,0,0,1,2.47-2.68l1.43.64c-.2,3.53,0,7.13-.69,10.58-1.49,7.88-1.83,8-9.43,7h0l-1.17-1.6L685,423.9c-2.56-1.22-3.86-4.54-8-3-7.78,2.91-9.11,4.2-8.89,12.9L649,434c-4.49,0-9-.07-13.47,0-16.31.2-27.28,10.29-31.32,26.12-3.22,12.63,5.56,28.33,17.39,35.11,11,6.3,22.5,4.4,34,4.63.81,0,1.66-1.82,2.49-2.8l2,.92c0,.66,0,1.33,0,2L660,500l-.89,17.55ZM684,234c4.18-2.19,5.51-8.47,2.81-13.23-2.37-4.18-10.11-6-14-2.87-3,2.42-6.29,5-5,9.9.91,3.43,1.33,7,6.06,7.09C677.83,238.25,681.9,237.89,684,234Z" style="fill:#dae8fd"/><path d="M286.75,508c5.37-20.43,10.91-40.81,16-61.3,1.23-5,2.85-7.56,8.29-5.84a16.75,16.75,0,0,0,4,.28l9.92,1.77,18.85,3c3.58,1.61,8.94-.42,10.6,5.15l-.87,4.5-.6,1.27q-4.51,16-9,32-1.41,5.3-2.83,10.59l-2,8.28q-1.44,4.92-2.89,9.83Q333.57,527.78,331,538l-3,2.95-2.53-.14L314,532.89c2.29.27,4.63.37,6.88.85,3.37.71,5.1-.28,6-3.81,5.52-21,11.26-41.94,16.87-62.91,1.26-4.73,2.28-9.52,3.52-14.74-11.93-1.86-23.18-3.59-34.43-5.4-3.21-.52-4.89.47-5.43,3.89s-1.73,6.74-2.59,10.11q-6.11,23.83-12.18,47.67Z" style="fill:#5f96d5"/><path d="M506.05,515.92c-.54-3.24-2.09-6.73-1.35-9.65.93-3.7,4.85-4.37,8.61-4.32,9,.12,17.91.09,26.86,0,3.81,0,7.41.29,9.42,4.1s1.13,7.35-2,10.37c-.29.28-.25.91-.37,1.38l-39.28.11Z" style="fill:#5f96d5"/><path d="M771.07,236.38c0,1.52.09,3.05.14,4.58a1.3,1.3,0,0,0,0,.95v16c-.06,18.8-.16,37.61-.16,56.41q0,98.87-.06,197.73a28.43,28.43,0,0,1-1.05,5.46c-.31-.55-.63-1.09-.95-1.64q0-139,0-278.07Z" style="fill:#dae8fd"/><path d="M794.44,460.9l2.55,3.5c13.27-7.75,27.15-14.54,43.73-12.16l-34.55,20-11.72-4.31C794.44,465.59,794.44,463.24,794.44,460.9Z" style="fill:#9ec303"/><path d="M341,499.48q1.43-5.3,2.83-10.59c.94,1.3,1.64,2.91,2.86,3.82,7,5.3,9.7,12.21,8.62,20.88-.16,1.26,1.11,2.7,1.71,4.06-4.38,0-8.76.16-13.14,0-.92,0-1.81-.93-2.72-1.43l.3-.32A12.59,12.59,0,0,0,341,499.48Z" style="fill:#a7d4fc"/><path d="M555.78,517.84c-.22-3.6-.56-7.2-.62-10.81-.06-3.2,1.79-4.87,4.94-5,1.83-.08,3.65,0,5.48,0,3.73,0,5.44,2,5.41,5.63,0,2.66-.15,5.31-.23,8-.23.77-.45,1.53-.67,2.3Z" style="fill:#5f96d5"/><path d="M769,515.88c.32.55.64,1.09.95,1.64q-37.2.11-74.41.21c-12.15,0-24.3-.15-36.45-.23q.43-8.78.89-17.55c0,3.81.22,7.64,0,11.45-.21,3.39.87,4.61,4.44,4.59C699.26,515.86,734.12,515.9,769,515.88Z" style="fill:#fcfcfd"/><path d="M424,517.52c2.61-.2,5.23-.56,7.85-.57q20.93-.09,41.85,0c1.79,0,3.58.36,5.37.55Z" style="fill:#a7d4fc"/><path d="M341.49,515.94l-.3.32-5.06,1.33q1.44-4.92,2.89-9.83C339.84,510.49,340.67,513.21,341.49,515.94Z" style="fill:#dfca9f"/><path d="M506.05,515.92l1.94,2-2.17-.37C505.89,517,506,516.46,506.05,515.92Z" style="fill:#a7d4fc"/><path d="M570.09,517.89c.22-.77.44-1.53.67-2.3l.33,1.77Z" style="fill:#dae8fd"/><path d="M358.92,517.63h0Z" style="fill:#a7d4fc"/><path d="M390.93,517.52l1.16,0Z" style="fill:#a7d4fc"/><path d="M277.13,228c-.07,7.66-.19,15.32-.19,23q0,124.21,0,248.41c0,1.5-.06,3-.09,4.5l-23.94-10,.12-77.91,0-97c3.74-3.73,7.62-7.33,11.1-11.28.71-.81.54-3.62-.26-4.31-3.44-3-7.27-5.55-11-8.27l.09-71.38,9-.69,14.9.9C277,225.28,277.06,226.62,277.13,228Z" style="fill:#468df2"/><path d="M130.49,203.84c-1.81-.17-4,.26-5.38-.61-14.62-9.37-22-30.34-17.83-47.6,4.23-17.66,20.09-32.44,37.52-34.74A9.09,9.09,0,0,0,147,120l2,0,3,0L175,126l1,.91h0c-6.13,3.56-7.5,13.06-17.49,12.23,2.07,2.08,7,2.11,2.24,4.93-2.29-1-4.5-2.4-6.88-2.75-2.84-.42-6.27-.8-8.66.38-7.54,3.72-12.62,10-13.16,18.53C131.11,174.76,131,189.31,130.49,203.84Z" style="fill:#fcfcfd"/><path d="M130.49,203.84c.47-14.53.62-29.08,1.54-43.58.54-8.52,5.62-14.81,13.16-18.53,2.39-1.18,5.82-.8,8.66-.38,2.38.35,4.59,1.79,6.88,2.75,2.74,4.24,6.78,8.14,8,12.78,3,11.87,4.75,24.07,6.95,36.15.59,3.2,1,6.44,1.52,9.66L171.09,208l-5.42-6c.73-7.34.73-7.34-7.34-8.28l-.23.1-.33-5.85a42.92,42.92,0,0,1,2.62-3.49c5-5.41,6-8,1.89-14-3.48-5.14-8.8-9-13.23-13.42-3.25,8.26-6.2,15.78-9.26,23.57l7.75,8.34.24,2.08-.58,3.1-7,2.3c.73,4.07,1.3,7.32,1.88,10.56l-2.17,3.14C135.25,210.33,132.63,207.44,130.49,203.84Z" style="fill:#252545"/><path d="M177.15,202.69c-.5-3.22-.93-6.46-1.52-9.66-2.2-12.08-3.95-24.28-6.95-36.15-1.17-4.64-5.21-8.54-8-12.78,4.75-2.82-.17-2.85-2.24-4.93,10,.83,11.36-8.67,17.49-12.23,9.64,4.39,15.27,12.59,19,21.84,5.89,14.69,4.61,29.25-3.91,42.73-2.33,3.7-5.73,6.8-9,9.81C181,202.35,178.82,202.26,177.15,202.69Z" style="fill:#dae8fd"/><path d="M281.83,166.23l3.11,4L280,172l-67.48-.08a14.12,14.12,0,0,1-4-.17c-.92-.29-2.37-1.61-2.23-2.05a4.43,4.43,0,0,1,2.3-2.59c1.16-.46,2.62-.17,4-.18l62.48-.19,5.09-.53Z" style="fill:#fcfcfd"/><path d="M332.93,146.62l2.91,3c-1.5.72-3,2-4.5,2.06-16.12.17-32.24.13-48.36.16-3,0-6,.25-8.92-.21-1.43-.23-2.63-1.84-3.93-2.82,1.3-.92,2.57-2.55,3.92-2.62,5.62-.31,11.26-.15,16.89-.16h36.88Z" style="fill:#fcfcfd"/><path d="M233,151.84c-7.48,0-15,.15-22.44-.12-1.51-.06-3-1.72-4.45-2.64,1.46-1,2.92-2.88,4.38-2.87,15.61,0,31.21.34,46.81.74,1.12,0,2.21,1.37,3.31,2.1-1.38.92-2.75,2.59-4.17,2.64-7.8.26-15.62.12-23.44.12Z" style="fill:#fcfcfd"/><path d="M233.52,190.83c-7.65,0-15.3.14-22.94-.12-1.53-.06-3-1.69-4.5-2.59,1.45-1,2.91-2.91,4.36-2.91,15.6,0,31.21.34,46.8.77,1.19,0,2.34,1.63,3.51,2.5-1.26.77-2.51,2.19-3.79,2.22-7.81.21-15.62.11-23.44.11Z" style="fill:#fcfcfd"/><path d="M165.67,202l5.42,6-12,4.74-4.13.15H151l-11.09-2.75L142.1,207l6.23-6.4c3.81,2.59,7.18,2.6,9.84-1.65Z" style="fill:#5f96d5"/><path d="M309,186c1.67,4.35-1.16,4.76-4.26,4.78-9.91.05-19.82.05-29.73.07l-2.91,0-1-.21-.8-.74c-.09-.32-.18-.63-.29-.94l1.11-3.63,36.68-.25Z" style="fill:#fcfcfd"/><path d="M280.15,166.17l-5.09.53c.65-.91,1.49-2.67,1.91-2.57C278.13,164.4,279.11,165.44,280.15,166.17Z" style="fill:#93c7fd"/><path d="M155,212.85l4.13-.15C157.83,215.89,156.46,216.09,155,212.85Z" style="fill:#b6defc"/><path d="M237,223.83l-3,0Z" style="fill:#b6defc"/><path d="M270,189c.11.31.2.62.29.94C270.16,189.57,270.06,189.26,270,189Z" style="fill:#93c7fd"/><path d="M271.05,190.63l1,.21Z" style="fill:#93c7fd"/><path d="M176,126.94l-1-.91Z" style="fill:#dae8fd"/><path d="M277.13,228c-.07-1.34-.13-2.68-.19-4,17.08-.9,33.79.75,49.48,8.09,3.8,1.78,7.12,4.58,10.67,6.91-1,2.34-2,4.69-3,7-1.82.59-4.49.62-5.31,1.87-3.19,4.82-5.79,10-8.61,15.09l-5.23,4c-4.38-5-1.06-15.84,3.52-20.95,4.25-4.74,6.42-5.91,14.92-7.68C325.83,231.71,304.12,227.71,277.13,228Z" style="fill:#dae8fd"/><path d="M334,246c1-2.34,2-4.69,3-7l15,10h1.05c1.59,5.13,3.93,10.18,1.87,15.71a45.72,45.72,0,0,1-2.07,4.29c-2.39-4.05-5.53-7.85-7-12.21C343.84,250.6,340.8,246.47,334,246Z" style="fill:#a7d4fc"/><path d="M316.65,166.87c5.31,0,10.63-.11,15.94.1,1.12.05,2.19,1.3,3.29,2-1.09.95-2.16,2.72-3.27,2.74-10.78.22-21.58.25-32.37,0-1.33,0-2.62-1.76-3.93-2.71,1.3-.72,2.58-2,3.91-2.07C305.69,166.72,311.17,166.86,316.65,166.87Z" style="fill:#fcfcfd"/><path d="M353.1,248.93h-1.05c-.5-1-1-2-1.87-3.65,7.89-2.4,7-8.94,6.93-15.22a56.6,56.6,0,0,1,.87-7.29l5,.23c-.34,6.45-.61,12.91-1,19.35C361.68,246.53,358.47,248.81,353.1,248.93Z" style="fill:#dae8fd"/><path d="M362.88,198q3.11-8,6.2-15.92l6,0q-2.5,7.91-5,15.82l-1.08.05Z" style="fill:#dae8fd"/><path d="M363,223l-5-.23c0-1.68.06-3.36.1-5l6,0a53.79,53.79,0,0,1,7,.33c1.22.2,2.3,1.26,3.45,1.94-1.17,1-2.22,2.57-3.52,2.8C368.41,223.24,365.69,223,363,223Z" style="fill:#86bffd"/><path d="M364.09,217.7l-6,0q.94-5.91,1.9-11.82L365,206Q364.56,211.86,364.09,217.7Z" style="fill:#dae8fd"/><path d="M365,206,360,205.9c1-2.64,1.93-5.29,2.9-7.94l6.1,0-3,7.9Q365.49,205.9,365,206Z" style="fill:#a7d4fc"/><path d="M375.08,182.07l-6,0q1-4.15,2-8.32l4.95.2,0,8A7,7,0,0,0,375.08,182.07Z" style="fill:#a7d4fc"/><path d="M332.93,146.62l-5.11-.56Z" style="fill:#a7d4fc"/><path d="M309,186l-1.21-.94Z" style="fill:#a7d4fc"/><path d="M658.92,206.81l-22.86-.21a30.19,30.19,0,0,1,3.61-2.63c1.94-1,4.15-1.57,6-2.72a48.6,48.6,0,0,0,5.34-4.33l1,0,.93.74,27,0,2.17-1.63L685,194c3-2.33,2.72-4.74.17-7.2l-1.14-1.88c-1.68-.92-3.36-2.63-5-2.63-9.34,0-18.68.44-28,.72-.24-1.41-.45-2.82-.76-4.21-.36-1.64-.81-3.25-1.23-4.87l76.89-.06,1.15,1.08c-2.27,3.52-4.56,7-6.79,10.56-.78,1.24-2.13,2.62-2,3.83.62,6.89-3.75,11.86-6.31,17.52-.25,0-.49,0-.74,0Zm44-15.23,5.25,3.59-2.3-1.9,5.2-1.63-3.15-4.18c-1.56-.07-.76,6.95-4.2,1.48v-7c-2.34.17-5-.46-6.34.6C693,186,696,189.85,698,193.21l-3.4,4.29h10.77c.08-.47.17-.95.25-1.42a25.14,25.14,0,0,1-3.57-2.27C701.81,193.64,702.57,192.35,702.89,191.58Z" style="fill:#86bffd"/><path d="M649,173.89c.42,1.62.87,3.23,1.23,4.87.31,1.39.52,2.8.76,4.21l-1.06,1.89q-6.11,2.8-2,8.08l1,2,2,2a48.6,48.6,0,0,1-5.34,4.33c-1.85,1.15-4.06,1.7-6,2.72a30.19,30.19,0,0,0-3.61,2.63l-52,.16-1.15-.78-1.86-.19c.24-1.77.15-3.66.76-5.29,3.31-8.9,6.79-17.75,10.21-26.61Zm-14.91,12-1-1c-2-1-4-2.66-6-2.75-7.29-.35-14.61-.33-21.9,0-1.76.08-3.45,1.83-5.17,2.81l-2,1c-2,3-4.2,6,1,8.08,2,1.33,3.91,3.67,6,3.8a208.84,208.84,0,0,0,22.38,0c2-.08,3.84-1.8,5.76-2.77.33-.33.66-.66,1-1,3-2,3.53-4.39.95-7.16C634.73,186.53,634.42,186.18,634.1,185.84Z" style="fill:#93c7fd"/><path d="M376,181.89l0-8c15.79,0,31.57-.15,47.36-.15q54.84,0,109.69.1L530.92,182Z" style="fill:#cee1fd"/><path d="M592,173.89c-3.42,8.86-6.9,17.71-10.21,26.61-.61,1.63-.52,3.52-.76,5.29L554,205.71c.35-2.6.71-5.2,1.06-7.8l7-.85,1.3-.13c4.51-.49,7-3.19,6.63-7.22-.43-4.25-2.93-6.74-6.95-7.85.66-2.66,1.33-5.33,2-8Z" style="fill:#b6defc"/><path d="M565,173.87c-.66,2.66-1.33,5.33-2,8l-32.05.13,2.13-8.12Z" style="fill:#93c7fd"/><path d="M183.78,757.89l4.26-7.07h34.19c-7.57-14.71-5.21-27,6.57-37.82H191.09q-.09-41.58-.18-83.14c0-4.65-.07-9.29-.11-13.94,18.12-.28,36.24-.61,54.36-.82,11-.12,22-.05,33-.06a5.45,5.45,0,0,0,.18,1Q300.61,675.35,323,734.64a14.89,14.89,0,0,0,2.1,3l.93,4.23a99.93,99.93,0,0,1-5,9.07,17.67,17.67,0,0,1-15.2,8q-58.68,0-117.36,0C186.86,759,185.32,758.27,183.78,757.89Z" style="fill:#fee5b4"/><path d="M326,588.07v18.56c-1.95.09-3.55.23-5.16.23-39.11,0-78.23-.05-117.35.1-4.24,0-5.81-.88-5.69-5.47.34-12.64.06-25.29.16-37.94.07-8.29,4-14.74,10.67-19.23,2.41-1.62,5.91-1.62,8.91-2.36q0,16.47,0,32.95c-.07.12-.21.27-.18.35a3.21,3.21,0,0,0,.37.65,43.76,43.76,0,0,0,5.76.78c27.41,0,54.83.2,82.23-.06C315,576.54,321.63,580,326,588.07Z" style="fill:#66a7fd"/><path d="M217.49,574.91q0-16.47,0-32.95a31,31,0,0,1,5.25-.9q40.19-.09,80.35,0c12.54,0,22.08,8.5,22.83,21,.52,8.65,0,17.36,0,26-4.37-8.08-11.05-11.52-20.33-11.43-27.4.26-54.82.11-82.23.06a45.47,45.47,0,0,1-5.76-.77C217.62,575.58,217.55,575.25,217.49,574.91Z" style="fill:#404173"/><path d="M325.06,737.68a14.89,14.89,0,0,1-2.1-3Q300.58,675.35,278.3,616a5.45,5.45,0,0,1-.18-1h33q7.44,25.38,14.87,50.76c.22,5.3.6,10.59.62,15.89q.12,24.72,0,49.44C326.58,733.33,325.6,735.5,325.06,737.68Z" style="fill:#252545"/><path d="M397,738a77.2,77.2,0,0,0,27,9.35c3.81.58,7.75,3.18,10.71,5.87,5.12,4.65,3.8,9.85-3,10.45a324.16,324.16,0,0,1-35.27.81c-6.22-.14-12.17-.9-18.61,0a109.67,109.67,0,0,1-46-2.69c-1.82-.52-3.41-1.88-5.11-2.85q3.1-6,6.23-12c7.48,2.3,11.16-.37,11-8,0-1,0-2,0-3a67.3,67.3,0,0,0,33.54,11.6l3.42-6.69c1.7,4.61,4.56,7.7,9.92,6.82C395.12,747,397.12,743.64,397,738Z" style="fill:#252545"/><path d="M335.82,652.11q16.28,34.38,32.56,68.78c.77,1.64,1.39,3.36,2.07,5-8.94-1.55-17.83-2.13-26.58,1.05q-4.44-14.07-8.87-28.13l.05.14c-.11-.57-.23-1.14-.35-1.71.06-13.35.08-26.71.2-40.06A30.31,30.31,0,0,1,335.82,652.11Z" style="fill:#fee5b4"/><path d="M326,665.81q-7.44-25.38-14.87-50.76l7.26-.09q4.26,8.71,8.53,17.42c-.08,9.57-.12,19.13-.26,28.7A36.59,36.59,0,0,1,326,665.81Z" style="fill:#fee5b4"/><path d="M335,698.85q4.42,14.07,8.87,28.13,0,3.06,0,6.12L335,735Z" style="fill:#252545"/><path d="M335,735l8.88-1.86L344,736c0,1,0,2,0,3,.17,7.6-3.51,10.27-11,8Q334,740.94,335,735Z" style="fill:#f7c6ab"/><path d="M327,632.38q-4.26-8.71-8.53-17.42H327Z" style="fill:#404173"/><path d="M334.7,697.28c.12.57.24,1.14.35,1.71C334.93,698.42,334.82,697.85,334.7,697.28Z" style="fill:#252545"/><path d="M546.34,35.22c15.08-2.47,33.39,15.92,33.22,33.58s-16.51,33.88-34.29,33.5-33.12-15.57-33.21-33.58C512,50.89,527.61,33.07,546.34,35.22Zm-.92,59c14.86.78,26.39-11.66,26.36-25.36,0-14.88-10.93-26.2-26.17-26.41-14.63-.2-25.36,11.66-25.71,26.7C519.61,82.06,533.54,95.73,545.42,94.23Z" style="fill:#b6defc"/><path d="M239.2,332c-.13-1-.25-1.91-.37-2.87l4-10L253,319q0,48.48,0,97c-3.34-.27-6.25.2-8.72,3-1.07,1.21-3.37,1.35-5.1,2V332Z" style="fill:#2166cb"/><path d="M242.8,319.12l-4,10c-3.29,6.61-6.53,13.25-9.88,19.83a35.85,35.85,0,0,1-2.75,4,21.44,21.44,0,0,0-2.63-2.25c-5.85-3.55-5.66-3.41-2.33-9.11a46.93,46.93,0,0,0,4.64-10.89C228.3,322,233.79,318,242.8,319.12Z" style="fill:#f7c6ab"/><path d="M208.62,351.14c-.23-2.8-1.19-5.52-.47-7.68a50.58,50.58,0,0,1,5.68-11.34c.67-1.05,3.31-1.59,4.7-1.17,1,.3,1.9,2.55,2,4C220.74,340.72,215.47,348.12,208.62,351.14Z" style="fill:#f7c6ab"/><path d="M195.94,362c-.32.63-.63,1.27-.94,1.9-4.76-.48-8.68-2.33-11-6.8C188,358.77,193.55,356.51,195.94,362Z" style="fill:#dfca9f"/><path d="M223.68,481.74,239,488l13.94,5.84,23.94,10,9.92,4.16,5.93.54c4.82.73,8.49,3.33,10.18,7.76,1.82,4.76,2.82,9.82,4.18,14.76l-1.87.63c-6.88-9.67-6.48-9.75-15.73-7.6-.49.11-1,.17-1.47.25l-5.9-1.73c-3.11-.67-6.24-1.27-9.33-2-6.6-1.57-13.19-3.2-19.78-4.81L239.12,512l-10.88-3-10.75-3.46-.06-53.51c.53,7.71,1.35,15.42,1.46,23.13C219,478.83,220,481,223.68,481.74Z" style="fill:#f7c6ab"/><path d="M217.49,505.45l10.75,3.46q1.92,9.81,3.83,19.61l.1,3.18-15,.14Z" style="fill:#637ca8"/><path d="M223.68,481.74c-3.7-.73-4.73-2.91-4.79-6.67-.11-7.71-.93-15.42-1.46-23.13q-.12-9.44-.26-18.85Z" style="fill:#637ca8"/><path d="M189.13,370.46l2.93.43Z" style="fill:#86bffd"/><path d="M217.17,399.47a4.67,4.67,0,0,1,.19.71c0,.1-.12.21-.18.31C217.18,400.15,217.17,399.81,217.17,399.47Z" style="fill:#637ca8"/><path d="M149,120l-2,0c.41-.53.81-1.07,1.22-1.61Z" style="fill:#a7d4fc"/><path d="M769,515.88c-34.86,0-69.72,0-104.58.11-3.57,0-4.65-1.2-4.44-4.59.22-3.81,0-7.64,0-11.45l.11-.05,68,1c3.55.82,7.29,1.2,10.62,2.57,4.27,1.76,8.21,4.32,12.3,6.54,1.39.39,3.81,1.4,4,1.08a22.1,22.1,0,0,0,2.92-6.84c1.35-6.69,1.21-13.91,3.75-20.06,3.8-9.21,6.24-17.86,1.28-27.21-6.27-13.08-14.9-22.85-31-22.08L712,433.14l3.79-.64c-.06-.36-.11-.72-.17-1.08H698.26c-.06.26-.11.52-.16.78l1.88.93-12.06.71c-.32-3.28-.65-6.57-1-9.86,7.6,1,7.94.93,9.43-7,.65-3.45.49-7,.69-10.58l-1.43-.64a13.22,13.22,0,0,0-2.47,2.68c-.41.8-.15,1.95-.17,2.95-.06,3.09.68,6.86-3.83,7.1-.63,0-1.49-4.1-2.26-6.3-.27-.78-.6-1.53-.91-2.3,3.49-5.6,3-9.72-2-16l5.59-6.86c1.85,5,3.67,9.9,5.48,14.81l.88-.51V377.24l-1.24-.38c-2.35,5.3-6.69,6.36-11.69,6,.32-1,.65-1.95,1-2.93,1.34-1.83,3.7-3.61,3.8-5.5.16-3.12-1.14-6.32-1.82-9.48.16-3.09.32-6.17.52-9.88,2.12-.81,3.4,0,3.67,3.52.15,1.91,1.84,3.7,2.84,5.55l2.1-.66c.19-2.7.36-5.4.59-8.1.21-2.39.05-4.94.85-7.13,1.59-4.4,1-5.83-3.45-6.68a39,39,0,0,1-5.06-1.68l-4-6,4.25-2.08c-1.56-1.81-3-3.47-3.92-4.54.9-2.21,1.78-4.33,2.65-6.45,1.93-5.88,1.82-11.36-3.07-15.93a35.65,35.65,0,0,0,1.7-3.73c.72-2.17,1.27-4.39,1.89-6.59l1.16.61c1.67,4.79,3.29,9.59,5.11,14.33.12.31,1.76,0,2.22,0,0-2.82.12-5.31,0-7.77-.33-5.93-.9-11.79-7.93-13.93l0-5,1.52-.81L688,280.93,687,278c-.17-1.44-.33-2.88-.55-4.78,5.19,1.67,8.1,4.72,8,10.38l1.49-.31V259.4l-1.51-.38c-1.78,3.72-3.55,7.44-5.88,12.33-1.19-3.92-1.88-6.18-2.56-8.45L688,252.83l9.87.25c-.32,2.67,1.27,2.86,3.37,2.84,7.82-.09,15.64,0,23.46,0,1.51,0,3-.14,4.53-.21,0-.51,0-1,0-1.52-1.67-.09-3.33-.21-5-.27L701.09,253c3.22.08,4.79-1.49,4.93-4.7.08-1.79.4-3.57.61-5.35,2.19-2.83,4.48-5.59,6.52-8.52,2.66-3.81,4.14-9,10.6-8.58l-4.13-1.53L732.23,206c5.08,1.56,10.15,2.83,15.14-.26q2.53,3.33,5,6.67L761.85,225c-2.23,2.78-4.45,5.58-6.69,8.34-2,2.41-4.23,4.61-5.79,7.24-.64,1.09-.25,3.38.54,4.51.49.69,2.86.72,4,.2,5.08-2.32,10-4.93,15-7.44ZM702.14,405.67l25.71-.42,0-2h-29c0,.81,0,1.61,0,2.41ZM698.21,315v1.18H727.9c0-.39,0-.79,0-1.18Zm32-89.45c4.29,3,20.58,2.59,23.57,0Zm-7.48,117.33-.18,1.22h30.45c0-.41,0-.81,0-1.22Zm-24.4,28.53c0,.33,0,.67,0,1h32.24c0-.34,0-.68,0-1Zm54.93,61.23,0-.92H722.69l0,.92Zm0-145v-.94H725.39v.94Zm.18,28.75v-1.27h-17c0,.43,0,.85,0,1.27Zm.07,88.54-.17-1.32h-17c0,.44,0,.88,0,1.32Zm-55.16-118.4v.89h19.82l-.05-.89Zm38.24-32.11c0,.33,0,.66,0,1H753.3v-1ZM753.3,372.55v-1H736.62v1Z" style="fill:#cee1fd"/><path d="M761.85,225l-9.43-12.51q-2.52-3.34-5-6.67L740,195c.63-1.93,1-4,1.94-5.74,2.21-3.88,4.75-7.57,7.15-11.33Q757.37,192,765.68,206q2.6,4.62,5.21,9.23c.07.79.14,1.57.2,2.36Z" style="fill:#506286"/><path d="M765.68,206Q757.37,192,749.07,177.9l4.76-4.28c4.33.08,8.66.29,13,.19,2.84-.06,4.28.61,4.2,3.85-.23,9.49-.22,19-.3,28.46Z" style="fill:#86bffd"/><path d="M697.91,253.08l-9.87-.25-5.15-.85-8.74-2.08-1.83-2.13c1.3-4.86,4.23-6.23,11-6.85,4.61-.43,9.11-2.18,13.66-3.34l9.69,5.4c-.21,1.78-.53,3.56-.61,5.35-.14,3.21-1.71,4.78-4.93,4.7Z" style="fill:#252545"/><path d="M740,195l7.39,10.81c-5,3.09-10.06,1.82-15.14.26Z" style="fill:#93c7fd"/><path d="M737.09,156.88l-3.59-6.72,9.37.86Z" style="fill:#468df2"/><path d="M711.19,206.84c.25,0,.49,0,.74,0-.23.39-.46.77-.68,1.16l-.42-.13Z" style="fill:#b6defc"/><path d="M761.85,225l9.24-7.33c2.17,3,4.65,5.88,6.32,9.15.61,1.19-.3,3.69-1.27,5-1.3,1.8-3.35,3.06-5.08,4.56l-2.12,1.43c-5,2.51-10,5.12-15,7.44-1.14.52-3.51.49-4-.2-.79-1.13-1.18-3.42-.54-4.51,1.56-2.63,3.83-4.83,5.79-7.24C757.4,230.54,759.62,227.74,761.85,225Z" style="fill:#252545"/><path d="M765.68,206l5,.08.18,9.15Q768.28,210.65,765.68,206Z" style="fill:#dae8fd"/><path d="M771.2,241.91a1.3,1.3,0,0,1,0-.95,3.36,3.36,0,0,1,.28.68C771.51,241.7,771.3,241.82,771.2,241.91Z" style="fill:#5085dd"/><path d="M840,398.93c.38-3.83-.59-7.66,3-11.1,1.81-1.71,3.33-1.28,4.94-1.91l0,0-8,13Z" style="fill:#9ec303"/><path d="M856,377.94q-3.51,3.49-7,7l0,0,7-7Z" style="fill:#9ec303"/><path d="M856,377.92c.34-.83.67-1.67,1-2.5l.84.47L856,377.94Z" style="fill:#9ec303"/><path d="M863,369.94l-.4,1.31-.38-.26.76-1.07Z" style="fill:#9ec303"/><path d="M840,398.92c-.33.67-.66,1.34-1,2h0c.33-.67.66-1.34,1-2Z" style="fill:#9ec303"/><path d="M849,384.94c-.34.33-.67.66-1,1l0,0,1-1Z" style="fill:#9ec303"/><path d="M772.18,87l-10.84-1.83c-.44-1.66-1.43-3.39-1.22-5,.74-5.54,1.74-11.06,2.94-16.52,1-4.42,3.31-7.57,8.57-6.81-1.48,9.85-1.13,10.74,5.48,14-.69,4-1.2,8.08-2.17,12C774.56,84.33,773.13,85.59,772.18,87Z" style="fill:#5085dd"/><path d="M771.63,56.84c-5.26-.76-7.59,2.39-8.57,6.81-1.2,5.46-2.2,11-2.94,16.52-.21,1.57.78,3.3,1.22,5-.39,4.41-.84,8.82-1.14,13.24-.17,2.5-.92,3.47-3.25,1.74,0-8.32-.23-16.65.16-25,.21-4.69,1.52-9.32,2.22-14a13.63,13.63,0,0,0-.32-3.27L767.37,53l4.61.92C771.87,54.86,771.75,55.85,771.63,56.84Z" style="fill:#468df2"/><path d="M772,53.87,767.37,53c-.09-2.32-.17-4.63-.26-7C771.49,46.92,772.13,50.15,772,53.87Z" style="fill:#fcfcfd"/><path d="M935.93,219.89l-1,3.58Z" style="fill:#fefefe"/><path d="M924.59,261.48l-1,1.49-.51-.17c.18-.74.37-1.47.55-2.21Z" style="fill:#fefefe"/><path d="M898,322.34c0-.47,0-.94.07-1.41C898.05,321.4,898,321.87,898,322.34Z" style="fill:#fefefe"/><path d="M728,82h-1.94c-.32,2.08-.6,4-.89,5.83a22.81,22.81,0,0,0-2.58-2.62c-.24-.18-1.11.46-1.69.72-8.55,0-8.55,0-9.51-6.11,7.39-2.21,10.91-1.33,12.2,3.34.34-1.44.62-2.63,1.13-4.83Z" style="fill:#b6defc"/><path d="M723,94.8h-5.87l-2.68-5.57,6.5-.34Z" style="fill:#b6defc"/><path d="M751.85,88.9c0,3,0,5.92,0,8.88l-5-1.45Z" style="fill:#fcfcfd"/><path d="M726.35,76.36H713.92v-1h12.43Z" style="fill:#a7d4fc"/><path d="M397,738c.1,5.68-1.9,9.07-6.11,9.75-5.36.88-8.22-2.21-9.92-6.82-.65-1.16-1.29-2.33-1.93-3.49l17.9-2.58Z" style="fill:#f7c6ab"/><path d="M447.09,554.85c-3.66,0-7.33.18-11-.06-2.81-.19-5.12-1.25-5.14-4.82s2.23-4.82,5.06-4.89a220.74,220.74,0,0,1,22.43.14c1.91.14,3.62,3,5.42,4.67-1.78,1.66-3.34,4.32-5.37,4.75C454.86,555.42,450.92,554.86,447.09,554.85Z" style="fill:#404173"/><path d="M401,554.84c-3.65,0-7.45.6-10.91-.22-2.24-.52-5.35-2.9-5.66-4.84-.58-3.6,2.61-4.82,6-4.8,6.81,0,13.62,0,20.43,0,3.46,0,6.48,1.48,5.79,5-.38,1.92-3.49,4.09-5.75,4.67-3.11.8-6.59.2-9.91.2Z" style="fill:#404173"/><path d="M370.65,551c-1.82,1-3.72,2.79-5.44,2.64s-3.25-2.29-4.86-3.55c1.67-1.7,3.12-4.27,5.09-4.78,1.37-.35,3.47,2.14,5.25,3.36C370.68,549.49,370.66,550.26,370.65,551Z" style="fill:#404173"/><path d="M379.06,737.4c.64,1.16,1.28,2.33,1.93,3.49-1.17,2.28-2.34,4.56-3.42,6.69A67.3,67.3,0,0,1,344,736l-.15-2.88q0-3.06,0-6.12c8.75-3.18,17.64-2.6,26.58-1.05a92.25,92.25,0,0,0,4.61,8.69C375.89,735.88,377.69,736.49,379.06,737.4Z" style="fill:#dfca9f"/><path d="M334.49,561l-.39-1.14Z" style="fill:#7d8daa"/><path d="M307,531.07c-1.36-4.94-2.36-10-4.18-14.76-1.69-4.43-5.36-7-10.18-7.76q6.09-23.83,12.18-47.67c.86-3.37,2-6.69,2.59-10.11s2.22-4.41,5.43-3.89c11.25,1.81,22.5,3.54,34.43,5.4-1.24,5.22-2.26,10-3.52,14.74-5.61,21-11.35,41.91-16.87,62.91-.93,3.53-2.66,4.52-6,3.81-2.25-.48-4.59-.58-6.88-.85Zm6.46-67.66a18.49,18.49,0,0,0-2.69.5c-1.17.4-2.29,1-3.43,1.49,1,.84,1.79,2.1,2.9,2.44,2.82.86,5.75,1.31,8.89,2,.52-1.2,1-2.34,1.46-3.41l3.29.65c-1.25-3-2.37-5.7-3.75-9l-2.82-.52,10.23-3.65.15-1.28-17-1.62-1.08,1.5,4.94,4.52a5.78,5.78,0,0,1-1.49.72c-.95.25-2.08,0-2.91.46C307.69,459.46,309,461.3,313.5,463.41Zm9.48,20a11.52,11.52,0,0,0-2.7.58,32.84,32.84,0,0,0-3.18,2.09,12.66,12.66,0,0,0,2.93,1.86c2.66.79,5.4,1.31,8.22,2,1.12-3.35,2.14-6.42,3.14-9.4l3.8.92.42-1.27L331.18,478c.67-1.84,1.26-3.43,2.15-5.88-3.94-.19-7.45-.53-10.94-.43-1,0-2.05,1.28-3.08,2,.91.75,1.72,1.87,2.76,2.17a67.24,67.24,0,0,0,6.93,1.33l-.1.58-10.6.5-.52,1.41Zm11.84-14.51a38.32,38.32,0,0,0,1.9-5.81,7.05,7.05,0,0,0-.63-4.17c-.35-.63-2.55-1.06-3-.63a8.1,8.1,0,0,0-1.93,3.76c-.5,1.94-.64,4-1,6.26a4.31,4.31,0,0,0,1.42.56A32.09,32.09,0,0,0,334.82,468.87Z" style="fill:#a7d4fc"/><path d="M282.07,522.62l5.89,1.73c-1.72,4.1-.28,5.52,4.07,5.67,4,.13,8,1.21,12.05,1.87l-51.48-.16-13.86-2.88.39-4,13.84,1c8.44,1,16.86,2.18,25.31,2.94C281.87,529.18,283.37,526.36,282.07,522.62Z" style="fill:#5f96d5"/><path d="M304.08,531.89c-4-.66-8-1.74-12.05-1.87-4.35-.15-5.79-1.57-4.07-5.67.5-.08,1-.14,1.48-.25,9.25-2.15,8.85-2.07,15.73,7.6Z" style="fill:#a7d4fc"/><path d="M238.74,528.85l13.86,2.88-20.43,0c0-1.06-.07-2.12-.1-3.18Z" style="fill:#404173"/><path d="M799.83,449.86l8.88-18.32,1.53.71-8.66,18.33Z" style="fill:#9ec303"/><path d="M814,427.92l-3.19,2.35c.52-3.34.93-6,1.22-7.82l5-2.52q-1.5,4-3,8Z" style="fill:#9ec303"/><path d="M816.47,419.56l5.28-7.44,1.19.86-5.18,7.49Z" style="fill:#9ec303"/><path d="M818,436.94q1,2.49,2,5l0,0c-.67-1.66-1.34-3.33-2-5Z" style="fill:#9ec303"/><path d="M824,436.93c.27-1.15.53-2.31.79-3.46l1.28.61L824,436.93Z" style="fill:#9ec303"/><path d="M815,429.94l1,3,0,0c-.33-1-.67-2-1-3Z" style="fill:#9ec303"/><path d="M817.18,451.57a3.63,3.63,0,0,1,.47.6c0,.07-.18.37-.26.36a3.8,3.8,0,0,1-.78-.22Z" style="fill:#9ec303"/><path d="M817,434.94c.34.66.67,1.33,1,2h0c-.34-.67-.67-1.34-1-2Z" style="fill:#9ec303"/><path d="M828,427.93l.36-1.3-.38,1.29Z" style="fill:#9ec303"/><path d="M816,432.94l1,2h0c-.34-.67-.67-1.34-1-2Z" style="fill:#9ec303"/><path d="M814,427.94c.34.66.67,1.33,1,2h0c-.34-.67-.67-1.34-1-2Z" style="fill:#9ec303"/><path d="M824,436.93l-.36,1.3.36-1.3Z" style="fill:#9ec303"/><path d="M819,447.92l-.35,1.31c.12-.43.24-.86.37-1.29Z" style="fill:#9ec303"/><path d="M828,427.92c-.12.44-.23.88-.35,1.32.12-.44.24-.87.37-1.31Z" style="fill:#9ec303"/><path d="M365.94,205.84l3-7.9,1.08-.05L523,198c-.67,2.64-1.33,5.28-2,7.92Z" style="fill:#cee1fd"/><path d="M527.23,456.87c-5,0-10,.07-15,0-5.51-.1-8.39-2.77-8.48-7.66-.09-5.09,2.94-8.13,8.53-8.18q15-.13,30,0c4.85,0,8.5,3.64,8.46,8,0,4.56-3.41,7.75-8.52,7.83S532.23,456.87,527.23,456.87Z" style="fill:#5f96d5"/><path d="M334,246c6.76.5,9.8,4.63,11.86,10.75,1.47,4.36,4.61,8.16,7,12.21-2,6.38-6.68,9.61-12.89,11.06l.5-6.78-3.2-.57a13.6,13.6,0,0,1,.36-3.81c2.77-7.13,2.61-7.66-4.21-11.08-1.14-.56-2.21-1.25-3.3-1.87-3.39,4.85-4.12,9.16.7,13.29.77.67.68,2.35,1,3.56l-5.12,6.72L318.92,273c4.06-2.91.83-6.69,1.2-10,2.82-5.06,5.42-10.27,8.61-15.09C329.55,246.59,332.22,246.56,334,246Z" style="fill:#506286"/><path d="M515,378c9-.08,17.9-.09,26.85-.25,4.65-.09,7.83,1.9,8.63,6.46.73,4.2-1,7.44-5.37,8.81l-1.14.39-32,.14-2.08-.54-.15,0Q512.39,385.52,515,378Z" style="fill:#5f96d5"/><path d="M337.07,363.05c8.86,1.31,15.86,7.16,17.76,15,2.4,9.88-.7,17.77-8.86,23.74l-5.9-4.85L337,394.64l4.1-7.48c.56-1.38,1.13-2.76,1.7-4.14v-9.87l-8.43-2.29Z" style="fill:#a7d4fc"/><path d="M510.07,314.93l28.88,0-5.82,15.71c-6.82.05-13.66.45-20.44,0-2.62-.18-5.11-2.34-7.66-3.6Z" style="fill:#93c7fd"/><path d="M338,302c8.44,1.19,13.67,6.3,16.45,14,3,8.37.33,15.59-5.24,22-.48.55-1.46.68-2.2,1l-7-3-3-1.89c.37-1.1.75-2.2,1.12-3.31l1.84-.89,0,.07c3.88-2.88,5.53-8.82,3.67-14.14-1.69-4.85-5.27-7-10.4-6.43Z" style="fill:#a7d4fc"/><path d="M529.93,266.75c-5.79.08-11.57.22-17.35.22-5.41,0-8.31-2.27-8.79-6.66-.54-5,1.46-7.52,7-8.94l1.17-.2,22,0a46.36,46.36,0,0,1-.87,5.44C532.17,260,531,263.38,529.93,266.75Z" style="fill:#5f96d5"/><path d="M337.07,363.05q-1.36,3.92-2.75,7.81c-6.95.92-9.45,4.52-9,12.95-3.91-.54-5.27,2.53-7.15,5a34.9,34.9,0,0,1-3.16,3.16C308.1,380.05,319.7,360,337.07,363.05Z" style="fill:#cee1fd"/><path d="M403.57,245c-10.66,0-21.33.08-32-.1-1.48,0-2.93-1.33-4.4-2,1.42-.68,2.84-1.94,4.26-2q32-.19,64,0c1.47,0,2.94,1.18,4.41,1.82-1.59.76-3.17,2.15-4.77,2.18C424.56,245.07,414.07,245,403.57,245Z" style="fill:#93c7fd"/><path d="M338,302l-4.74,7.41c-2.9,1-6.76,1.21-8.38,3.22-1.36,1.69-.08,5.49,0,8.35-4.57,2.42-6.53,7-9,11.08-4.2-6.08-3.45-12.43-.6-18.62C319.23,304.93,330.67,299.32,338,302Z" style="fill:#cee1fd"/><path d="M529.93,266.75c1.07-3.37,2.24-6.71,3.19-10.12a46.36,46.36,0,0,0,.87-5.44c2.81-.05,5.62-.26,8.41-.13,4.6.22,8.59,4.17,8.46,8.12-.16,4.55-3.51,7.69-8.55,7.76C538.18,267,534.05,266.82,529.93,266.75Z" style="fill:#93c7fd"/><path d="M521,205.89c.67-2.64,1.33-5.28,2-7.92l32-.06c-.35,2.6-.71,5.2-1.06,7.8Z" style="fill:#a7d4fc"/><path d="M354.37,451.1c-1.66-5.57-7-3.54-10.6-5.15-.82-6.66-2.46-12.66-10.77-13.22.68-2.23,1.37-4.45,2.05-6.68,12.08.53,21.71,11,20.81,22.78C355.8,449.62,354.89,450.34,354.37,451.1Z" style="fill:#b6defc"/><path d="M392,307.87c-7,0-14,.11-21-.1-1.32,0-2.6-1.35-3.9-2.07,1.3-.89,2.59-2.55,3.91-2.56q21.46-.28,42.93,0c1.32,0,2.62,1.67,3.93,2.57-1.32.72-2.61,2-3.94,2.06C406.64,308,399.32,307.87,392,307.87Z" style="fill:#93c7fd"/><path d="M563.06,456.87c-7.22,0-8-.78-8-8,0-6.85,1-7.86,7.74-7.88,7.3,0,8.18.83,8.18,7.87C571,456.15,570.3,456.87,563.06,456.87Z" style="fill:#5f96d5"/><path d="M426.71,432.08c-18.3,0-36.6,0-54.9-.07-1.56,0-3.11-1.05-4.66-1.61,1.52-.83,3-2.39,4.56-2.4,18.46-.08,36.92.06,55.38.14C427,429.45,426.84,430.77,426.71,432.08Z" style="fill:#93c7fd"/><path d="M571,385.89c0,6.82-1.15,7.86-8.31,7.82-6.64,0-7.68-1.28-7.6-9.07.06-6.3.89-6.92,9.08-6.84C570.33,377.87,571.06,378.73,571,385.89Z" style="fill:#5f96d5"/><path d="M563.38,314.74c7,0,7.67.72,7.63,8.28,0,6.52-1.22,7.63-8,7.6s-7.93-1.18-7.89-8.77C555.13,315.39,555.91,314.72,563.38,314.74Z" style="fill:#5f96d5"/><path d="M395.79,369c-8.15,0-16.29.08-24.43-.09-1.37,0-2.73-1.16-4.09-1.79,1.39-.77,2.77-2.19,4.16-2.2q24.68-.24,49.36,0c1.28,0,2.55,1.32,3.82,2-1.3.68-2.58,1.94-3.9,2C412.41,369.1,404.1,369,395.79,369Z" style="fill:#93c7fd"/><path d="M493,250.7c-4.9,2.8-72.27,2.56-75.89,0Z" style="fill:#a1aec4"/><path d="M478.11,307.59c-13.64.09-27.29.23-40.93.18-1.06,0-2.11-1.39-3.17-2.14,1.19-.86,2.37-2.48,3.56-2.49,14.15-.1,28.29,0,42.44.12C479.38,304.7,478.74,306.14,478.11,307.59Z" style="fill:#93c7fd"/><path d="M533.13,330.62,539,314.91c2.86.42,6.5-.06,8.37,1.53s3.16,5.4,2.93,8.07c-.39,4.33-4.34,5.95-8.26,6.36C539.07,331.18,536.08,330.73,533.13,330.62Z" style="fill:#5f96d5"/><path d="M430.22,217c5,0,10-.18,15,.11,1.43.08,2.78,1.5,4.16,2.31-1.28.81-2.55,2.32-3.84,2.34-10.66.19-21.33.17-32,0-1.13,0-2.23-1.42-3.34-2.19,1.17-.85,2.31-2.39,3.52-2.45C419.21,216.82,424.72,217,430.22,217Z" style="fill:#93c7fd"/><path d="M335.05,426.05c-.68,2.23-1.37,4.45-2.05,6.68a11.85,11.85,0,0,0-8.08,10.2L315,441.16C316.27,432.14,324.7,425.78,335.05,426.05Z" style="fill:#cee1fd"/><path d="M368.57,463.45h59.68C425.49,466.22,373.16,466.63,368.57,463.45Z" style="fill:#a1aec4"/><path d="M315.91,332c2.47-4.12,4.43-8.66,9-11.08l1,1c1.49,3,3,6,4.44,9,.6,1.24,1.06,2.55,1.58,3.83l-2.9,2L323.94,341Z" style="fill:#b6defc"/><path d="M491.68,331.61H405.75v-1.1h85.93Z" style="fill:#a1aec4"/><ellipse cx="411.1" cy="259.92" rx="60.05" ry="0.72" style="fill:#a1aec4"/><path d="M315,391.93a34.9,34.9,0,0,0,3.16-3.16c1.88-2.43,3.24-5.5,7.15-5l.26-.06.25.09c.41,1.13.81,2.25,1.21,3.37l5.15,8.43L329,398l-5.23,4.07Z" style="fill:#b6defc"/><path d="M368.63,339.29h83.86l0,.86H368.67Z" style="fill:#a1aec4"/><path d="M564,251.21c6.21.13,7,1.14,7,8.42,0,6.53-.78,7.51-7,7.27-2.49-.1-5-1.26-7.42-1.94a50.45,50.45,0,0,0,3.07-4.65C561.21,257.33,562.55,254.25,564,251.21Z" style="fill:#5f96d5"/><path d="M439.62,463.43h52.47C489.26,466.49,442.88,466.57,439.62,463.43Z" style="fill:#a1aec4"/><path d="M473.74,245c-5.14,0-10.29.16-15.41-.11-1.43-.08-2.8-1.45-4.2-2.22,1.31-.62,2.62-1.75,3.94-1.77q15.4-.23,30.81,0c1.39,0,2.76,1.37,4.14,2.1-1.46.66-2.89,1.81-4.38,1.88C483.68,245.11,478.71,245,473.74,245Z" style="fill:#93c7fd"/><path d="M453.91,364.9h36.81c.56,4.17-2,4.17-4.52,4.16q-16.67,0-33.32-.12C453.22,367.6,453.56,366.25,453.91,364.9Z" style="fill:#5f96d5"/><path d="M436.34,401.54H368.61c0-.34,0-.68,0-1h67.76Z" style="fill:#a1aec4"/><path d="M412.29,393.35H368C371.43,390.6,408.19,390.29,412.29,393.35Z" style="fill:#a1aec4"/><path d="M400,494.88c-9.61,0-19.23.16-28.84,0-1.3,0-2.58-1.3-3.86-2,1.28-.71,2.56-2,3.85-2,9.94-.12,19.89,0,29.83.05C400.63,492.25,400.31,493.56,400,494.88Z" style="fill:#93c7fd"/><path d="M441.08,490.94,473,491l-1,3.88-31-.1C441,493.49,441,492.21,441.08,490.94Z" style="fill:#86bffd"/><ellipse cx="398.98" cy="383.97" rx="42.91" ry="0.72" style="fill:#a1aec4"/><ellipse cx="398.07" cy="277.03" rx="41.64" ry="0.66" style="fill:#a1aec4"/><path d="M515,378q-2.6,7.5-5.21,15c-5.21-.6-6.21-4.17-5.87-8.53s2.9-6.45,7.14-6.61C512.36,377.84,513.68,378,515,378Z" style="fill:#93c7fd"/><path d="M368.62,322.24h57.73v.86H368.62Z" style="fill:#a1aec4"/><path d="M455.63,502.13H417.5v-1.27h38.1Z" style="fill:#7d8daa"/><ellipse cx="441.67" cy="392.49" rx="26.26" ry="0.99" style="fill:#a1aec4"/><path d="M466,428c7.83,0,15.67-.15,23.49,0,1.18,0,2.33,1.16,3.5,1.79-1.18.77-2.35,2.18-3.55,2.2-7.82.13-15.65-.05-23.47-.12Z" style="fill:#93c7fd"/><path d="M403.73,252.67q-17.62.06-35.24,0c0-.65,0-1.31,0-2h35.24C403.74,251.34,403.73,252,403.73,252.67Z" style="fill:#a1aec4"/><path d="M368.6,500.4H404c-.56,1-.9,2.22-1.26,2.22-11.46.1-22.92.08-34.39.08Z" style="fill:#a1aec4"/><path d="M491.77,277.51H439.7v-1h52Z" style="fill:#a1aec4"/><path d="M420,447.93H368.61v-1.49h51.68C420.19,446.94,420.1,447.43,420,447.93Z" style="fill:#a1aec4"/><path d="M323.94,341l5.07-4.11c1.3,5.34,6.25,1.28,8.87,4.13.88-2.06,1.52-3.54,2.16-5l7,3C340.92,344.78,332,345.55,323.94,341Z" style="fill:#a1aec4"/><path d="M450.21,376.3H418c0-.74,0-1.47,0-2.2,10.33.34,20.64-.85,31,.78C449.4,375.35,449.81,375.82,450.21,376.3Z" style="fill:#a1aec4"/><path d="M448.34,400.49h43v1.09h-43Z" style="fill:#7d8daa"/><path d="M332.17,395.64,327,387.21l14,0-4.1,7.48Z" style="fill:#506286"/><path d="M393.58,222a69.68,69.68,0,0,1-7.92-.1c-.94-.11-1.75-1.39-2.62-2.14.81-.63,1.6-1.79,2.43-1.81,5.45-.17,10.9-.2,16.35,0,.92,0,1.8,1.38,2.7,2.13-1,.65-2,1.75-3,1.86a77.44,77.44,0,0,1-7.92.09Z" style="fill:#93c7fd"/><path d="M484,384.8H441.63l-.19-.79c.59-.3,1.19-.84,1.78-.85q19-.17,37.93-.17a8.4,8.4,0,0,1,2.69,1A6.49,6.49,0,0,1,484,384.8Z" style="fill:#7d8daa"/><path d="M472,494.87l1-3.88c5.82,0,11.64-.15,17.45,0,1,0,2.05,1.11,3.08,1.7-1,.79-2.06,2.23-3.11,2.26C484.26,495.1,478.11,494.93,472,494.87Z" style="fill:#5f96d5"/><path d="M326.73,279.45l5.12-6.72,3.07,3.76,2.39-3.85,3.2.57L340,280Z" style="fill:#a1aec4"/><path d="M453.21,456.46H415.39v-1h37.85Z" style="fill:#637ca8"/><path d="M418.42,313.31h37.09l0,1H418.41Z" style="fill:#a1aec4"/><path d="M461.82,439.55l-37.68.11c-.08-.62-.15-1.23-.23-1.85l38.16,0C462,438.41,461.9,439,461.82,439.55Z" style="fill:#637ca8"/><path d="M467.69,446.4h24.46C489.8,449.2,471.78,449.58,467.69,446.4Z" style="fill:#a1aec4"/><path d="M564,251.21c-1.43,3-2.77,6.12-4.32,9.1a50.45,50.45,0,0,1-3.07,4.65c-.24-3.86-1.21-7.89-.33-11.47C556.58,252.17,561.28,251.94,564,251.21Z" style="fill:#93c7fd"/><path d="M492.05,502H468.17v-1.3h23.9C492.06,501.17,492.06,501.61,492.05,502Z" style="fill:#7d8daa"/><path d="M403.39,314.51H368.63v-1h34.78Z" style="fill:#a1aec4"/><path d="M368.62,438.26h34.82l0,.84H368.64Z" style="fill:#a1aec4"/><path d="M400,494.88c.33-1.32.65-2.63,1-3.95,4.66-.08,9.32-.31,14-.13,1,0,2,1.5,3,2.32-1,.64-2,1.81-3,1.84C410,495.1,405,494.94,400,494.88Z" style="fill:#5f96d5"/><path d="M420,447.93c.1-.5.19-1,.29-1.49l33.41-.08c.08.5.15,1,.23,1.51Z" style="fill:#506286"/><path d="M478.11,307.59c.63-1.45,1.27-2.89,1.9-4.33l9-.09,1.94,0,2.33,2.53-2.33,2h-2Z" style="fill:#5f96d5"/><path d="M394.06,509.06h32.41v1.65H393.17C393.46,510.16,393.76,509.61,394.06,509.06Z" style="fill:#637ca8"/><path d="M493.31,393.19h-22C473.42,390.54,487.31,390.13,493.31,393.19Z" style="fill:#a1aec4"/><path d="M461.82,439.55c.08-.57.17-1.14.25-1.71h29.47v1.71Z" style="fill:#a1aec4"/><path d="M463.25,339.27h28.47C489.3,341.32,469.15,341.7,463.25,339.27Z" style="fill:#7d8daa"/><path d="M442.45,509.44h24.89v1.05H442.45Z" style="fill:#a1aec4"/><path d="M426.71,432.08c.13-1.31.25-2.63.38-3.94,3.27-.09,6.56-.37,9.82-.15,1,.07,2,1.44,3,2.21-1,.66-1.88,1.83-2.88,1.89C433.6,432.3,430.15,432.11,426.71,432.08Z" style="fill:#5f96d5"/><path d="M442,322.22h24.55v1H442Z" style="fill:#a1aec4"/><path d="M394.06,509.06c-.3.55-.6,1.1-.89,1.65H368.62l0-1.65Z" style="fill:#a1aec4"/><path d="M368.6,330.46h24l0,1h-24Z" style="fill:#a1aec4"/><path d="M368.64,455.19h23.95l0,1H368.68Z" style="fill:#a1aec4"/><path d="M452.58,268.73h-46v-.84H452.5Z" style="fill:#a1aec4"/><path d="M491.52,260.6H468.43l0-1H491.5Z" style="fill:#a1aec4"/><path d="M466,428l0,3.85c-3.11.11-6.23.39-9.32.23-.93-.05-1.8-1.33-2.69-2.05.9-.72,1.76-2,2.71-2C459.8,427.76,462.92,428,466,428Z" style="fill:#5f96d5"/><path d="M510.07,314.93,505,327C502.07,320.67,503.6,317,510.07,314.93Z" style="fill:#5f96d5"/><path d="M464.62,455.61h22.57l0,.91H464.61Z" style="fill:#a1aec4"/><path d="M453.91,364.9c-.35,1.35-.69,2.7-1,4-2.79,0-5.59.11-8.37-.1-.74-.06-1.4-1.11-2.1-1.7.71-.74,1.38-2.07,2.14-2.13C447.65,364.76,450.78,364.9,453.91,364.9Z" style="fill:#93c7fd"/><path d="M320.12,262.93c-.37,3.35,2.86,7.13-1.2,10l-4-6Z" style="fill:#b6defc"/><path d="M340.07,397l5.9,4.85-8.57,3.81Z" style="fill:#a1aec4"/><path d="M450.21,376.3c-.4-.48-.81-.95-1.21-1.42l38-.15c0,.45,0,.9,0,1.35Z" style="fill:#637ca8"/><path d="M369,374.93h34v.74H368.85Z" style="fill:#a1aec4"/><path d="M323.75,402.09,329,398l3.26,5.86-.89,1.35Z" style="fill:#a1aec4"/><path d="M474.71,313.6h17l.07.79h-17Z" style="fill:#637ca8"/><path d="M441.08,490.94c0,1.27-.07,2.55-.1,3.83-2.5-.09-5.54,1.85-7-1.91Z" style="fill:#5f96d5"/><path d="M491,268.8H465v-.64h26.21Z" style="fill:#7d8daa"/><ellipse cx="380.66" cy="268.43" rx="16.68" ry="0.45" style="fill:#7d8daa"/><path d="M484,384.8a6.49,6.49,0,0,0-.11-.77h9.34C489.87,386.66,487,386.55,484,384.8Z" style="fill:#dae8fd"/><path d="M487,376.08c0-.45,0-.9,0-1.35l4.79-.34,0,1.95Z" style="fill:#a1aec4"/><path d="M423.91,437.81c.08.62.15,1.23.23,1.85h-6.52l-.06-1.51Z" style="fill:#a1aec4"/><path d="M491,303.19l-1.94,0Z" style="fill:#93c7fd"/><path d="M489,307.75h0Z" style="fill:#93c7fd"/><path d="M453.93,447.87c-.08-.5-.15-1-.23-1.51C453.78,446.86,453.85,447.37,453.93,447.87Z" style="fill:#a1aec4"/><path d="M509.93,393l2.08.54Z" style="fill:#a1aec4"/><path d="M512,251.17l-1.17.2Z" style="fill:#93c7fd"/><path d="M352.9,456.87l.6-1.27Z" style="fill:#b6defc"/><path d="M544,393.44l1.14-.39Z" style="fill:#a1aec4"/><path d="M582.93,206l1.15.78-1,.13C583,206.59,583,206.29,582.93,206Z" style="fill:#b6defc"/><path d="M687.92,433.84q6-.34,12.06-.72l12,0,19.9,1.72c-.12,3.64-.09,7.3-.42,10.92-.27,3.05-1,6.06-1.48,9.09l-22.82.35v2.4L728,458l-6,8a1.75,1.75,0,0,1-.72,0l-2.12,1.4,2,1.63.79.7c.33,2.13.65,4.26,1,6.4l-15.38.67v1.88l11.51.6c-.4,3.24-.71,6.5-1.24,9.73-.48,3-1.2,5.95-1.81,8.93-7.3,0-14.6,0-21.9,0-7,0-13.92-.12-20.89-.13-4.39,0-8.78.07-13.18.11l-2-.92H629.16l3.83-7,2.93-.09c5.26,2.65,10.34,2.63,15.18-1l4.71-3c1.94-1.11,4.41-1.79,5.71-3.4,6.39-7.93,7.77-17.12,4.12-26.39-1.55-3.94-5.63-6.88-8.56-10.27L648,440.91c.33-2.32.67-4.64,1-7l19.06-.13h5.37c1.17-4.06-1-9.18,5.45-8.93,7.09.28,2.55,5.6,3.86,8.95Zm-17,32.77c4.83,3.1,41.43,2.93,45.11,0Zm1.33-11c5.12,3.57,27.34,2.73,29.07,0Zm.34,21.77c0,.31,0,.61,0,.92h28.77c0-.31,0-.61-.05-.92Z" style="fill:#a7d4fc"/><path d="M633,490l-3.83,7h28.91c-.83,1-1.68,2.81-2.49,2.8-11.47-.23-23,1.67-34-4.63-11.83-6.78-20.61-22.48-17.39-35.11,4-15.83,15-25.92,31.32-26.12,4.49-.05,9,0,13.47,0-.33,2.32-.67,4.64-1,7-2.46-.21-5-.89-7.36-.55-16.63,2.37-25,13-23.63,29.78.58,7.14,7.08,15.56,12.81,16.6C630.89,487.82,631.94,488.91,633,490Z" style="fill:#b6defc"/><path d="M711.19,206.84l-.36,1c-14.49,0-29,0-43.48.08-8.31,0-7.34-.85-7.34,7.6q0,105.45,0,210.9v5.39h-1.07q0-112.5,0-225Z" style="fill:#fcfcfd"/><path d="M683.89,305c4.89,4.57,5,10.05,3.07,15.93L684,322l-3.24-1.61c1-4.14,1.79-7.83,2.64-11.51l-1.27-1.31c-2.46.67-6.68.86-7,2.1-.86,3.2,0,6.87.16,10.35l1.45.12L674,321.92c-4.17.74-7.61-4.2-6.44-9.09,1.23-5.19,6.32-10.25,13.4-8.09A13,13,0,0,0,683.89,305Z" style="fill:#fcfcfd"/><path d="M684,334l4,6c0,2.34,0,4.67,0,7l-2.09,4h-1.82l-3.93-2.72,1.58-.28a96.64,96.64,0,0,0-.13-10.77c0-.29-4.67-1.09-5.65-.12-3.74,3.7-2,7.78.7,11.52l-2.72,2.39c-3.74.6-7.42-4.42-6.47-8.84C669.18,334.09,674.61,331.42,684,334Z" style="fill:#fcfcfd"/><path d="M686,365c.68,3.16,2,6.36,1.82,9.48-.1,1.89-2.46,3.67-3.8,5.5l-3-1.83c.82-4.25,1.53-7.91,2.53-13.13-4,1.11-7.54,1.08-8.39,2.57-1.13,2,0,5.17-.14,7.82a34.87,34.87,0,0,1-1.17,5.45c-4.67-1-6.19-3.44-5.81-9.15.35-5.4,3.6-9.72,8.22-9.55C679.5,362.27,682.71,364,686,365Z" style="fill:#fcfcfd"/><path d="M673.83,234.86c-4.73-.06-5.15-3.66-6.06-7.09-1.29-4.89,2-7.48,5-9.9,3.88-3.1,11.62-1.31,14,2.87,2.7,4.76,1.37,11-2.81,13.23l-3.08-1.57c.91-4.23,1.7-7.93,2.85-13.29-4.19,1.07-8.64,1.31-8.88,2.44-.7,3.34.26,7,.56,10.59l1.14-.15Z" style="fill:#fcfcfd"/><path d="M687,278l1,2.93c0,.67,0,1.34,0,2l0,5L684,292l-3.65-2.24,1.38-.33v-11c-2.07,0-5.06-.79-6,.27-3.56,3.81-1.45,7.81,1.16,11.32L673.08,293c-5.09-2.37-6.82-7.7-4.17-12.85,2.88-5.61,9.26-7.57,14.29-4.42C684.44,276.49,685.7,277.24,687,278Z" style="fill:#fcfcfd"/><path d="M684,394c5,6.25,5.51,10.37,2,16l-2,1-3.66-2.49,1.51-.24V397.12c-2.17,0-5.3-.9-6.34.18-3.49,3.68-1.35,7.62,1.13,11.23l-2.74,2.36c-5.15.21-5.89-3.22-5.94-7.21-.07-5.91,3.12-10.33,8.15-10.63C678.73,392.89,681.36,393.63,684,394Z" style="fill:#fcfcfd"/><path d="M687.92,433.84h-5.17c-1.31-3.35,3.23-8.67-3.86-8.95-6.42-.25-4.28,4.87-5.45,8.93h-5.37c-.22-8.7,1.11-10,8.89-12.9,4.19-1.56,5.49,1.76,8,3l2,.07h0C687.27,427.27,687.6,430.56,687.92,433.84Z" style="fill:#fcfcfd"/><path d="M660,497.91c4.4,0,8.79-.12,13.18-.11,7,0,13.93.11,20.89.13,7.3,0,14.6,0,21.9,0,4.11.61,8.92-1.63,12.07,2.93l-68-1C660.06,499.24,660,498.57,660,497.91Z" style="fill:#b6defc"/><path d="M673.81,380.84a34.87,34.87,0,0,0,1.17-5.45c.15-2.65-1-5.83.14-7.82.85-1.49,4.39-1.46,8.39-2.57-1,5.22-1.71,8.88-2.53,13.13l3,1.83c-.33,1-.66,2-1,2.93C679.7,383.27,675.78,386.42,673.81,380.84Z" style="fill:#a7d4fc"/><path d="M673.08,293,676.8,290c-2.61-3.51-4.72-7.51-1.16-11.32,1-1.06,4-.23,6-.27v11l-1.38.33L684,292C681.43,297,678.48,297.22,673.08,293Z" style="fill:#a7d4fc"/><path d="M673.93,410.89l2.74-2.36c-2.48-3.61-4.62-7.55-1.13-11.23,1-1.08,4.17-.17,6.34-.18v11.06l-1.51.24,3.66,2.49C681.68,415.29,677.11,415.28,673.93,410.89Z" style="fill:#a7d4fc"/><path d="M673.94,350.9l2.72-2.39c-2.69-3.74-4.44-7.82-.7-11.52,1-1,5.62-.17,5.65.12a96.64,96.64,0,0,1,.13,10.77l-1.58.28,3.93,2.72C679.78,355.23,676.25,355.24,673.94,350.9Z" style="fill:#a7d4fc"/><path d="M673.83,234.86l2.71-2.87-1.14.15c-.3-3.56-1.26-7.25-.56-10.59.24-1.13,4.69-1.37,8.88-2.44-1.15,5.36-1.94,9.06-2.85,13.29L684,234C681.9,237.89,677.83,238.25,673.83,234.86Z" style="fill:#a7d4fc"/><path d="M674,321.92l2.71-1.83-1.45-.12c-.16-3.48-1-7.15-.16-10.35.34-1.24,4.56-1.43,7-2.1l1.27,1.31c-.85,3.68-1.69,7.37-2.64,11.51L684,322c-1.66,1-3.33,2.79-5,2.79S675.65,322.93,674,321.92Z" style="fill:#a7d4fc"/><path d="M674.15,249.9l8.74,2.08c-.72,2.79-1.44,5.58-2.23,8.67l3.36,2.26c-3.34,4.07-7.11,4.07-10,0,.44-1.48,1.3-3,1.25-4.45A83,83,0,0,0,674.15,249.9Z" style="fill:#a7d4fc"/><path d="M674.15,249.9a83,83,0,0,1,1.07,8.56c0,1.47-.81,3-1.25,4.45-2.85,1.9-3.67-.53-4.77-2.25-3.35-5.27-2.08-10.46,3.12-12.89Z" style="fill:#fcfcfd"/><path d="M684,262.91l-3.36-2.26c.79-3.09,1.51-5.88,2.23-8.67l5.15.85-2.13,10.07Z" style="fill:#fcfcfd"/><path d="M685.91,350.89l2.09-4,5.21-1.94,1.08.86-4.14,8.68Z" style="fill:#cee1fd"/><path d="M687,424l-2-.07.79-1.53Z" style="fill:#cee1fd"/><path d="M324.92,442.93a11.85,11.85,0,0,1,8.08-10.2c8.31.56,9.95,6.56,10.77,13.22Z" style="fill:#506286"/><path d="M341.49,515.94c-.82-2.73-1.65-5.45-2.47-8.18l2-8.28A12.59,12.59,0,0,1,341.49,515.94Z" style="fill:#506286"/><path d="M252.89,493.84,239,488l.24-67.09c1.73-.62,4-.76,5.1-2,2.47-2.81,5.38-3.28,8.72-3Z" style="fill:#3059ac"/><path d="M147.54,188.92l-7.75-8.34c3.06-7.79,6-15.31,9.26-23.57,4.43,4.38,9.75,8.28,13.23,13.42,4.1,6,3.07,8.6-1.89,14a42.92,42.92,0,0,0-2.62,3.49Z" style="fill:#f7c6ab"/><path d="M158.17,198.91c-2.66,4.25-6,4.24-9.84,1.65-.09-.61-.19-1.23-.28-1.84a5,5,0,0,0-.21-.54l-.64-4.08c.19-1,.39-2.07.58-3.1,2.46,4.57,6.14,4.6,10.32,2.78l.23-.1C158.28,195.42,158.22,197.16,158.17,198.91Z" style="fill:#f7c6ab"/><path d="M147.2,194.1l.63,4.08-.11.33.33.21c.09.61.19,1.23.28,1.84L142.1,207c-.58-3.24-1.15-6.49-1.88-10.56Z" style="fill:#5085dd"/><path d="M158.1,193.78c-4.18,1.82-7.86,1.79-10.32-2.78l-.24-2.08,10.23-1Z" style="fill:#dfca9f"/><path d="M158.17,198.91c.05-1.75.11-3.49.16-5.23,8.07.94,8.07.94,7.34,8.28Z" style="fill:#5085dd"/><path d="M555,197.91,523,198l-153-.08q2.51-7.92,5-15.82a7,7,0,0,1,.89-.18l154.95.1,32.05-.13c4,1.11,6.52,3.6,6.95,7.85.4,4-2.12,6.73-6.63,7.22q-1.29-4.05-2.56-8.1c0-4.16-2.21-6.37-6.17-5.86-3.63.48-5.65,3.23-4.69,6.84,1.06,4,3.91,5.58,8,3.84l4.09,3.41Z" style="fill:#fcfcfd"/><path d="M702.89,191.58c-.32.77-1.08,2.06-.88,2.23a25.14,25.14,0,0,0,3.57,2.27c-.08.47-.17.95-.25,1.42H694.56l3.4-4.29c-2-3.36-5-7.17-.61-10.69,1.32-1.06,4-.43,6.34-.6,0,2.82,0,4.92,0,7Z" style="fill:#fcfcfd"/><path d="M649.94,184.86,651,183c9.34-.28,18.68-.71,28-.72,1.68,0,3.36,1.71,5,2.63l-.1.09H650Z" style="fill:#cee1fd"/><path d="M651,196.92l-2-2,0,0,31,2c0,.27,0,.54,0,.81l-27,0-.93-.74Z" style="fill:#dae8fd"/><path d="M702.89,191.58l.81-2.64c3.43,5.47,2.63-1.55,4.19-1.48l3.15,4.18-5.2,1.63,2.3,1.9Z" style="fill:#dae8fd"/><path d="M685.21,186.75c2.54,2.47,2.78,4.88-.18,7.21l0,0q0-3.46-.07-6.94Z" style="fill:#cee1fd"/><path d="M685,194l-2.9,2.13-.18-.23,3-1.94Z" style="fill:#cee1fd"/><path d="M680,197.72c0-.27,0-.54,0-.81l2-1,.18.23Z" style="fill:#cee1fd"/><path d="M684.06,184.88l1.14,1.88-.27.22-1-2Z" style="fill:#cee1fd"/><path d="M652,196.94l.93.74Z" style="fill:#cee1fd"/><path d="M600,184.9c1.72-1,3.41-2.73,5.17-2.81,7.29-.31,14.61-.33,21.9,0,2.05.09,4,1.79,6,2.75l-.13.14L600,185Z" style="fill:#cee1fd"/><path d="M633.1,195c-1.92,1-3.8,2.69-5.76,2.77a208.84,208.84,0,0,1-22.38,0c-2.07-.13-4-2.47-6-3.8l0,0c1.64.72,3.22,1.89,4.92,2.1,9.72,1.2,19.46,2.13,29-1.17Z" style="fill:#cee1fd"/><path d="M599,194c-5.23-2.07-3.07-5.08-1-8.08l.13.14.93,7.91Z" style="fill:#cee1fd"/><path d="M648,192.94q-4.15-5.28,2-8.08l.1.12c-.68,2.64-1.35,5.29-2,7.93Z" style="fill:#cee1fd"/><path d="M635.05,186.88c2.58,2.77,2.1,5.13-.95,7.16l-.16-.16,1-6.89Z" style="fill:#cee1fd"/><path d="M649,194.92l-1-2,0,0,1,2Z" style="fill:#dae8fd"/><path d="M598,185.87l2-1,0,0L598.08,186Z" style="fill:#cee1fd"/><path d="M634.1,194c-.34.32-.67.65-1,1l-.16-.16,1-1Z" style="fill:#cee1fd"/><path d="M633.07,184.86l1,1-.18.17-1-1Z" style="fill:#cee1fd"/><path d="M634.1,185.84c.32.34.63.69.95,1l-.12.11-1-1Z" style="fill:#cee1fd"/><path d="M560.73,188.83q1.28,4,2.56,8.1l-1.3.13-4.09-3.4-.06-2.44c.41-.77.82-1.55,1.24-2.32Z" style="fill:#a1aec4"/><path d="M217.49,574.91c.06.34.13.67.19,1a3.58,3.58,0,0,1-.37-.66C217.28,575.18,217.42,575,217.49,574.91Z" style="fill:#7d8daa"/><path d="M545.42,94.23c-11.88,1.5-25.81-12.17-25.52-25.07.35-15,11.08-26.9,25.71-26.7,15.24.21,26.14,11.53,26.17,26.41C571.81,82.57,560.28,95,545.42,94.23ZM566.09,68.9c1.81-10-8.87-21.31-20.25-20.8-11,.5-19,8.78-20,19.68-1,11.77,10.47,21.53,20.22,21.31C555.58,88.87,567.07,81.6,566.09,68.9Z" style="fill:#d5f6f7"/><path d="M239.19,378v0Z" style="fill:#3059ac"/><path d="M239.19,360v0Z" style="fill:#3059ac"/><path d="M239.2,332v0Z" style="fill:#3059ac"/><path d="M282.07,522.62c1.3,3.74-.2,6.56-3.79,6.24-8.45-.76-16.87-1.93-25.3-2.94,0-3.37,0-6.75,0-10.12,6.59,1.61,13.18,3.24,19.78,4.81C275.83,521.35,279,522,282.07,522.62Z" style="fill:#5085dd"/><path d="M239.13,524.87q0-6.47,0-12.92L253,515.8c0,3.37,0,6.75,0,10.12Z" style="fill:#3059ac"/><path d="M728.07,500.86c-3.15-4.56-8-2.32-12.07-2.93.61-3,1.33-5.94,1.81-8.93.53-3.23.84-6.49,1.24-9.73l9.46-.67,0-1.35-5.56-1.13c-.33-2.14-.65-4.27-1-6.4,7-.3,14.33,1.81,21-1.44,0-.77,0-1.55-.08-2.32H722l6-8,14.89-.41-.08-2.7H730c.51-3,1.21-6,1.48-9.09.33-3.62.3-7.28.42-10.92,16.13-.77,24.76,9,31,22.08-.25.73-.83,1.54-.69,2.19,1.54,6.86,1.43,13.62-2.19,19.77-4.51,7.64-4.08,16.13-5.22,24.41-.33,2.35-2.52,4.45-3.86,6.66-4.09-2.22-8-4.78-12.3-6.54C735.36,502.06,731.62,501.68,728.07,500.86Z" style="fill:#93c7fd"/><path d="M751,510c1.34-2.21,3.53-4.31,3.86-6.66,1.14-8.28.71-16.77,5.22-24.41,3.62-6.15,3.73-12.91,2.19-19.77-.14-.65.44-1.46.69-2.19,5,9.35,2.52,18-1.28,27.21-2.54,6.15-2.4,13.37-3.75,20.06a22.1,22.1,0,0,1-2.92,6.84C754.8,511.37,752.38,510.36,751,510Z" style="fill:#a7d4fc"/><path d="M698.85,405.66c0-.8,0-1.6,0-2.41h29l0,2-25.71.42Z" style="fill:#637ca8"/><path d="M698.21,315h29.68c0,.39,0,.79,0,1.18H698.22Z" style="fill:#7d8daa"/><path d="M730.26,225.54h23.57C750.84,228.13,734.55,228.53,730.26,225.54Z" style="fill:#7d8daa"/><path d="M722.78,342.87h30.28c0,.41,0,.81,0,1.22H722.6Z" style="fill:#637ca8"/><path d="M697.91,253.08l3.18-.05,23.21.84c1.66.06,3.32.18,5,.27,0,.51,0,1,0,1.52-1.51.07-3,.2-4.53.21-7.82,0-15.64,0-23.46,0C699.18,255.94,697.59,255.75,697.91,253.08Z" style="fill:#637ca8"/><path d="M698.38,371.4H730.6c0,.33,0,.67,0,1H698.37C698.37,372.07,698.38,371.73,698.38,371.4Z" style="fill:#637ca8"/><path d="M753.31,432.63H722.73l0-.92h30.59Z" style="fill:#637ca8"/><path d="M753.3,287.6H725.4v-.94H753.3Z" style="fill:#637ca8"/><path d="M753.48,316.35h-17c0-.42,0-.84,0-1.27h17Z" style="fill:#7d8daa"/><path d="M753.55,404.89H736.43c0-.44,0-.88,0-1.32h17Z" style="fill:#7d8daa"/><path d="M698.39,286.49h19.77l.05.89H698.39Z" style="fill:#637ca8"/><path d="M736.63,254.38H753.3v1H736.64C736.63,255,736.63,254.71,736.63,254.38Z" style="fill:#637ca8"/><path d="M712,433.14l-12,0-1.88-.92c0-.26.1-.52.16-.78h17.38c.06.36.11.72.17,1.08Z" style="fill:#637ca8"/><path d="M753.3,372.55H736.62v-1H753.3Z" style="fill:#637ca8"/><path d="M688.05,283c0-.68,0-1.35,0-2l1.57,1.21Z" style="fill:#dae8fd"/><path d="M698.85,405.66h0Z" style="fill:#dae8fd"/><path d="M313.5,463.41c-4.49-2.11-5.81-4-3.32-5.23.83-.42,2-.21,2.91-.46a5.78,5.78,0,0,0,1.49-.72l-4.94-4.52,1.08-1.5,17,1.62-.15,1.28-10.23,3.65,2.82.52c1.38,3.31,2.5,6,3.75,9l-3.29-.65c-.46,1.07-.94,2.21-1.46,3.41-3.14-.67-6.07-1.12-8.89-2-1.11-.34-1.94-1.6-2.9-2.44,1.14-.51,2.26-1.09,3.43-1.49A18.49,18.49,0,0,1,313.5,463.41Z" style="fill:#cee1fd"/><path d="M323,483.38l-5.2-3.73.52-1.41,10.6-.5.1-.58a67.24,67.24,0,0,1-6.93-1.33c-1-.3-1.85-1.42-2.76-2.17,1-.69,2-1.94,3.08-2,3.49-.1,7,.24,10.94.43-.89,2.45-1.48,4-2.15,5.88l4.43,2.13-.42,1.27-3.8-.92c-1,3-2,6-3.14,9.4-2.82-.66-5.56-1.18-8.22-2a12.66,12.66,0,0,1-2.93-1.86,32.84,32.84,0,0,1,3.18-2.09A11.52,11.52,0,0,1,323,483.38Z" style="fill:#cee1fd"/><path d="M334.82,468.87a32.09,32.09,0,0,1-3.23,0,4.31,4.31,0,0,1-1.42-.56c.34-2.28.48-4.32,1-6.26a8.1,8.1,0,0,1,1.93-3.76c.46-.43,2.66,0,3,.63a7.05,7.05,0,0,1,.63,4.17A38.32,38.32,0,0,1,334.82,468.87Z" style="fill:#fcfcfd"/><path d="M337.31,272.64l-2.39,3.85-3.07-3.76c-.31-1.21-.22-2.89-1-3.56-4.82-4.13-4.09-8.44-.7-13.29,1.09.62,2.16,1.31,3.3,1.87,6.82,3.42,7,3.95,4.21,11.08A13.6,13.6,0,0,0,337.31,272.64Z" style="fill:#fee5b4"/><path d="M325.81,383.84l-.25-.09-.26.06c-.43-8.43,2.07-12,9-12.95l8.43,2.29V383c-2.06-3.13-4.62-4.48-8.71-4.46C329.69,378.57,326.76,379.24,325.81,383.84Z" style="fill:#506286"/><path d="M325.81,383.84c.95-4.6,3.88-5.27,8.23-5.29,4.09,0,6.65,1.33,8.71,4.46-.57,1.39-1.14,2.77-1.7,4.15l-14,0C326.62,386.09,326.22,385,325.81,383.84Z" style="fill:#fee5b4"/><path d="M325.89,322l-1-1c-.11-2.86-1.39-6.66,0-8.35,1.62-2,5.48-2.23,8.38-3.22,5.13-.55,8.71,1.58,10.4,6.43,1.86,5.32.21,11.26-3.67,14.14,1.74-3.54,1.65-6.95-1.49-9.57C336.75,318.92,327.39,320.41,325.89,322Z" style="fill:#506286"/><path d="M325.89,322c1.5-1.59,10.86-3.08,12.61-1.61,3.14,2.62,3.23,6,1.49,9.57l0-.07-1.84.89c-.37,1.11-.75,2.21-1.12,3.31l-2.31,4.08c-1.24-1.44-2.05-2.37-2.85-3.31-.52-1.28-1-2.59-1.58-3.83C328.88,328,327.38,325,325.89,322Z" style="fill:#fee5b4"/><path d="M331.91,334.86c.8.94,1.61,1.87,2.85,3.31l2.31-4.08,3,1.89c-.64,1.49-1.28,3-2.16,5-2.62-2.85-7.57,1.21-8.87-4.13Z" style="fill:#fcfcfd"/><path d="M338.19,330.78l1.84-.89Z" style="fill:#506286"/><path d="M629.83,486.74c-5.73-1-12.23-9.46-12.81-16.6-1.36-16.76,7-27.41,23.63-29.78,2.38-.34,4.9.34,7.36.55l9.07,4.94c1,5.67-1.34,8.22-8.54,9.26-8.76-5.91-15.88-3.26-17.52,7.37C629.79,470.43,630.17,478.64,629.83,486.74Z" style="fill:#fcfcfd"/><path d="M629.83,486.74c.34-8.1,0-16.31,1.19-24.26,1.64-10.63,8.76-13.28,17.52-7.37,1,2.42,2.37,4.76,2.93,7.27,1.44,6.49,2.52,13.06,3.75,19.6a.85.85,0,0,0,.06.92c.18,1,.36,2,.53,3l-4.71,3c-.48-1.18-1.47-2.42-1.36-3.54.35-3.47-1.71-4.14-4.37-4.39.36-1.67.3-3.63,1.18-5,2.68-4.05,2.51-7.64-1.18-10.75-1.58-1.33-3.41-2.37-5.22-3.62-1.73,4.26-3.32,8.18-4.43,10.93l3.46,8.71c-2.29.51-3.86,1.39-3.12,4.29.34,1.34-.07,2.88-.14,4.33L633,490C631.94,488.91,630.89,487.82,629.83,486.74Z" style="fill:#252545"/><path d="M655.81,485.91c-.17-1-.35-2-.53-3,.1-.1.3-.22.28-.28a4.38,4.38,0,0,0-.34-.64c-1.23-6.54-2.31-13.11-3.75-19.6-.56-2.51-1.93-4.85-2.93-7.27,7.2-1,9.55-3.59,8.54-9.26,2.93,3.39,7,6.33,8.56,10.27,3.65,9.27,2.27,18.46-4.12,26.39C660.22,484.12,657.75,484.8,655.81,485.91Z" style="fill:#dae8fd"/><path d="M670.89,466.61H716C712.32,469.54,675.72,469.71,670.89,466.61Z" style="fill:#fcfcfd"/><path d="M635.92,489.9c.07-1.45.48-3,.14-4.33-.74-2.9.83-3.78,3.12-4.29l3.32,4.56,2.87-4.87c2.66.25,4.72.92,4.37,4.39-.11,1.12.88,2.36,1.36,3.54C646.26,492.53,641.18,492.55,635.92,489.9Z" style="fill:#5f96d5"/><path d="M730,454.87h12.81l.08,2.7L728,458l-20.82-.36v-2.4Z" style="fill:#fcfcfd"/><path d="M672.22,455.58H701.3C699.56,458.31,677.34,459.15,672.22,455.58Z" style="fill:#fcfcfd"/><path d="M722,466h20.85c0,.77,0,1.55.08,2.32-6.65,3.25-14,1.14-21,1.44l-.79-.7.12-3A1.75,1.75,0,0,0,722,466Z" style="fill:#fcfcfd"/><path d="M672.56,477.35H701.3c0,.31,0,.61.05.92H672.58C672.57,478,672.56,477.66,672.56,477.35Z" style="fill:#fcfcfd"/><path d="M722.92,476.12l5.56,1.13,0,1.35-9.46.67-11.51-.6v-1.88Z" style="fill:#fcfcfd"/><path d="M721.27,466l-.12,3-2-1.63Z" style="fill:#93c7fd"/><path d="M148.05,198.72l-.33-.21.11-.33A3.6,3.6,0,0,1,148.05,198.72Z" style="fill:#dfca9f"/><path d="M560.73,188.83l-1.65.07-4.74-3.61c-.73,1.46-1.47,2.92-2.2,4.39l5.7,1.54.06,2.44c-4.12,1.73-7,.11-8-3.85-1-3.61,1.06-6.36,4.69-6.84C558.52,182.46,560.76,184.67,560.73,188.83Z" style="fill:#7d8daa"/><path d="M649,195l-1-2c.68-2.64,1.35-5.29,2-7.93H684l1,2,.06,6.94-3,1.94-2,1Z" style="fill:#93c7fd"/><path d="M633.92,186l1,1-1,6.89c-.34.32-.67.65-1,1-9.55,3.29-19.29,2.36-29,1.16-1.7-.21-3.28-1.38-4.92-2.1l-.93-7.91L600,185l32.93.05Z" style="fill:#93c7fd"/><path d="M557.84,191.22l-5.7-1.54c.73-1.47,1.47-2.93,2.2-4.39l4.74,3.61C558.66,189.67,558.25,190.45,557.84,191.22Z" style="fill:#fcfcfd"/><path d="M566.09,68.9c1,12.7-10.51,20-20,20.19-9.75.22-21.26-9.54-20.22-21.31,1-10.9,8.95-19.18,20-19.68C557.22,47.59,567.9,58.86,566.09,68.9Z" style="fill:#fefefe"/><path d="M645.37,481l-2.87,4.87-3.32-4.56-3.46-8.71c1.11-2.75,2.7-6.67,4.43-10.93,1.81,1.25,3.64,2.29,5.22,3.62,3.69,3.11,3.86,6.7,1.18,10.75C645.67,477.34,645.73,479.3,645.37,481Z" style="fill:#f7c6ab"/><path d="M655.22,482a4.38,4.38,0,0,1,.34.64c0,.06-.18.18-.28.28A.85.85,0,0,1,655.22,482Z" style="fill:#a7d4fc"/></g></g></svg>