<svg height="476pt" viewBox="-44 0 476 476.00384" width="476pt"
	xmlns="http://www.w3.org/2000/svg">
	<path d="m287.644531 139.59375h60.070313l30.140625 261.9375c3.960937 34.421875-24.519531 64.472656-61.089844 64.472656h-245.308594c-36.5625 0-65.042969-30.050781-61.082031-64.472656l30.140625-261.9375zm-24.527343 186.410156v-40h-49v-49h-40v49h-49v40h49v49h40v-49zm0 0" fill="#00bcd4"/>
	<path fill="#ffffff" d="m263.117188 286.003906v40h-49v49h-40v-49h-49v-40h49v-49h40v49zm0 0"/>
	<g  fill="#ffffff">
		<path d="m357.648438 138.652344c-.601563-5.003906-4.890626-8.742188-9.933594-8.648438h-49.597656v-34.042968c0-25.652344-10.734376-49.773438-29.792969-67.914063-19.28125-18.179687-44.828125-28.226563-71.324219-28.04296875-55.585938 0-100.882812 43.04687475-100.882812 95.95703175v34.042968h-55.601563c-5.039063-.09375-9.332031 3.644532-9.933594 8.648438l-30.140625 261.839844c-2.1875 18.773437 3.863282 37.578124 16.589844 51.554687 13.898438 15.371094 33.699219 24.085937 54.425781 23.957031h245.308594c20.734375.113282 40.539063-8.621094 54.4375-24.011718 12.722656-13.957032 18.773437-32.742188 16.585937-51.5zm-241.53125-42.691406c0-41.882813 36.210937-75.957032 80.765624-75.957032 21.402344-.175781 42.054688 7.894532 57.671876 22.53125 15.050781 14.328125 23.5625 33.300782 23.5625 53.425782v34.042968h-162zm240.15625 342.722656c-10.101563 11.136718-24.472657 17.433594-39.507813 17.320312h-245.308594c-15.03125.113282-29.402343-6.183594-39.5-17.316406-8.898437-9.679688-13.152343-22.746094-11.652343-35.804688l29.125-252.878906h46.6875v28.699219c0 5.523437 4.476562 10 10 10 5.519531 0 10-4.476563 10-10v-28.699219h162v28.699219c0 5.523437 4.476562 10 10 10 5.519531 0 10-4.476563 10-10v-28.699219h40.683593l29.121094 252.875c1.5 13.0625-2.75 26.128906-11.648437 35.804688zm0 0"/>
		<path fill="#ffffff" d="m263.117188 276.003906h-39v-39c0-5.523437-4.480469-10-10-10h-40c-5.523438 0-10 4.476563-10 10v39h-39c-5.523438 0-10 4.476563-10 10v40c0 5.519532 4.476562 10 10 10h39v39c0 5.519532 4.476562 10 10 10h40c5.519531 0 10-4.480468 10-10v-39h39c5.519531 0 10-4.480468 10-10v-40c0-5.523437-4.480469-10-10-10zm-10 40h-39c-5.523438 0-10 4.476563-10 10v39h-20v-39c0-5.523437-4.480469-10-10-10h-39v-20h39c5.519531 0 10-4.480468 10-10v-39h20v39c0 5.519532 4.476562 10 10 10h39zm0 0"/>
	</g>
</svg>