<svg xmlns="http://www.w3.org/2000/svg" viewBox="0 0 314.15 314.09"><title>Asset 5</title><g id="Layer_2" data-name="Layer 2"><g id="Layer_1-2" data-name="Layer 1"><path d="M0,260.11c2.57-5.12,6.78-6.5,12.33-6.37,13.08.3,26.17.1,39.25.1h4.2c0-5.5-.22-10.78,0-16,.81-15.92,3.47-31.42,10.81-45.84a3.83,3.83,0,0,0-.46-3.17c-4.09-6.12-8.34-12.12-12.5-18.18-3.88-5.62-3.05-10.25,2.55-14.14C66,149.7,75.74,143,85.4,136.17a10.53,10.53,0,0,0,3.51-4.34c10-24.4,24.92-45.29,45.56-61.68,12-9.51,24.83-17.93,37.39-26.7C190,30.77,208.31,18.22,226.52,5.6c9.11-6.32,18.66-7.76,28.39-1.88A30.25,30.25,0,0,1,263.75,12Q286.6,44.42,309,77.19c8.67,12.65,6.33,27.43-6.16,36.12-30.34,21.12-60.64,42.32-91.47,62.71-18.81,12.45-40.11,18.95-62.55,21.5-1.72.2-3.48.73-5.16.55-8.37-.9-15.11,2.29-21.56,7.35-6.74,5.28-14,9.86-21.09,14.74-6.23,4.32-10.63,3.49-15-2.8-2.19-3.15-4.37-6.32-6.9-10C73.68,222.79,72.83,238.14,73,254h3.5c13,0,26-.31,39,.09A128.35,128.35,0,0,0,149,250.19c24.25-5.7,48.87-8.8,73.83-7.77,17.46.72,34.52,3.56,50.12,12.15,4.11,2.27,6,5.7,5.33,9.42-1.14,6.14-7.23,9.26-12.91,6.2-11.27-6.09-23.4-8.85-36-10a179.65,179.65,0,0,0-43.41,1.39c-14.31,2.18-28.5,5.15-42.75,7.74a5,5,0,0,0-3.89,2.9q-18.86,36-59.18,41.34a3.35,3.35,0,0,0-1,.54H63.18a10.47,10.47,0,0,0-1.85-.66,75.66,75.66,0,0,1-43.55-21.57C9.84,284,4.33,274.59,0,264.41ZM206.05,158.85l-55-79.39a13.34,13.34,0,0,0-1.23.73c-20,15.16-35,34.17-44.32,57.51-2.2,5.53-5.16,9.86-10.3,13.1-7.84,4.93-15.3,10.46-23.09,15.84,8.19,11.87,16.25,23.53,24.42,35.36,8.7-6,17.29-11.88,25.78-17.89a15.62,15.62,0,0,1,9.71-3c16.46.33,32.28-2.92,47.61-8.69A126.07,126.07,0,0,0,206.05,158.85Zm57.16-39.33C244.7,92.8,226.33,66.31,207.9,39.71L165.31,69.22,220.6,149Zm14.41-9.83c4.86-3.37,9.47-6.55,14.06-9.76,5.68-4,6.41-8,2.46-13.75Q281.87,68.43,269.57,50.7c-6.74-9.73-13.45-19.47-20.22-29.18-2.52-3.61-6.79-5.24-10.11-3.23-5.79,3.51-11.27,7.54-17,11.45ZM23.41,271.28c12,17.89,32.77,27.49,55.44,24.89,19.53-2.23,35.51-15.05,40.17-24.89Z" style="fill:#1b5082"/><path d="M206.05,158.85a126.07,126.07,0,0,1-26.37,13.53c-15.33,5.77-31.15,9-47.61,8.69a15.62,15.62,0,0,0-9.71,3c-8.49,6-17.08,11.87-25.78,17.89-8.17-11.83-16.23-23.49-24.42-35.36,7.79-5.38,15.25-10.91,23.09-15.84,5.14-3.24,8.1-7.57,10.3-13.1,9.29-23.34,24.35-42.35,44.32-57.51a13.34,13.34,0,0,1,1.23-.73Zm-25.33-5.93L147,104.33a22,22,0,0,1-2,3.14c-10.45,11.28-19.07,23.84-24,38.4-2.73,8-6.76,14-14.19,18-3.63,2-6.83,4.68-10.43,7.21l4.58,6.57c6.24-4.31,12.06-8.45,18-12.35a11.23,11.23,0,0,1,5.06-1.55c10.24-.89,20.55-1.19,30.73-2.55C163.68,160,172.14,156.89,180.72,152.92Z" style="fill:#fcfdfd"/><path d="M263.21,119.52,220.6,149,165.31,69.22,207.9,39.71C226.33,66.31,244.7,92.8,263.21,119.52Z" style="fill:#fdc00e"/><path d="M277.62,109.69l-55.4-79.95c5.75-3.91,11.23-7.94,17-11.45,3.32-2,7.59-.38,10.11,3.23,6.77,9.71,13.48,19.45,20.22,29.18q12.29,17.74,24.57,35.48c3.95,5.71,3.22,9.78-2.46,13.75C287.09,103.14,282.48,106.32,277.62,109.69Z" style="fill:#fcfdfd"/><path d="M23.41,271.28H119c-4.66,9.84-20.64,22.66-40.17,24.89C56.18,298.77,35.39,289.17,23.41,271.28Z" style="fill:#56abde"/><path d="M180.72,152.92c-8.58,4-17,7.1-25.92,8.29-10.18,1.36-20.49,1.66-30.73,2.55a11.23,11.23,0,0,0-5.06,1.55c-6,3.9-11.78,8-18,12.35l-4.58-6.57c3.6-2.53,6.8-5.26,10.43-7.21,7.43-4,11.46-10,14.19-18,5-14.56,13.59-27.12,24-38.4a22,22,0,0,0,2-3.14Z" style="fill:#57acdf"/></g></g></svg>